ISO-10303-21;
HEADER;

/* File generated by HOOPS Exchange Version 24.0.0 */

FILE_DESCRIPTION(('HOOPS Exchange Step'),'2;1');

FILE_NAME('C:/Users/qcrew5/Desktop/vashti_enjoy_desktop/no_non_model.step',
'2026-07-08T11:30:50+08:00',
('qcrew5'),
('Unknown organisation'),
'HOOPS Exchange 2024.0',
'HOOPS Exchange',
'Unknown authorisation');

FILE_SCHEMA( ('AP242_MANAGED_MODEL_BASED_3D_ENGINEERING_MIM_LF {1 0 10303 442 1 1 4 }') );

ENDSEC;

DATA;
#3=(NAMED_UNIT(*)PLANE_ANGLE_UNIT()SI_UNIT($,.RADIAN.));
#4=PLANE_ANGLE_MEASURE_WITH_UNIT(PLANE_ANGLE_MEASURE(0.0174532925),#3);
#5=(CONVERSION_BASED_UNIT('DEGREE',#4)NAMED_UNIT(#6)PLANE_ANGLE_UNIT());
#6=DIMENSIONAL_EXPONENTS(0.,0.,0.,0.,0.,0.,0.);
#7=(NAMED_UNIT(*)SI_UNIT($,.STERADIAN.)SOLID_ANGLE_UNIT());
#8=(LENGTH_UNIT()NAMED_UNIT(*)SI_UNIT(.MILLI.,.METRE.));
#9=UNCERTAINTY_MEASURE_WITH_UNIT(LENGTH_MEASURE(1.000000E-05),#8,'DISTANCE_ACCURACY_VALUE','Maximum Tolerance applied to model');
#10=(GEOMETRIC_REPRESENTATION_CONTEXT(3)GLOBAL_UNCERTAINTY_ASSIGNED_CONTEXT((#9))GLOBAL_UNIT_ASSIGNED_CONTEXT((#8,#5,#7))REPRESENTATION_CONTEXT('','no_non_model_intermediate'));
#12=CARTESIAN_POINT('',(0.,0.,0.));
#13=DIRECTION('',(0.,0.,1.));
#14=DIRECTION('',(1.,0.,0.));
#15=AXIS2_PLACEMENT_3D('',#12,#13,#14);
#27=CARTESIAN_POINT('',(0.,0.,35.));
#28=DIRECTION('',(0.,0.,1.));
#29=DIRECTION('',(1.,0.,0.));
#30=AXIS2_PLACEMENT_3D('',#27,#28,#29);
#31=PLANE('',#30);
#32=CARTESIAN_POINT('',(4.,0.,35.));
#33=VERTEX_POINT('',#32);
#34=CARTESIAN_POINT('',(0.,0.,35.));
#35=DIRECTION('',(0.,0.,-1.));
#36=DIRECTION('',(1.,0.,0.));
#37=AXIS2_PLACEMENT_3D('',#34,#35,#36);
#38=CIRCLE('',#37,4.);
#39=EDGE_CURVE('',#33,#33,#38,.T.);
#40=ORIENTED_EDGE('',*,*,#39,.F.);
#41=EDGE_LOOP('',(#40));
#42=FACE_BOUND('',#41,.T.);
#43=ADVANCED_FACE('',(#42),#31,.T.);
#44=CARTESIAN_POINT('',(0.,0.,0.));
#45=DIRECTION('',(0.,0.,-1.));
#46=DIRECTION('',(-1.,0.,0.));
#47=AXIS2_PLACEMENT_3D('',#44,#45,#46);
#48=PLANE('',#47);
#49=CARTESIAN_POINT('',(4.,-0.,0.));
#50=VERTEX_POINT('',#49);
#51=CARTESIAN_POINT('',(0.,0.,0.));
#52=DIRECTION('',(0.,0.,1.));
#53=DIRECTION('',(1.,0.,0.));
#54=AXIS2_PLACEMENT_3D('',#51,#52,#53);
#55=CIRCLE('',#54,4.);
#56=EDGE_CURVE('',#50,#50,#55,.T.);
#57=ORIENTED_EDGE('',*,*,#56,.F.);
#58=EDGE_LOOP('',(#57));
#59=FACE_BOUND('',#58,.T.);
#60=ADVANCED_FACE('',(#59),#48,.T.);
#61=CARTESIAN_POINT('',(0.,0.,0.));
#62=DIRECTION('',(0.,0.,1.));
#63=DIRECTION('',(1.,0.,0.));
#64=AXIS2_PLACEMENT_3D('',#61,#62,#63);
#65=CYLINDRICAL_SURFACE('',#64,4.);
#66=CARTESIAN_POINT('',(4.,0.,35.));
#67=DIRECTION('',(-0.,-0.,-1.));
#68=VECTOR('',#67,35.);
#69=LINE('',#66,#68);
#70=EDGE_CURVE('',#33,#50,#69,.T.);
#71=ORIENTED_EDGE('',*,*,#70,.T.);
#72=ORIENTED_EDGE('',*,*,#56,.T.);
#73=ORIENTED_EDGE('',*,*,#70,.F.);
#74=ORIENTED_EDGE('',*,*,#39,.T.);
#75=EDGE_LOOP('',(#71,#72,#73,#74));
#76=FACE_BOUND('',#75,.T.);
#77=CARTESIAN_POINT('',(0.,4.,20.));
#78=VERTEX_POINT('',#77);
#79=CARTESIAN_POINT('',(0.,4.,20.));
#80=CARTESIAN_POINT('',(0.207876247,4.,20.));
#81=CARTESIAN_POINT('',(0.4108653,3.983908709,19.978638639));
#82=CARTESIAN_POINT('',(0.609366479,3.953311586,19.937460211));
#83=CARTESIAN_POINT('',(0.807867659,3.922714462,19.896281784));
#84=CARTESIAN_POINT('',(1.002801533,3.876908268,19.834312554));
#85=CARTESIAN_POINT('',(1.184105134,3.820719177,19.756427948));
#86=CARTESIAN_POINT('',(1.365408735,3.764530086,19.678543341));
#87=CARTESIAN_POINT('',(1.536818927,3.697160323,19.58366483));
#88=CARTESIAN_POINT('',(1.695784297,3.622749732,19.474735464));
#89=CARTESIAN_POINT('',(1.854749667,3.548339141,19.365806099));
#90=CARTESIAN_POINT('',(1.999474875,3.467933066,19.244433343));
#91=CARTESIAN_POINT('',(2.131812661,3.384578966,19.110775872));
#92=CARTESIAN_POINT('',(2.264150447,3.301224867,18.9771184));
#93=CARTESIAN_POINT('',(2.384164326,3.214586751,18.830523241));
#94=CARTESIAN_POINT('',(2.488681802,3.131527246,18.675250098));
#95=CARTESIAN_POINT('',(2.593199278,3.04846774,18.519976954));
#96=CARTESIAN_POINT('',(2.683476288,2.968145309,18.355053616));
#97=CARTESIAN_POINT('',(2.759194081,2.896005529,18.177645118));
#98=CARTESIAN_POINT('',(2.797052978,2.859935639,18.088940869));
#99=CARTESIAN_POINT('',(2.83136554,2.82580398,17.996541024));
#100=CARTESIAN_POINT('',(2.86102851,2.795445557,17.902505326));
#101=CARTESIAN_POINT('',(2.890691481,2.765087135,17.808469628));
#102=CARTESIAN_POINT('',(2.91588829,2.738339825,17.712503352));
#103=CARTESIAN_POINT('',(2.936425806,2.716137606,17.614331742));
#104=CARTESIAN_POINT('',(2.977500837,2.671733168,17.417988521));
#105=CARTESIAN_POINT('',(2.999641906,2.64615735,17.209841629));
#106=CARTESIAN_POINT('',(2.999995522,2.645756389,17.005183499));
#107=CARTESIAN_POINT('',(3.00017233,2.645555908,16.902854434));
#108=CARTESIAN_POINT('',(2.995126869,2.651311989,16.800754005));
#109=CARTESIAN_POINT('',(2.98484936,2.662832008,16.698878265));
#110=CARTESIAN_POINT('',(2.97457185,2.674352027,16.597002526));
#111=CARTESIAN_POINT('',(2.958902924,2.691800637,16.494962684));
#112=CARTESIAN_POINT('',(2.938603585,2.713781305,16.396171407));
#113=CARTESIAN_POINT('',(2.918304247,2.735761973,16.29738013));
#114=CARTESIAN_POINT('',(2.893339261,2.762310912,16.201048745));
#115=CARTESIAN_POINT('',(2.863960678,2.792441447,16.106843107));
#116=CARTESIAN_POINT('',(2.834582095,2.822571982,16.012637468));
#117=CARTESIAN_POINT('',(2.800568561,2.856490482,15.920100345));
#118=CARTESIAN_POINT('',(2.762849181,2.892518695,15.830955774));
#119=CARTESIAN_POINT('',(2.687410421,2.964575122,15.652666632));
#120=CARTESIAN_POINT('',(2.597357908,3.044917573,15.487104031));
#121=CARTESIAN_POINT('',(2.493090146,3.128018786,15.331317428));
#122=CARTESIAN_POINT('',(2.388822384,3.21112,15.175530824));
#123=CARTESIAN_POINT('',(2.268997286,3.297875715,15.028466106));
#124=CARTESIAN_POINT('',(2.137144748,3.381214623,14.894622997));
#125=CARTESIAN_POINT('',(2.00529221,3.46455353,14.760779888));
#126=CARTESIAN_POINT('',(1.861378358,3.544798586,14.639511091));
#127=CARTESIAN_POINT('',(1.703823389,3.618975802,14.530792463));
#128=CARTESIAN_POINT('',(1.54626842,3.693153018,14.422073836));
#129=CARTESIAN_POINT('',(1.373458792,3.761593956,14.325576438));
#130=CARTESIAN_POINT('',(1.192403378,3.818137528,14.247151623));
#131=CARTESIAN_POINT('',(1.011347964,3.874681101,14.168726809));
#132=CARTESIAN_POINT('',(0.819474988,3.920416248,14.106824419));
#133=CARTESIAN_POINT('',(0.618934935,3.951824838,14.064540999));
#134=CARTESIAN_POINT('',(0.418394882,3.983233427,14.022257579));
#135=CARTESIAN_POINT('',(0.215534382,3.999457214,14.000723716));
#136=CARTESIAN_POINT('',(0.010320286,3.999986686,14.000017751));
#137=CARTESIAN_POINT('',(-0.092286762,4.000251423,13.999664769));
#138=CARTESIAN_POINT('',(-0.196150268,3.996519434,14.004634528));
#139=CARTESIAN_POINT('',(-0.29902409,3.988807415,14.014939767));
#140=CARTESIAN_POINT('',(-0.401897911,3.981095396,14.025245006));
#141=CARTESIAN_POINT('',(-0.503024416,3.96952051,14.040729929));
#142=CARTESIAN_POINT('',(-0.602507188,3.954362792,14.0611252));
#143=CARTESIAN_POINT('',(-0.70198996,3.939205073,14.081520471));
#144=CARTESIAN_POINT('',(-0.799828344,3.920462684,14.106827751));
#145=CARTESIAN_POINT('',(-0.896075879,3.898339136,14.136951272));
#146=CARTESIAN_POINT('',(-0.992323414,3.876215588,14.167074793));
#147=CARTESIAN_POINT('',(-1.087265791,3.850582632,14.202194402));
#148=CARTESIAN_POINT('',(-1.178591671,3.822423534,14.241210107));
#149=CARTESIAN_POINT('',(-1.361243433,3.766105337,14.319241518));
#150=CARTESIAN_POINT('',(-1.531654634,3.69933504,14.413224307));
#151=CARTESIAN_POINT('',(-1.691326611,3.624833002,14.52221585));
#152=CARTESIAN_POINT('',(-1.850998589,3.550330964,14.631207394));
#153=CARTESIAN_POINT('',(-1.997037764,3.469336362,14.753408918));
#154=CARTESIAN_POINT('',(-2.129426101,3.386080992,14.886816505));
#155=CARTESIAN_POINT('',(-2.195620269,3.344453306,14.953520299));
#156=CARTESIAN_POINT('',(-2.258552232,3.302169208,15.023181285));
#157=CARTESIAN_POINT('',(-2.318325655,3.259657368,15.095960568));
#158=CARTESIAN_POINT('',(-2.378099077,3.217145529,15.16873985));
#159=CARTESIAN_POINT('',(-2.43477316,3.174332964,15.244795588));
#160=CARTESIAN_POINT('',(-2.487389083,3.132554158,15.322831091));
#161=CARTESIAN_POINT('',(-2.592620928,3.048996544,15.478902096));
#162=CARTESIAN_POINT('',(-2.682886908,2.968663001,15.643943285));
#163=CARTESIAN_POINT('',(-2.758296363,2.896860572,15.820253767));
#164=CARTESIAN_POINT('',(-2.796001091,2.860959358,15.908409008));
#165=CARTESIAN_POINT('',(-2.829954446,2.827222726,15.999414443));
#166=CARTESIAN_POINT('',(-2.859874588,2.796626064,16.093844747));
#167=CARTESIAN_POINT('',(-2.889794729,2.766029402,16.188275051));
#168=CARTESIAN_POINT('',(-2.91547153,2.73878563,16.285742863));
#169=CARTESIAN_POINT('',(-2.936132045,2.716455157,16.384265792));
#170=CARTESIAN_POINT('',(-2.95679256,2.694124684,16.482788721));
#171=CARTESIAN_POINT('',(-2.97264491,2.676498076,16.582970338));
#172=CARTESIAN_POINT('',(-2.983417947,2.664435655,16.685012136));
#173=CARTESIAN_POINT('',(-2.994190984,2.652373234,16.787053934));
#174=CARTESIAN_POINT('',(-2.99983049,2.645943512,16.891819868));
#175=CARTESIAN_POINT('',(-2.999996157,2.645755669,16.995198323));
#176=CARTESIAN_POINT('',(-3.000327492,2.645379983,17.201955231));
#177=CARTESIAN_POINT('',(-2.979307717,2.66971531,17.406255127));
#178=CARTESIAN_POINT('',(-2.938291985,2.71411868,17.60534305));
#179=CARTESIAN_POINT('',(-2.897276253,2.75852205,17.804430974));
#180=CARTESIAN_POINT('',(-2.838091115,2.820654466,17.991242585));
#181=CARTESIAN_POINT('',(-2.762790008,2.892575215,18.169184062));
#182=CARTESIAN_POINT('',(-2.687488902,2.964495963,18.347125539));
#183=CARTESIAN_POINT('',(-2.595486544,3.046525854,18.516124313));
#184=CARTESIAN_POINT('',(-2.490926848,3.129741753,18.671910118));
#185=CARTESIAN_POINT('',(-2.386367152,3.212957652,18.827695922));
#186=CARTESIAN_POINT('',(-2.268507459,3.298242261,18.972163275));
#187=CARTESIAN_POINT('',(-2.136102339,3.381873267,19.106434617));
#188=CARTESIAN_POINT('',(-2.069899779,3.42368877,19.173570288));
#189=CARTESIAN_POINT('',(-1.999636671,3.465310923,19.238416021));
#190=CARTESIAN_POINT('',(-1.926702912,3.505398107,19.299525145));
#191=CARTESIAN_POINT('',(-1.853769153,3.545485292,19.360634268));
#192=CARTESIAN_POINT('',(-1.77805734,3.58413893,19.418182431));
#193=CARTESIAN_POINT('',(-1.699456431,3.621028561,19.472215168));
#194=CARTESIAN_POINT('',(-1.542254613,3.694807822,19.580280644));
#195=CARTESIAN_POINT('',(-1.373613838,3.761595935,19.674432001));
#196=CARTESIAN_POINT('',(-1.19143631,3.818439409,19.753267063));
#197=CARTESIAN_POINT('',(-1.100347546,3.846861146,19.792684594));
#198=CARTESIAN_POINT('',(-1.005321112,3.872865184,19.828341612));
#199=CARTESIAN_POINT('',(-0.909137302,3.89531377,19.85892801));
#200=CARTESIAN_POINT('',(-0.812953492,3.917762356,19.889514408));
#201=CARTESIAN_POINT('',(-0.715128105,3.936843577,19.915292849));
#202=CARTESIAN_POINT('',(-0.615602558,3.952345315,19.93615965));
#203=CARTESIAN_POINT('',(-0.416551463,3.983348793,19.977893252));
#204=CARTESIAN_POINT('',(-0.208705984,4.,20.));
#205=CARTESIAN_POINT('',(0.,4.,20.));
#206=B_SPLINE_CURVE_WITH_KNOTS('',3,(#79,#80,#81,#82,#83,#84,#85,#86,#87,#88,#89,#90,#91,#92,#93,#94,#95,#96,#97,#98,#99,#100,#101,#102,#103,#104,
#105,#106,#107,#108,#109,#110,#111,#112,#113,#114,#115,#116,#117,#118,#119,#120,#121,#122,#123,#124,#125,#126,#127,#128,#129,
#130,#131,#132,#133,#134,#135,#136,#137,#138,#139,#140,#141,#142,#143,#144,#145,#146,#147,#148,#149,#150,#151,#152,#153,#154,
#155,#156,#157,#158,#159,#160,#161,#162,#163,#164,#165,#166,#167,#168,#169,#170,#171,#172,#173,#174,#175,#176,#177,#178,#179,
#180,#181,#182,#183,#184,#185,#186,#187,#188,#189,#190,#191,#192,#193,#194,#195,#196,#197,#198,#199,#200,#201,#202,#203,#204,
#205),.UNSPECIFIED.,.T.,.F.,(4,3,3,3,3,3,3,3,3,3,3,3,3,3,3,3,3,3,3,3,3,3,3,3,3,3,
3,3,3,3,3,3,3,3,3,3,3,3,3,3,3,3,4),(0.,0.000613469,0.001226939,0.001840408,0.002453877,0.003067347,0.003680816,0.00398755,0.004294285,0.004907754,0.005214489,0.005521224,0.005827958,0.006134693,0.006748162,0.007361632,0.007975101,0.00858857,0.00920204,0.009815509,0.010122243,0.010428978,0.010735713,0.011042447,0.011655917,0.012269386,
0.012576121,0.012882855,0.013496325,0.013803059,0.014109794,0.014416529,0.014723263,0.015336733,0.015950202,0.016563671,0.01717714,0.017483875,0.01779061,0.018404079,0.018710814,0.019017548,0.019631018),.UNSPECIFIED.);
#207=EDGE_CURVE('',#78,#78,#206,.T.);
#208=ORIENTED_EDGE('',*,*,#207,.F.);
#209=EDGE_LOOP('',(#208));
#210=FACE_BOUND('',#209,.T.);
#211=ADVANCED_FACE('',(#76,#210),#65,.T.);
#212=CARTESIAN_POINT('',(-0.,22.5,17.));
#213=DIRECTION('',(-0.,1.,-0.));
#214=DIRECTION('',(0.,0.,1.));
#215=AXIS2_PLACEMENT_3D('',#212,#213,#214);
#216=PLANE('',#215);
#217=CARTESIAN_POINT('',(-0.,22.5,20.));
#218=VERTEX_POINT('',#217);
#219=CARTESIAN_POINT('',(-0.,22.5,17.));
#220=DIRECTION('',(0.,-1.,0.));
#221=DIRECTION('',(0.,0.,1.));
#222=AXIS2_PLACEMENT_3D('',#219,#220,#221);
#223=CIRCLE('',#222,3.);
#224=EDGE_CURVE('',#218,#218,#223,.T.);
#225=ORIENTED_EDGE('',*,*,#224,.F.);
#226=EDGE_LOOP('',(#225));
#227=FACE_BOUND('',#226,.T.);
#228=ADVANCED_FACE('',(#227),#216,.T.);
#229=CARTESIAN_POINT('',(0.,2.5,17.));
#230=DIRECTION('',(-0.,1.,-0.));
#231=DIRECTION('',(0.,0.,1.));
#232=AXIS2_PLACEMENT_3D('',#229,#230,#231);
#233=CYLINDRICAL_SURFACE('',#232,3.);
#234=CARTESIAN_POINT('',(-0.,22.5,20.));
#235=DIRECTION('',(0.,-1.,0.));
#236=VECTOR('',#235,18.5);
#237=LINE('',#234,#236);
#238=EDGE_CURVE('',#218,#78,#237,.T.);
#239=ORIENTED_EDGE('',*,*,#238,.T.);
#240=ORIENTED_EDGE('',*,*,#207,.T.);
#241=ORIENTED_EDGE('',*,*,#238,.F.);
#242=ORIENTED_EDGE('',*,*,#224,.T.);
#243=EDGE_LOOP('',(#239,#240,#241,#242));
#244=FACE_BOUND('',#243,.T.);
#245=ADVANCED_FACE('',(#244),#233,.T.);
#246=CLOSED_SHELL('',(#43,#60,#211,#228,#245));
#247=MANIFOLD_SOLID_BREP('cavity',#246);
#248=COLOUR_RGB('',0.752941191,0.752941191,0.752941191);
#249=FILL_AREA_STYLE_COLOUR('',#248);
#250=FILL_AREA_STYLE('',(#249));
#251=SURFACE_STYLE_FILL_AREA(#250);
#252=SURFACE_SIDE_STYLE('',(#251));
#253=SURFACE_STYLE_USAGE(.BOTH.,#252);
#254=PRESENTATION_STYLE_ASSIGNMENT((#253));
#26=STYLED_ITEM('',(#254),#247);
#255=DESCRIPTIVE_REPRESENTATION_ITEM('AEDT_MaterialName_V1','vacuum');
#256=ID_ATTRIBUTE('SA #257',#257);
#257=SHAPE_ASPECT('properties','',#23,.F.);
#258=GEOMETRIC_ITEM_SPECIFIC_USAGE('','properties',#257,#17,#247);
#259=PROPERTY_DEFINITION('AEDT_MaterialName_V1','',#257);
#260=REPRESENTATION('',(#255),#10);
#261=PROPERTY_DEFINITION_REPRESENTATION(#259,#260);
#262=GENERAL_PROPERTY('','AEDT_MaterialName_V1','');
#263=GENERAL_PROPERTY_ASSOCIATION('','',#262,#259);
#264=INTEGER_REPRESENTATION_ITEM('AEDT_BODYFlagGroupColor_V1',0);
#265=INTEGER_REPRESENTATION_ITEM('AEDT_BODYFlagGroupColor_V1',-1);
#266=INTEGER_REPRESENTATION_ITEM('AEDT_BODYFlagGroupColor_V1',-2134851392);
#267=INTEGER_REPRESENTATION_ITEM('AEDT_BODYFlagGroupColor_V1',5);
#268=PROPERTY_DEFINITION('AEDT_BODYFlagGroupColor_V1','',#257);
#269=REPRESENTATION('',(#264,#265,#266,#267),#10);
#270=PROPERTY_DEFINITION_REPRESENTATION(#268,#269);
#271=GENERAL_PROPERTY('','AEDT_BODYFlagGroupColor_V1','');
#272=GENERAL_PROPERTY_ASSOCIATION('','',#271,#268);
#273=DESCRIPTIVE_REPRESENTATION_ITEM('AEDT_EntityName_V1','cavity');
#274=PROPERTY_DEFINITION('AEDT_EntityName_V1','',#257);
#275=REPRESENTATION('',(#273),#10);
#276=PROPERTY_DEFINITION_REPRESENTATION(#274,#275);
#277=GENERAL_PROPERTY('','AEDT_EntityName_V1','');
#278=GENERAL_PROPERTY_ASSOCIATION('','',#277,#274);
#280=CARTESIAN_POINT('',(0.,0.,17.));
#281=DIRECTION('',(0.,0.,1.));
#282=DIRECTION('',(1.,0.,0.));
#283=AXIS2_PLACEMENT_3D('',#280,#281,#282);
#284=PLANE('',#283);
#285=CARTESIAN_POINT('',(1.5,0.,17.));
#286=VERTEX_POINT('',#285);
#287=CARTESIAN_POINT('',(0.,0.,17.));
#288=DIRECTION('',(0.,0.,-1.));
#289=DIRECTION('',(1.,0.,0.));
#290=AXIS2_PLACEMENT_3D('',#287,#288,#289);
#291=CIRCLE('',#290,1.5);
#292=EDGE_CURVE('',#286,#286,#291,.T.);
#293=ORIENTED_EDGE('',*,*,#292,.F.);
#294=EDGE_LOOP('',(#293));
#295=FACE_BOUND('',#294,.T.);
#296=ADVANCED_FACE('',(#295),#284,.T.);
#297=CARTESIAN_POINT('',(0.,0.,0.));
#298=DIRECTION('',(0.,0.,-1.));
#299=DIRECTION('',(-1.,0.,0.));
#300=AXIS2_PLACEMENT_3D('',#297,#298,#299);
#301=PLANE('',#300);
#302=CARTESIAN_POINT('',(1.5,-0.,0.));
#303=VERTEX_POINT('',#302);
#304=CARTESIAN_POINT('',(0.,0.,0.));
#305=DIRECTION('',(0.,0.,1.));
#306=DIRECTION('',(1.,0.,0.));
#307=AXIS2_PLACEMENT_3D('',#304,#305,#306);
#308=CIRCLE('',#307,1.5);
#309=EDGE_CURVE('',#303,#303,#308,.T.);
#310=ORIENTED_EDGE('',*,*,#309,.F.);
#311=EDGE_LOOP('',(#310));
#312=FACE_BOUND('',#311,.T.);
#313=ADVANCED_FACE('',(#312),#301,.T.);
#314=CARTESIAN_POINT('',(0.,0.,0.));
#315=DIRECTION('',(0.,0.,1.));
#316=DIRECTION('',(1.,0.,0.));
#317=AXIS2_PLACEMENT_3D('',#314,#315,#316);
#318=CYLINDRICAL_SURFACE('',#317,1.5);
#319=CARTESIAN_POINT('',(1.5,0.,17.));
#320=DIRECTION('',(-0.,-0.,-1.));
#321=VECTOR('',#320,17.);
#322=LINE('',#319,#321);
#323=EDGE_CURVE('',#286,#303,#322,.T.);
#324=ORIENTED_EDGE('',*,*,#323,.T.);
#325=ORIENTED_EDGE('',*,*,#309,.T.);
#326=ORIENTED_EDGE('',*,*,#323,.F.);
#327=ORIENTED_EDGE('',*,*,#292,.T.);
#328=EDGE_LOOP('',(#324,#325,#326,#327));
#329=FACE_BOUND('',#328,.T.);
#330=ADVANCED_FACE('',(#329),#318,.T.);
#331=CLOSED_SHELL('',(#296,#313,#330));
#332=MANIFOLD_SOLID_BREP('pin',#331);
#333=COLOUR_RGB('',1.,0.501960814,0.250980407);
#334=FILL_AREA_STYLE_COLOUR('',#333);
#335=FILL_AREA_STYLE('',(#334));
#336=SURFACE_STYLE_FILL_AREA(#335);
#337=SURFACE_SIDE_STYLE('',(#336));
#338=SURFACE_STYLE_USAGE(.BOTH.,#337);
#339=PRESENTATION_STYLE_ASSIGNMENT((#338));
#279=STYLED_ITEM('',(#339),#332);
#340=DESCRIPTIVE_REPRESENTATION_ITEM('AEDT_MaterialName_V1','perfect conductor');
#341=ID_ATTRIBUTE('SA #342',#342);
#342=SHAPE_ASPECT('properties','',#23,.F.);
#343=GEOMETRIC_ITEM_SPECIFIC_USAGE('','properties',#342,#17,#332);
#344=PROPERTY_DEFINITION('AEDT_MaterialName_V1','',#342);
#345=REPRESENTATION('',(#340),#10);
#346=PROPERTY_DEFINITION_REPRESENTATION(#344,#345);
#347=GENERAL_PROPERTY('','AEDT_MaterialName_V1','');
#348=GENERAL_PROPERTY_ASSOCIATION('','',#347,#344);
#349=INTEGER_REPRESENTATION_ITEM('AEDT_BODYFlagGroupColor_V1',0);
#350=INTEGER_REPRESENTATION_ITEM('AEDT_BODYFlagGroupColor_V1',-1);
#351=INTEGER_REPRESENTATION_ITEM('AEDT_BODYFlagGroupColor_V1',-2130739136);
#352=INTEGER_REPRESENTATION_ITEM('AEDT_BODYFlagGroupColor_V1',5);
#353=PROPERTY_DEFINITION('AEDT_BODYFlagGroupColor_V1','',#342);
#354=REPRESENTATION('',(#349,#350,#351,#352),#10);
#355=PROPERTY_DEFINITION_REPRESENTATION(#353,#354);
#356=GENERAL_PROPERTY('','AEDT_BODYFlagGroupColor_V1','');
#357=GENERAL_PROPERTY_ASSOCIATION('','',#356,#353);
#358=DESCRIPTIVE_REPRESENTATION_ITEM('AEDT_EntityName_V1','pin');
#359=PROPERTY_DEFINITION('AEDT_EntityName_V1','',#342);
#360=REPRESENTATION('',(#358),#10);
#361=PROPERTY_DEFINITION_REPRESENTATION(#359,#360);
#362=GENERAL_PROPERTY('','AEDT_EntityName_V1','');
#363=GENERAL_PROPERTY_ASSOCIATION('','',#362,#359);
#365=CARTESIAN_POINT('',(0.,12.5,17.));
#366=DIRECTION('',(0.,0.,1.));
#367=DIRECTION('',(1.,0.,0.));
#368=AXIS2_PLACEMENT_3D('',#365,#366,#367);
#369=PLANE('',#368);
#370=CARTESIAN_POINT('',(2.,2.5,17.));
#371=VERTEX_POINT('',#370);
#372=CARTESIAN_POINT('',(-2.,2.5,17.));
#373=VERTEX_POINT('',#372);
#374=CARTESIAN_POINT('',(2.,2.5,17.));
#375=DIRECTION('',(-1.,0.,0.));
#376=VECTOR('',#375,4.);
#377=LINE('',#374,#376);
#378=EDGE_CURVE('',#371,#373,#377,.T.);
#379=ORIENTED_EDGE('',*,*,#378,.F.);
#380=CARTESIAN_POINT('',(2.,22.5,17.));
#381=VERTEX_POINT('',#380);
#382=CARTESIAN_POINT('',(2.,22.5,17.));
#383=DIRECTION('',(0.,-1.,0.));
#384=VECTOR('',#383,20.);
#385=LINE('',#382,#384);
#386=EDGE_CURVE('',#381,#371,#385,.T.);
#387=ORIENTED_EDGE('',*,*,#386,.F.);
#388=CARTESIAN_POINT('',(-2.,22.5,17.));
#389=VERTEX_POINT('',#388);
#390=CARTESIAN_POINT('',(-2.,22.5,17.));
#391=DIRECTION('',(1.,0.,-0.));
#392=VECTOR('',#391,4.);
#393=LINE('',#390,#392);
#394=EDGE_CURVE('',#389,#381,#393,.T.);
#395=ORIENTED_EDGE('',*,*,#394,.F.);
#396=CARTESIAN_POINT('',(-2.,2.5,17.));
#397=DIRECTION('',(0.,1.,0.));
#398=VECTOR('',#397,20.);
#399=LINE('',#396,#398);
#400=EDGE_CURVE('',#373,#389,#399,.T.);
#401=ORIENTED_EDGE('',*,*,#400,.F.);
#402=EDGE_LOOP('',(#379,#387,#395,#401));
#403=FACE_BOUND('',#402,.T.);
#404=ADVANCED_FACE('',(#403),#369,.T.);
#405=CARTESIAN_POINT('',(0.,2.5,16.57));
#406=DIRECTION('',(0.,-1.,0.));
#407=DIRECTION('',(0.,0.,-1.));
#408=AXIS2_PLACEMENT_3D('',#405,#406,#407);
#409=PLANE('',#408);
#410=CARTESIAN_POINT('',(2.,2.5,16.57));
#411=VERTEX_POINT('',#410);
#412=CARTESIAN_POINT('',(2.,2.5,16.57));
#413=DIRECTION('',(0.,0.,1.));
#414=VECTOR('',#413,0.43);
#415=LINE('',#412,#414);
#416=EDGE_CURVE('',#411,#371,#415,.T.);
#417=ORIENTED_EDGE('',*,*,#416,.T.);
#418=ORIENTED_EDGE('',*,*,#378,.T.);
#419=CARTESIAN_POINT('',(-2.,2.5,16.57));
#420=VERTEX_POINT('',#419);
#421=CARTESIAN_POINT('',(-2.,2.5,16.57));
#422=DIRECTION('',(0.,0.,1.));
#423=VECTOR('',#422,0.43);
#424=LINE('',#421,#423);
#425=EDGE_CURVE('',#420,#373,#424,.T.);
#426=ORIENTED_EDGE('',*,*,#425,.F.);
#427=CARTESIAN_POINT('',(-2.,2.5,16.57));
#428=DIRECTION('',(1.,0.,-0.));
#429=VECTOR('',#428,4.);
#430=LINE('',#427,#429);
#431=EDGE_CURVE('',#420,#411,#430,.T.);
#432=ORIENTED_EDGE('',*,*,#431,.T.);
#433=EDGE_LOOP('',(#417,#418,#426,#432));
#434=FACE_BOUND('',#433,.T.);
#435=ADVANCED_FACE('',(#434),#409,.T.);
#436=CARTESIAN_POINT('',(-2.,12.5,16.57));
#437=DIRECTION('',(-1.,0.,0.));
#438=DIRECTION('',(0.,0.,1.));
#439=AXIS2_PLACEMENT_3D('',#436,#437,#438);
#440=PLANE('',#439);
#441=ORIENTED_EDGE('',*,*,#425,.T.);
#442=ORIENTED_EDGE('',*,*,#400,.T.);
#443=CARTESIAN_POINT('',(-2.,22.5,16.57));
#444=VERTEX_POINT('',#443);
#445=CARTESIAN_POINT('',(-2.,22.5,16.57));
#446=DIRECTION('',(0.,0.,1.));
#447=VECTOR('',#446,0.43);
#448=LINE('',#445,#447);
#449=EDGE_CURVE('',#444,#389,#448,.T.);
#450=ORIENTED_EDGE('',*,*,#449,.F.);
#451=CARTESIAN_POINT('',(-2.,22.5,16.57));
#452=DIRECTION('',(0.,-1.,0.));
#453=VECTOR('',#452,20.);
#454=LINE('',#451,#453);
#455=EDGE_CURVE('',#444,#420,#454,.T.);
#456=ORIENTED_EDGE('',*,*,#455,.T.);
#457=EDGE_LOOP('',(#441,#442,#450,#456));
#458=FACE_BOUND('',#457,.T.);
#459=ADVANCED_FACE('',(#458),#440,.T.);
#460=CARTESIAN_POINT('',(0.,22.5,16.57));
#461=DIRECTION('',(0.,1.,0.));
#462=DIRECTION('',(0.,0.,1.));
#463=AXIS2_PLACEMENT_3D('',#460,#461,#462);
#464=PLANE('',#463);
#465=ORIENTED_EDGE('',*,*,#449,.T.);
#466=ORIENTED_EDGE('',*,*,#394,.T.);
#467=CARTESIAN_POINT('',(2.,22.5,16.57));
#468=VERTEX_POINT('',#467);
#469=CARTESIAN_POINT('',(2.,22.5,16.57));
#470=DIRECTION('',(0.,0.,1.));
#471=VECTOR('',#470,0.43);
#472=LINE('',#469,#471);
#473=EDGE_CURVE('',#468,#381,#472,.T.);
#474=ORIENTED_EDGE('',*,*,#473,.F.);
#475=CARTESIAN_POINT('',(2.,22.5,16.57));
#476=DIRECTION('',(-1.,0.,0.));
#477=VECTOR('',#476,4.);
#478=LINE('',#475,#477);
#479=EDGE_CURVE('',#468,#444,#478,.T.);
#480=ORIENTED_EDGE('',*,*,#479,.T.);
#481=EDGE_LOOP('',(#465,#466,#474,#480));
#482=FACE_BOUND('',#481,.T.);
#483=ADVANCED_FACE('',(#482),#464,.T.);
#484=CARTESIAN_POINT('',(0.,12.5,16.57));
#485=DIRECTION('',(0.,0.,-1.));
#486=DIRECTION('',(-1.,0.,0.));
#487=AXIS2_PLACEMENT_3D('',#484,#485,#486);
#488=PLANE('',#487);
#489=CARTESIAN_POINT('',(2.,2.5,16.57));
#490=DIRECTION('',(0.,1.,0.));
#491=VECTOR('',#490,20.);
#492=LINE('',#489,#491);
#493=EDGE_CURVE('',#411,#468,#492,.T.);
#494=ORIENTED_EDGE('',*,*,#493,.F.);
#495=ORIENTED_EDGE('',*,*,#431,.F.);
#496=ORIENTED_EDGE('',*,*,#455,.F.);
#497=ORIENTED_EDGE('',*,*,#479,.F.);
#498=EDGE_LOOP('',(#494,#495,#496,#497));
#499=FACE_BOUND('',#498,.T.);
#500=ADVANCED_FACE('',(#499),#488,.T.);
#501=CARTESIAN_POINT('',(2.,12.5,16.57));
#502=DIRECTION('',(1.,0.,0.));
#503=DIRECTION('',(0.,0.,-1.));
#504=AXIS2_PLACEMENT_3D('',#501,#502,#503);
#505=PLANE('',#504);
#506=ORIENTED_EDGE('',*,*,#493,.T.);
#507=ORIENTED_EDGE('',*,*,#473,.T.);
#508=ORIENTED_EDGE('',*,*,#386,.T.);
#509=ORIENTED_EDGE('',*,*,#416,.F.);
#510=EDGE_LOOP('',(#506,#507,#508,#509));
#511=FACE_BOUND('',#510,.T.);
#512=ADVANCED_FACE('',(#511),#505,.T.);
#513=CLOSED_SHELL('',(#404,#435,#459,#483,#500,#512));
#514=MANIFOLD_SOLID_BREP('chip',#513);
#515=COLOUR_RGB('',1.,1.,0.501960814);
#516=FILL_AREA_STYLE_COLOUR('',#515);
#517=FILL_AREA_STYLE('',(#516));
#518=SURFACE_STYLE_FILL_AREA(#517);
#519=SURFACE_SIDE_STYLE('',(#518));
#520=SURFACE_STYLE_USAGE(.BOTH.,#519);
#521=PRESENTATION_STYLE_ASSIGNMENT((#520));
#364=STYLED_ITEM('',(#521),#514);
#522=DESCRIPTIVE_REPRESENTATION_ITEM('AEDT_MaterialName_V1','sapphire');
#523=ID_ATTRIBUTE('SA #524',#524);
#524=SHAPE_ASPECT('properties','',#23,.F.);
#525=GEOMETRIC_ITEM_SPECIFIC_USAGE('','properties',#524,#17,#514);
#526=PROPERTY_DEFINITION('AEDT_MaterialName_V1','',#524);
#527=REPRESENTATION('',(#522),#10);
#528=PROPERTY_DEFINITION_REPRESENTATION(#526,#527);
#529=GENERAL_PROPERTY('','AEDT_MaterialName_V1','');
#530=GENERAL_PROPERTY_ASSOCIATION('','',#529,#526);
#531=INTEGER_REPRESENTATION_ITEM('AEDT_BODYFlagGroupColor_V1',0);
#532=INTEGER_REPRESENTATION_ITEM('AEDT_BODYFlagGroupColor_V1',-1);
#533=INTEGER_REPRESENTATION_ITEM('AEDT_BODYFlagGroupColor_V1',-2130706560);
#534=INTEGER_REPRESENTATION_ITEM('AEDT_BODYFlagGroupColor_V1',5);
#535=PROPERTY_DEFINITION('AEDT_BODYFlagGroupColor_V1','',#524);
#536=REPRESENTATION('',(#531,#532,#533,#534),#10);
#537=PROPERTY_DEFINITION_REPRESENTATION(#535,#536);
#538=GENERAL_PROPERTY('','AEDT_BODYFlagGroupColor_V1','');
#539=GENERAL_PROPERTY_ASSOCIATION('','',#538,#535);
#540=DESCRIPTIVE_REPRESENTATION_ITEM('AEDT_EntityName_V1','chip');
#541=PROPERTY_DEFINITION('AEDT_EntityName_V1','',#524);
#542=REPRESENTATION('',(#540),#10);
#543=PROPERTY_DEFINITION_REPRESENTATION(#541,#542);
#544=GENERAL_PROPERTY('','AEDT_EntityName_V1','');
#545=GENERAL_PROPERTY_ASSOCIATION('','',#544,#541);
#547=CARTESIAN_POINT('',(0.,0.,17.));
#548=DIRECTION('',(0.,0.,1.));
#549=DIRECTION('',(1.,0.,0.));
#550=AXIS2_PLACEMENT_3D('',#547,#548,#549);
#551=PLANE('',#550);
#552=CARTESIAN_POINT('',(-0.5,6.,17.));
#553=VERTEX_POINT('',#552);
#554=CARTESIAN_POINT('',(-0.5,5.5,17.));
#555=VERTEX_POINT('',#554);
#556=CARTESIAN_POINT('',(-0.5,6.,17.));
#557=DIRECTION('',(0.,-1.,0.));
#558=VECTOR('',#557,0.5);
#559=LINE('',#556,#558);
#560=EDGE_CURVE('',#553,#555,#559,.T.);
#561=ORIENTED_EDGE('',*,*,#560,.T.);
#562=CARTESIAN_POINT('',(0.5,5.5,17.));
#563=VERTEX_POINT('',#562);
#564=CARTESIAN_POINT('',(-0.5,5.5,17.));
#565=DIRECTION('',(1.,0.,-0.));
#566=VECTOR('',#565,1.);
#567=LINE('',#564,#566);
#568=EDGE_CURVE('',#555,#563,#567,.T.);
#569=ORIENTED_EDGE('',*,*,#568,.T.);
#570=CARTESIAN_POINT('',(0.5,6.,17.));
#571=VERTEX_POINT('',#570);
#572=CARTESIAN_POINT('',(0.5,5.5,17.));
#573=DIRECTION('',(0.,1.,0.));
#574=VECTOR('',#573,0.5);
#575=LINE('',#572,#574);
#576=EDGE_CURVE('',#563,#571,#575,.T.);
#577=ORIENTED_EDGE('',*,*,#576,.T.);
#578=CARTESIAN_POINT('',(0.015,6.,17.));
#579=VERTEX_POINT('',#578);
#580=CARTESIAN_POINT('',(0.5,6.,17.));
#581=DIRECTION('',(-1.,0.,0.));
#582=VECTOR('',#581,0.485);
#583=LINE('',#580,#582);
#584=EDGE_CURVE('',#571,#579,#583,.T.);
#585=ORIENTED_EDGE('',*,*,#584,.T.);
#586=CARTESIAN_POINT('',(0.015,6.05,17.));
#587=VERTEX_POINT('',#586);
#588=CARTESIAN_POINT('',(0.015,6.,17.));
#589=DIRECTION('',(0.,1.,0.));
#590=VECTOR('',#589,0.05);
#591=LINE('',#588,#590);
#592=EDGE_CURVE('',#579,#587,#591,.T.);
#593=ORIENTED_EDGE('',*,*,#592,.T.);
#594=CARTESIAN_POINT('',(-0.015,6.05,17.));
#595=VERTEX_POINT('',#594);
#596=CARTESIAN_POINT('',(0.015,6.05,17.));
#597=DIRECTION('',(-1.,0.,0.));
#598=VECTOR('',#597,0.03);
#599=LINE('',#596,#598);
#600=EDGE_CURVE('',#587,#595,#599,.T.);
#601=ORIENTED_EDGE('',*,*,#600,.T.);
#602=CARTESIAN_POINT('',(-0.015,6.,17.));
#603=VERTEX_POINT('',#602);
#604=CARTESIAN_POINT('',(-0.015,6.05,17.));
#605=DIRECTION('',(0.,-1.,0.));
#606=VECTOR('',#605,0.05);
#607=LINE('',#604,#606);
#608=EDGE_CURVE('',#595,#603,#607,.T.);
#609=ORIENTED_EDGE('',*,*,#608,.T.);
#610=CARTESIAN_POINT('',(-0.015,6.,17.));
#611=DIRECTION('',(-1.,0.,0.));
#612=VECTOR('',#611,0.485);
#613=LINE('',#610,#612);
#614=EDGE_CURVE('',#603,#553,#613,.T.);
#615=ORIENTED_EDGE('',*,*,#614,.T.);
#616=EDGE_LOOP('',(#561,#569,#577,#585,#593,#601,#609,#615));
#617=FACE_BOUND('',#616,.T.);
#618=ADVANCED_FACE('',(#617),#551,.T.);
#619=OPEN_SHELL('',(#618));
#620=CARTESIAN_POINT('',(0.,12.185,17.));
#621=DIRECTION('',(0.,0.,1.));
#622=DIRECTION('',(1.,0.,0.));
#623=AXIS2_PLACEMENT_3D('',#620,#621,#622);
#624=PLANE('',#623);
#625=CARTESIAN_POINT('',(-0.015,6.135,17.));
#626=VERTEX_POINT('',#625);
#627=CARTESIAN_POINT('',(-0.015,6.185,17.));
#628=VERTEX_POINT('',#627);
#629=CARTESIAN_POINT('',(-0.015,6.135,17.));
#630=DIRECTION('',(0.,1.,0.));
#631=VECTOR('',#630,0.05);
#632=LINE('',#629,#631);
#633=EDGE_CURVE('',#626,#628,#632,.T.);
#634=ORIENTED_EDGE('',*,*,#633,.F.);
#635=CARTESIAN_POINT('',(0.015,6.135,17.));
#636=VERTEX_POINT('',#635);
#637=CARTESIAN_POINT('',(0.015,6.135,17.));
#638=DIRECTION('',(-1.,0.,0.));
#639=VECTOR('',#638,0.03);
#640=LINE('',#637,#639);
#641=EDGE_CURVE('',#636,#626,#640,.T.);
#642=ORIENTED_EDGE('',*,*,#641,.F.);
#643=CARTESIAN_POINT('',(0.015,6.185,17.));
#644=VERTEX_POINT('',#643);
#645=CARTESIAN_POINT('',(0.015,6.185,17.));
#646=DIRECTION('',(0.,-1.,0.));
#647=VECTOR('',#646,0.05);
#648=LINE('',#645,#647);
#649=EDGE_CURVE('',#644,#636,#648,.T.);
#650=ORIENTED_EDGE('',*,*,#649,.F.);
#651=CARTESIAN_POINT('',(0.5,6.185,17.));
#652=VERTEX_POINT('',#651);
#653=CARTESIAN_POINT('',(0.5,6.185,17.));
#654=DIRECTION('',(-1.,0.,0.));
#655=VECTOR('',#654,0.485);
#656=LINE('',#653,#655);
#657=EDGE_CURVE('',#652,#644,#656,.T.);
#658=ORIENTED_EDGE('',*,*,#657,.F.);
#659=CARTESIAN_POINT('',(0.5,6.685,17.));
#660=VERTEX_POINT('',#659);
#661=CARTESIAN_POINT('',(0.5,6.685,17.));
#662=DIRECTION('',(0.,-1.,0.));
#663=VECTOR('',#662,0.5);
#664=LINE('',#661,#663);
#665=EDGE_CURVE('',#660,#652,#664,.T.);
#666=ORIENTED_EDGE('',*,*,#665,.F.);
#667=CARTESIAN_POINT('',(-0.5,6.685,17.));
#668=VERTEX_POINT('',#667);
#669=CARTESIAN_POINT('',(-0.5,6.685,17.));
#670=DIRECTION('',(1.,0.,-0.));
#671=VECTOR('',#670,1.);
#672=LINE('',#669,#671);
#673=EDGE_CURVE('',#668,#660,#672,.T.);
#674=ORIENTED_EDGE('',*,*,#673,.F.);
#675=CARTESIAN_POINT('',(-0.5,6.185,17.));
#676=VERTEX_POINT('',#675);
#677=CARTESIAN_POINT('',(-0.5,6.185,17.));
#678=DIRECTION('',(0.,1.,0.));
#679=VECTOR('',#678,0.5);
#680=LINE('',#677,#679);
#681=EDGE_CURVE('',#676,#668,#680,.T.);
#682=ORIENTED_EDGE('',*,*,#681,.F.);
#683=CARTESIAN_POINT('',(-0.015,6.185,17.));
#684=DIRECTION('',(-1.,0.,0.));
#685=VECTOR('',#684,0.485);
#686=LINE('',#683,#685);
#687=EDGE_CURVE('',#628,#676,#686,.T.);
#688=ORIENTED_EDGE('',*,*,#687,.F.);
#689=EDGE_LOOP('',(#634,#642,#650,#658,#666,#674,#682,#688));
#690=FACE_BOUND('',#689,.T.);
#691=ADVANCED_FACE('',(#690),#624,.T.);
#692=OPEN_SHELL('',(#691));
#693=SHELL_BASED_SURFACE_MODEL('pads',(#619,#692));
#694=COLOUR_RGB('',1.,0.,0.501960814);
#695=FILL_AREA_STYLE_COLOUR('',#694);
#696=FILL_AREA_STYLE('',(#695));
#697=SURFACE_STYLE_FILL_AREA(#696);
#698=SURFACE_SIDE_STYLE('',(#697));
#699=SURFACE_STYLE_USAGE(.BOTH.,#698);
#700=PRESENTATION_STYLE_ASSIGNMENT((#699));
#546=STYLED_ITEM('',(#700),#693);
#701=DESCRIPTIVE_REPRESENTATION_ITEM('AEDT_MaterialName_V1','vacuum');
#702=ID_ATTRIBUTE('SA #703',#703);
#703=SHAPE_ASPECT('properties','',#23,.F.);
#704=GEOMETRIC_ITEM_SPECIFIC_USAGE('','properties',#703,#21,#693);
#705=PROPERTY_DEFINITION('AEDT_MaterialName_V1','',#703);
#706=REPRESENTATION('',(#701),#10);
#707=PROPERTY_DEFINITION_REPRESENTATION(#705,#706);
#708=GENERAL_PROPERTY('','AEDT_MaterialName_V1','');
#709=GENERAL_PROPERTY_ASSOCIATION('','',#708,#705);
#710=INTEGER_REPRESENTATION_ITEM('AEDT_BODYFlagGroupColor_V1',0);
#711=INTEGER_REPRESENTATION_ITEM('AEDT_BODYFlagGroupColor_V1',-1);
#712=INTEGER_REPRESENTATION_ITEM('AEDT_BODYFlagGroupColor_V1',-2130771840);
#713=INTEGER_REPRESENTATION_ITEM('AEDT_BODYFlagGroupColor_V1',5);
#714=PROPERTY_DEFINITION('AEDT_BODYFlagGroupColor_V1','',#703);
#715=REPRESENTATION('',(#710,#711,#712,#713),#10);
#716=PROPERTY_DEFINITION_REPRESENTATION(#714,#715);
#717=GENERAL_PROPERTY('','AEDT_BODYFlagGroupColor_V1','');
#718=GENERAL_PROPERTY_ASSOCIATION('','',#717,#714);
#719=DESCRIPTIVE_REPRESENTATION_ITEM('AEDT_EntityName_V1','pads');
#720=PROPERTY_DEFINITION('AEDT_EntityName_V1','',#703);
#721=REPRESENTATION('',(#719),#10);
#722=PROPERTY_DEFINITION_REPRESENTATION(#720,#721);
#723=GENERAL_PROPERTY('','AEDT_EntityName_V1','');
#724=GENERAL_PROPERTY_ASSOCIATION('','',#723,#720);
#726=CARTESIAN_POINT('',(0.,0.,17.));
#727=DIRECTION('',(0.,0.,1.));
#728=DIRECTION('',(1.,0.,0.));
#729=AXIS2_PLACEMENT_3D('',#726,#727,#728);
#730=PLANE('',#729);
#731=CARTESIAN_POINT('',(-0.005,6.08,17.));
#732=VERTEX_POINT('',#731);
#733=CARTESIAN_POINT('',(-0.005,6.05,17.));
#734=VERTEX_POINT('',#733);
#735=CARTESIAN_POINT('',(-0.005,6.08,17.));
#736=DIRECTION('',(0.,-1.,0.));
#737=VECTOR('',#736,0.03);
#738=LINE('',#735,#737);
#739=EDGE_CURVE('',#732,#734,#738,.T.);
#740=ORIENTED_EDGE('',*,*,#739,.T.);
#741=CARTESIAN_POINT('',(0.005,6.05,17.));
#742=VERTEX_POINT('',#741);
#743=CARTESIAN_POINT('',(-0.005,6.05,17.));
#744=DIRECTION('',(1.,0.,-0.));
#745=VECTOR('',#744,0.01);
#746=LINE('',#743,#745);
#747=EDGE_CURVE('',#734,#742,#746,.T.);
#748=ORIENTED_EDGE('',*,*,#747,.T.);
#749=CARTESIAN_POINT('',(0.005,6.08,17.));
#750=VERTEX_POINT('',#749);
#751=CARTESIAN_POINT('',(0.005,6.05,17.));
#752=DIRECTION('',(0.,1.,0.));
#753=VECTOR('',#752,0.03);
#754=LINE('',#751,#753);
#755=EDGE_CURVE('',#742,#750,#754,.T.);
#756=ORIENTED_EDGE('',*,*,#755,.T.);
#757=CARTESIAN_POINT('',(0.005,6.08,17.));
#758=DIRECTION('',(-1.,0.,0.));
#759=VECTOR('',#758,0.01);
#760=LINE('',#757,#759);
#761=EDGE_CURVE('',#750,#732,#760,.T.);
#762=ORIENTED_EDGE('',*,*,#761,.T.);
#763=EDGE_LOOP('',(#740,#748,#756,#762));
#764=FACE_BOUND('',#763,.T.);
#765=ADVANCED_FACE('',(#764),#730,.T.);
#766=OPEN_SHELL('',(#765));
#767=CARTESIAN_POINT('',(0.,12.185,17.));
#768=DIRECTION('',(0.,0.,1.));
#769=DIRECTION('',(1.,0.,0.));
#770=AXIS2_PLACEMENT_3D('',#767,#768,#769);
#771=PLANE('',#770);
#772=CARTESIAN_POINT('',(-0.005,6.105,17.));
#773=VERTEX_POINT('',#772);
#774=CARTESIAN_POINT('',(-0.005,6.135,17.));
#775=VERTEX_POINT('',#774);
#776=CARTESIAN_POINT('',(-0.005,6.105,17.));
#777=DIRECTION('',(0.,1.,0.));
#778=VECTOR('',#777,0.03);
#779=LINE('',#776,#778);
#780=EDGE_CURVE('',#773,#775,#779,.T.);
#781=ORIENTED_EDGE('',*,*,#780,.F.);
#782=CARTESIAN_POINT('',(0.005,6.105,17.));
#783=VERTEX_POINT('',#782);
#784=CARTESIAN_POINT('',(0.005,6.105,17.));
#785=DIRECTION('',(-1.,0.,0.));
#786=VECTOR('',#785,0.01);
#787=LINE('',#784,#786);
#788=EDGE_CURVE('',#783,#773,#787,.T.);
#789=ORIENTED_EDGE('',*,*,#788,.F.);
#790=CARTESIAN_POINT('',(0.005,6.135,17.));
#791=VERTEX_POINT('',#790);
#792=CARTESIAN_POINT('',(0.005,6.135,17.));
#793=DIRECTION('',(0.,-1.,0.));
#794=VECTOR('',#793,0.03);
#795=LINE('',#792,#794);
#796=EDGE_CURVE('',#791,#783,#795,.T.);
#797=ORIENTED_EDGE('',*,*,#796,.F.);
#798=CARTESIAN_POINT('',(-0.005,6.135,17.));
#799=DIRECTION('',(1.,0.,-0.));
#800=VECTOR('',#799,0.01);
#801=LINE('',#798,#800);
#802=EDGE_CURVE('',#775,#791,#801,.T.);
#803=ORIENTED_EDGE('',*,*,#802,.F.);
#804=EDGE_LOOP('',(#781,#789,#797,#803));
#805=FACE_BOUND('',#804,.T.);
#806=ADVANCED_FACE('',(#805),#771,.T.);
#807=OPEN_SHELL('',(#806));
#808=SHELL_BASED_SURFACE_MODEL('medium_lead',(#766,#807));
#725=STYLED_ITEM('',(#700),#808);
#809=DESCRIPTIVE_REPRESENTATION_ITEM('AEDT_MaterialName_V1','vacuum');
#810=ID_ATTRIBUTE('SA #811',#811);
#811=SHAPE_ASPECT('properties','',#23,.F.);
#812=GEOMETRIC_ITEM_SPECIFIC_USAGE('','properties',#811,#21,#808);
#813=PROPERTY_DEFINITION('AEDT_MaterialName_V1','',#811);
#814=REPRESENTATION('',(#809),#10);
#815=PROPERTY_DEFINITION_REPRESENTATION(#813,#814);
#816=GENERAL_PROPERTY('','AEDT_MaterialName_V1','');
#817=GENERAL_PROPERTY_ASSOCIATION('','',#816,#813);
#818=INTEGER_REPRESENTATION_ITEM('AEDT_BODYFlagGroupColor_V1',0);
#819=INTEGER_REPRESENTATION_ITEM('AEDT_BODYFlagGroupColor_V1',-1);
#820=INTEGER_REPRESENTATION_ITEM('AEDT_BODYFlagGroupColor_V1',-2130771840);
#821=INTEGER_REPRESENTATION_ITEM('AEDT_BODYFlagGroupColor_V1',5);
#822=PROPERTY_DEFINITION('AEDT_BODYFlagGroupColor_V1','',#811);
#823=REPRESENTATION('',(#818,#819,#820,#821),#10);
#824=PROPERTY_DEFINITION_REPRESENTATION(#822,#823);
#825=GENERAL_PROPERTY('','AEDT_BODYFlagGroupColor_V1','');
#826=GENERAL_PROPERTY_ASSOCIATION('','',#825,#822);
#827=DESCRIPTIVE_REPRESENTATION_ITEM('AEDT_EntityName_V1','medium_lead');
#828=PROPERTY_DEFINITION('AEDT_EntityName_V1','',#811);
#829=REPRESENTATION('',(#827),#10);
#830=PROPERTY_DEFINITION_REPRESENTATION(#828,#829);
#831=GENERAL_PROPERTY('','AEDT_EntityName_V1','');
#832=GENERAL_PROPERTY_ASSOCIATION('','',#831,#828);
#834=CARTESIAN_POINT('',(0.,0.,17.));
#835=DIRECTION('',(0.,0.,1.));
#836=DIRECTION('',(1.,0.,0.));
#837=AXIS2_PLACEMENT_3D('',#834,#835,#836);
#838=PLANE('',#837);
#839=CARTESIAN_POINT('',(0.0005,6.09345,17.));
#840=VERTEX_POINT('',#839);
#841=CARTESIAN_POINT('',(-0.0005,6.09345,17.));
#842=VERTEX_POINT('',#841);
#843=CARTESIAN_POINT('',(0.0005,6.09345,17.));
#844=DIRECTION('',(-1.,0.,0.));
#845=VECTOR('',#844,0.001);
#846=LINE('',#843,#845);
#847=EDGE_CURVE('',#840,#842,#846,.T.);
#848=ORIENTED_EDGE('',*,*,#847,.F.);
#849=CARTESIAN_POINT('',(0.0005,6.105,17.));
#850=VERTEX_POINT('',#849);
#851=CARTESIAN_POINT('',(0.0005,6.09345,17.));
#852=DIRECTION('',(0.,1.,0.));
#853=VECTOR('',#852,0.01155);
#854=LINE('',#851,#853);
#855=EDGE_CURVE('',#840,#850,#854,.T.);
#856=ORIENTED_EDGE('',*,*,#855,.T.);
#857=CARTESIAN_POINT('',(-0.0005,6.105,17.));
#858=VERTEX_POINT('',#857);
#859=CARTESIAN_POINT('',(0.0005,6.105,17.));
#860=DIRECTION('',(-1.,0.,0.));
#861=VECTOR('',#860,0.001);
#862=LINE('',#859,#861);
#863=EDGE_CURVE('',#850,#858,#862,.T.);
#864=ORIENTED_EDGE('',*,*,#863,.T.);
#865=CARTESIAN_POINT('',(-0.0005,6.105,17.));
#866=DIRECTION('',(0.,-1.,0.));
#867=VECTOR('',#866,0.01155);
#868=LINE('',#865,#867);
#869=EDGE_CURVE('',#858,#842,#868,.T.);
#870=ORIENTED_EDGE('',*,*,#869,.T.);
#871=EDGE_LOOP('',(#848,#856,#864,#870));
#872=FACE_BOUND('',#871,.T.);
#873=ADVANCED_FACE('',(#872),#838,.T.);
#874=OPEN_SHELL('',(#873));
#875=CARTESIAN_POINT('',(0.,0.,17.));
#876=DIRECTION('',(0.,0.,1.));
#877=DIRECTION('',(1.,0.,0.));
#878=AXIS2_PLACEMENT_3D('',#875,#876,#877);
#879=PLANE('',#878);
#880=CARTESIAN_POINT('',(-0.0005,6.09155,17.));
#881=VERTEX_POINT('',#880);
#882=CARTESIAN_POINT('',(0.0005,6.09155,17.));
#883=VERTEX_POINT('',#882);
#884=CARTESIAN_POINT('',(-0.0005,6.09155,17.));
#885=DIRECTION('',(1.,0.,-0.));
#886=VECTOR('',#885,0.001);
#887=LINE('',#884,#886);
#888=EDGE_CURVE('',#881,#883,#887,.T.);
#889=ORIENTED_EDGE('',*,*,#888,.F.);
#890=CARTESIAN_POINT('',(-0.0005,6.08,17.));
#891=VERTEX_POINT('',#890);
#892=CARTESIAN_POINT('',(-0.0005,6.09155,17.));
#893=DIRECTION('',(0.,-1.,0.));
#894=VECTOR('',#893,0.01155);
#895=LINE('',#892,#894);
#896=EDGE_CURVE('',#881,#891,#895,.T.);
#897=ORIENTED_EDGE('',*,*,#896,.T.);
#898=CARTESIAN_POINT('',(0.0005,6.08,17.));
#899=VERTEX_POINT('',#898);
#900=CARTESIAN_POINT('',(-0.0005,6.08,17.));
#901=DIRECTION('',(1.,0.,-0.));
#902=VECTOR('',#901,0.001);
#903=LINE('',#900,#902);
#904=EDGE_CURVE('',#891,#899,#903,.T.);
#905=ORIENTED_EDGE('',*,*,#904,.T.);
#906=CARTESIAN_POINT('',(0.0005,6.08,17.));
#907=DIRECTION('',(0.,1.,0.));
#908=VECTOR('',#907,0.01155);
#909=LINE('',#906,#908);
#910=EDGE_CURVE('',#899,#883,#909,.T.);
#911=ORIENTED_EDGE('',*,*,#910,.T.);
#912=EDGE_LOOP('',(#889,#897,#905,#911));
#913=FACE_BOUND('',#912,.T.);
#914=ADVANCED_FACE('',(#913),#879,.T.);
#915=OPEN_SHELL('',(#914));
#916=SHELL_BASED_SURFACE_MODEL('thin_lead',(#874,#915));
#917=COLOUR_RGB('',1.,0.501960814,0.);
#918=FILL_AREA_STYLE_COLOUR('',#917);
#919=FILL_AREA_STYLE('',(#918));
#920=SURFACE_STYLE_FILL_AREA(#919);
#921=SURFACE_SIDE_STYLE('',(#920));
#922=SURFACE_STYLE_USAGE(.BOTH.,#921);
#923=PRESENTATION_STYLE_ASSIGNMENT((#922));
#833=STYLED_ITEM('',(#923),#916);
#924=DESCRIPTIVE_REPRESENTATION_ITEM('AEDT_MaterialName_V1','vacuum');
#925=ID_ATTRIBUTE('SA #926',#926);
#926=SHAPE_ASPECT('properties','',#23,.F.);
#927=GEOMETRIC_ITEM_SPECIFIC_USAGE('','properties',#926,#21,#916);
#928=PROPERTY_DEFINITION('AEDT_MaterialName_V1','',#926);
#929=REPRESENTATION('',(#924),#10);
#930=PROPERTY_DEFINITION_REPRESENTATION(#928,#929);
#931=GENERAL_PROPERTY('','AEDT_MaterialName_V1','');
#932=GENERAL_PROPERTY_ASSOCIATION('','',#931,#928);
#933=INTEGER_REPRESENTATION_ITEM('AEDT_BODYFlagGroupColor_V1',0);
#934=INTEGER_REPRESENTATION_ITEM('AEDT_BODYFlagGroupColor_V1',-1);
#935=INTEGER_REPRESENTATION_ITEM('AEDT_BODYFlagGroupColor_V1',-2130739200);
#936=INTEGER_REPRESENTATION_ITEM('AEDT_BODYFlagGroupColor_V1',5);
#937=PROPERTY_DEFINITION('AEDT_BODYFlagGroupColor_V1','',#926);
#938=REPRESENTATION('',(#933,#934,#935,#936),#10);
#939=PROPERTY_DEFINITION_REPRESENTATION(#937,#938);
#940=GENERAL_PROPERTY('','AEDT_BODYFlagGroupColor_V1','');
#941=GENERAL_PROPERTY_ASSOCIATION('','',#940,#937);
#942=DESCRIPTIVE_REPRESENTATION_ITEM('AEDT_EntityName_V1','thin_lead');
#943=PROPERTY_DEFINITION('AEDT_EntityName_V1','',#926);
#944=REPRESENTATION('',(#942),#10);
#945=PROPERTY_DEFINITION_REPRESENTATION(#943,#944);
#946=GENERAL_PROPERTY('','AEDT_EntityName_V1','');
#947=GENERAL_PROPERTY_ASSOCIATION('','',#946,#943);
#949=CARTESIAN_POINT('',(0.,0.,17.));
#950=DIRECTION('',(0.,0.,1.));
#951=DIRECTION('',(1.,0.,0.));
#952=AXIS2_PLACEMENT_3D('',#949,#950,#951);
#953=PLANE('',#952);
#954=CARTESIAN_POINT('',(-0.0005,6.09345,17.));
#955=VERTEX_POINT('',#954);
#956=CARTESIAN_POINT('',(-0.0005,6.09155,17.));
#957=VERTEX_POINT('',#956);
#958=CARTESIAN_POINT('',(-0.0005,6.09345,17.));
#959=DIRECTION('',(0.,-1.,0.));
#960=VECTOR('',#959,0.0019);
#961=LINE('',#958,#960);
#962=EDGE_CURVE('',#955,#957,#961,.T.);
#963=ORIENTED_EDGE('',*,*,#962,.T.);
#964=CARTESIAN_POINT('',(0.0005,6.09155,17.));
#965=VERTEX_POINT('',#964);
#966=CARTESIAN_POINT('',(-0.0005,6.09155,17.));
#967=DIRECTION('',(1.,0.,-0.));
#968=VECTOR('',#967,0.001);
#969=LINE('',#966,#968);
#970=EDGE_CURVE('',#957,#965,#969,.T.);
#971=ORIENTED_EDGE('',*,*,#970,.T.);
#972=CARTESIAN_POINT('',(0.0005,6.09345,17.));
#973=VERTEX_POINT('',#972);
#974=CARTESIAN_POINT('',(0.0005,6.09155,17.));
#975=DIRECTION('',(0.,1.,0.));
#976=VECTOR('',#975,0.0019);
#977=LINE('',#974,#976);
#978=EDGE_CURVE('',#965,#973,#977,.T.);
#979=ORIENTED_EDGE('',*,*,#978,.T.);
#980=CARTESIAN_POINT('',(0.0005,6.09345,17.));
#981=DIRECTION('',(-1.,0.,0.));
#982=VECTOR('',#981,0.001);
#983=LINE('',#980,#982);
#984=EDGE_CURVE('',#973,#955,#983,.T.);
#985=ORIENTED_EDGE('',*,*,#984,.T.);
#986=EDGE_LOOP('',(#963,#971,#979,#985));
#987=FACE_BOUND('',#986,.T.);
#988=ADVANCED_FACE('',(#987),#953,.T.);
#989=OPEN_SHELL('',(#988));
#990=SHELL_BASED_SURFACE_MODEL('JJ',(#989));
#991=COLOUR_RGB('',0.250980407,0.,0.501960814);
#992=FILL_AREA_STYLE_COLOUR('',#991);
#993=FILL_AREA_STYLE('',(#992));
#994=SURFACE_STYLE_FILL_AREA(#993);
#995=SURFACE_SIDE_STYLE('',(#994));
#996=SURFACE_STYLE_USAGE(.BOTH.,#995);
#997=PRESENTATION_STYLE_ASSIGNMENT((#996));
#948=STYLED_ITEM('',(#997),#990);
#998=DESCRIPTIVE_REPRESENTATION_ITEM('AEDT_MaterialName_V1','vacuum');
#999=ID_ATTRIBUTE('SA #1000',#1000);
#1000=SHAPE_ASPECT('properties','',#23,.F.);
#1001=GEOMETRIC_ITEM_SPECIFIC_USAGE('','properties',#1000,#21,#990);
#1002=PROPERTY_DEFINITION('AEDT_MaterialName_V1','',#1000);
#1003=REPRESENTATION('',(#998),#10);
#1004=PROPERTY_DEFINITION_REPRESENTATION(#1002,#1003);
#1005=GENERAL_PROPERTY('','AEDT_MaterialName_V1','');
#1006=GENERAL_PROPERTY_ASSOCIATION('','',#1005,#1002);
#1007=INTEGER_REPRESENTATION_ITEM('AEDT_BODYFlagGroupColor_V1',0);
#1008=INTEGER_REPRESENTATION_ITEM('AEDT_BODYFlagGroupColor_V1',-1);
#1009=INTEGER_REPRESENTATION_ITEM('AEDT_BODYFlagGroupColor_V1',-2143289216);
#1010=INTEGER_REPRESENTATION_ITEM('AEDT_BODYFlagGroupColor_V1',5);
#1011=PROPERTY_DEFINITION('AEDT_BODYFlagGroupColor_V1','',#1000);
#1012=REPRESENTATION('',(#1007,#1008,#1009,#1010),#10);
#1013=PROPERTY_DEFINITION_REPRESENTATION(#1011,#1012);
#1014=GENERAL_PROPERTY('','AEDT_BODYFlagGroupColor_V1','');
#1015=GENERAL_PROPERTY_ASSOCIATION('','',#1014,#1011);
#1016=DESCRIPTIVE_REPRESENTATION_ITEM('AEDT_EntityName_V1','JJ');
#1017=PROPERTY_DEFINITION('AEDT_EntityName_V1','',#1000);
#1018=REPRESENTATION('',(#1016),#10);
#1019=PROPERTY_DEFINITION_REPRESENTATION(#1017,#1018);
#1020=GENERAL_PROPERTY('','AEDT_EntityName_V1','');
#1021=GENERAL_PROPERTY_ASSOCIATION('','',#1020,#1017);
#1023=CARTESIAN_POINT('',(0.0025,5.428279946,17.219485572));
#1024=DIRECTION('',(0.866025404,0.433012702,0.25));
#1025=DIRECTION('',(-0.447213595,0.894427191,0.));
#1026=AXIS2_PLACEMENT_3D('',#1023,#1024,#1025);
#1027=PLANE('',#1026);
#1028=CARTESIAN_POINT('',(0.0025,5.555,17.));
#1029=VERTEX_POINT('',#1028);
#1030=CARTESIAN_POINT('',(0.005,5.55,17.));
#1031=VERTEX_POINT('',#1030);
#1032=CARTESIAN_POINT('',(0.0025,5.555,17.));
#1033=DIRECTION('',(0.447213595,-0.894427191,0.));
#1034=VECTOR('',#1033,0.00559017);
#1035=LINE('',#1032,#1034);
#1036=EDGE_CURVE('',#1029,#1031,#1035,.T.);
#1037=ORIENTED_EDGE('',*,*,#1036,.F.);
#1038=CARTESIAN_POINT('',(0.0025,5.437029946,17.204330127));
#1039=VERTEX_POINT('',#1038);
#1040=CARTESIAN_POINT('',(0.0025,5.437029946,17.204330127));
#1041=DIRECTION('',(0.,0.5,-0.866025404));
#1042=VECTOR('',#1041,0.235940108);
#1043=LINE('',#1040,#1042);
#1044=EDGE_CURVE('',#1039,#1029,#1043,.T.);
#1045=ORIENTED_EDGE('',*,*,#1044,.F.);
#1046=CARTESIAN_POINT('',(0.005,5.434529946,17.2));
#1047=VERTEX_POINT('',#1046);
#1048=CARTESIAN_POINT('',(0.005,5.434529946,17.2));
#1049=DIRECTION('',(-0.447213595,0.447213595,0.774596669));
#1050=VECTOR('',#1049,0.00559017);
#1051=LINE('',#1048,#1050);
#1052=EDGE_CURVE('',#1047,#1039,#1051,.T.);
#1053=ORIENTED_EDGE('',*,*,#1052,.F.);
#1054=CARTESIAN_POINT('',(0.005,5.434529946,17.2));
#1055=DIRECTION('',(0.,0.5,-0.866025404));
#1056=VECTOR('',#1055,0.230940108);
#1057=LINE('',#1054,#1056);
#1058=EDGE_CURVE('',#1047,#1031,#1057,.T.);
#1059=ORIENTED_EDGE('',*,*,#1058,.T.);
#1060=EDGE_LOOP('',(#1037,#1045,#1053,#1059));
#1061=FACE_BOUND('',#1060,.T.);
#1062=ADVANCED_FACE('',(#1061),#1027,.T.);
#1063=CARTESIAN_POINT('',(0.005,5.424529946,17.217320508));
#1064=DIRECTION('',(0.866025404,-0.433012702,-0.25));
#1065=DIRECTION('',(0.447213595,0.894427191,0.));
#1066=AXIS2_PLACEMENT_3D('',#1063,#1064,#1065);
#1067=PLANE('',#1066);
#1068=CARTESIAN_POINT('',(0.0025,5.545,17.));
#1069=VERTEX_POINT('',#1068);
#1070=CARTESIAN_POINT('',(0.005,5.55,17.));
#1071=DIRECTION('',(-0.447213595,-0.894427191,0.));
#1072=VECTOR('',#1071,0.00559017);
#1073=LINE('',#1070,#1072);
#1074=EDGE_CURVE('',#1031,#1069,#1073,.T.);
#1075=ORIENTED_EDGE('',*,*,#1074,.F.);
#1076=ORIENTED_EDGE('',*,*,#1058,.F.);
#1077=CARTESIAN_POINT('',(0.0025,5.432029946,17.195669873));
#1078=VERTEX_POINT('',#1077);
#1079=CARTESIAN_POINT('',(0.0025,5.432029946,17.195669873));
#1080=DIRECTION('',(0.447213595,0.447213595,0.774596669));
#1081=VECTOR('',#1080,0.00559017);
#1082=LINE('',#1079,#1081);
#1083=EDGE_CURVE('',#1078,#1047,#1082,.T.);
#1084=ORIENTED_EDGE('',*,*,#1083,.F.);
#1085=CARTESIAN_POINT('',(0.0025,5.432029946,17.195669873));
#1086=DIRECTION('',(0.,0.5,-0.866025404));
#1087=VECTOR('',#1086,0.225940108);
#1088=LINE('',#1085,#1087);
#1089=EDGE_CURVE('',#1078,#1069,#1088,.T.);
#1090=ORIENTED_EDGE('',*,*,#1089,.T.);
#1091=EDGE_LOOP('',(#1075,#1076,#1084,#1090));
#1092=FACE_BOUND('',#1091,.T.);
#1093=ADVANCED_FACE('',(#1092),#1067,.T.);
#1094=CARTESIAN_POINT('',(0.0025,5.420779946,17.215155445));
#1095=DIRECTION('',(0.,-0.866025404,-0.5));
#1096=DIRECTION('',(-0.,0.5,-0.866025404));
#1097=AXIS2_PLACEMENT_3D('',#1094,#1095,#1096);
#1098=PLANE('',#1097);
#1099=CARTESIAN_POINT('',(-0.0025,5.545,17.));
#1100=VERTEX_POINT('',#1099);
#1101=CARTESIAN_POINT('',(0.0025,5.545,17.));
#1102=DIRECTION('',(-1.,-0.,0.));
#1103=VECTOR('',#1102,0.005);
#1104=LINE('',#1101,#1103);
#1105=EDGE_CURVE('',#1069,#1100,#1104,.T.);
#1106=ORIENTED_EDGE('',*,*,#1105,.F.);
#1107=ORIENTED_EDGE('',*,*,#1089,.F.);
#1108=CARTESIAN_POINT('',(-0.0025,5.432029946,17.195669873));
#1109=VERTEX_POINT('',#1108);
#1110=CARTESIAN_POINT('',(-0.0025,5.432029946,17.195669873));
#1111=DIRECTION('',(1.,0.,0.));
#1112=VECTOR('',#1111,0.005);
#1113=LINE('',#1110,#1112);
#1114=EDGE_CURVE('',#1109,#1078,#1113,.T.);
#1115=ORIENTED_EDGE('',*,*,#1114,.F.);
#1116=CARTESIAN_POINT('',(-0.0025,5.432029946,17.195669873));
#1117=DIRECTION('',(0.,0.5,-0.866025404));
#1118=VECTOR('',#1117,0.225940108);
#1119=LINE('',#1116,#1118);
#1120=EDGE_CURVE('',#1109,#1100,#1119,.T.);
#1121=ORIENTED_EDGE('',*,*,#1120,.T.);
#1122=EDGE_LOOP('',(#1106,#1107,#1115,#1121));
#1123=FACE_BOUND('',#1122,.T.);
#1124=ADVANCED_FACE('',(#1123),#1098,.T.);
#1125=CARTESIAN_POINT('',(-0.0025,5.420779946,17.215155445));
#1126=DIRECTION('',(-0.866025404,-0.433012702,-0.25));
#1127=DIRECTION('',(0.447213595,-0.894427191,0.));
#1128=AXIS2_PLACEMENT_3D('',#1125,#1126,#1127);
#1129=PLANE('',#1128);
#1130=CARTESIAN_POINT('',(-0.005,5.55,17.));
#1131=VERTEX_POINT('',#1130);
#1132=CARTESIAN_POINT('',(-0.0025,5.545,17.));
#1133=DIRECTION('',(-0.447213595,0.894427191,0.));
#1134=VECTOR('',#1133,0.00559017);
#1135=LINE('',#1132,#1134);
#1136=EDGE_CURVE('',#1100,#1131,#1135,.T.);
#1137=ORIENTED_EDGE('',*,*,#1136,.F.);
#1138=ORIENTED_EDGE('',*,*,#1120,.F.);
#1139=CARTESIAN_POINT('',(-0.005,5.434529946,17.2));
#1140=VERTEX_POINT('',#1139);
#1141=CARTESIAN_POINT('',(-0.005,5.434529946,17.2));
#1142=DIRECTION('',(0.447213595,-0.447213595,-0.774596669));
#1143=VECTOR('',#1142,0.00559017);
#1144=LINE('',#1141,#1143);
#1145=EDGE_CURVE('',#1140,#1109,#1144,.T.);
#1146=ORIENTED_EDGE('',*,*,#1145,.F.);
#1147=CARTESIAN_POINT('',(-0.005,5.434529946,17.2));
#1148=DIRECTION('',(0.,0.5,-0.866025404));
#1149=VECTOR('',#1148,0.230940108);
#1150=LINE('',#1147,#1149);
#1151=EDGE_CURVE('',#1140,#1131,#1150,.T.);
#1152=ORIENTED_EDGE('',*,*,#1151,.T.);
#1153=EDGE_LOOP('',(#1137,#1138,#1146,#1152));
#1154=FACE_BOUND('',#1153,.T.);
#1155=ADVANCED_FACE('',(#1154),#1129,.T.);
#1156=CARTESIAN_POINT('',(-0.005,5.424529946,17.217320508));
#1157=DIRECTION('',(-0.866025404,0.433012702,0.25));
#1158=DIRECTION('',(-0.447213595,-0.894427191,-0.));
#1159=AXIS2_PLACEMENT_3D('',#1156,#1157,#1158);
#1160=PLANE('',#1159);
#1161=CARTESIAN_POINT('',(-0.0025,5.555,17.));
#1162=VERTEX_POINT('',#1161);
#1163=CARTESIAN_POINT('',(-0.005,5.55,17.));
#1164=DIRECTION('',(0.447213595,0.894427191,0.));
#1165=VECTOR('',#1164,0.00559017);
#1166=LINE('',#1163,#1165);
#1167=EDGE_CURVE('',#1131,#1162,#1166,.T.);
#1168=ORIENTED_EDGE('',*,*,#1167,.F.);
#1169=ORIENTED_EDGE('',*,*,#1151,.F.);
#1170=CARTESIAN_POINT('',(-0.0025,5.437029946,17.204330127));
#1171=VERTEX_POINT('',#1170);
#1172=CARTESIAN_POINT('',(-0.0025,5.437029946,17.204330127));
#1173=DIRECTION('',(-0.447213595,-0.447213595,-0.774596669));
#1174=VECTOR('',#1173,0.00559017);
#1175=LINE('',#1172,#1174);
#1176=EDGE_CURVE('',#1171,#1140,#1175,.T.);
#1177=ORIENTED_EDGE('',*,*,#1176,.F.);
#1178=CARTESIAN_POINT('',(-0.0025,5.437029946,17.204330127));
#1179=DIRECTION('',(0.,0.5,-0.866025404));
#1180=VECTOR('',#1179,0.235940108);
#1181=LINE('',#1178,#1180);
#1182=EDGE_CURVE('',#1171,#1162,#1181,.T.);
#1183=ORIENTED_EDGE('',*,*,#1182,.T.);
#1184=EDGE_LOOP('',(#1168,#1169,#1177,#1183));
#1185=FACE_BOUND('',#1184,.T.);
#1186=ADVANCED_FACE('',(#1185),#1160,.T.);
#1187=CARTESIAN_POINT('',(-0.0025,5.428279946,17.219485572));
#1188=DIRECTION('',(0.,0.866025404,0.5));
#1189=DIRECTION('',(0.,-0.5,0.866025404));
#1190=AXIS2_PLACEMENT_3D('',#1187,#1188,#1189);
#1191=PLANE('',#1190);
#1192=CARTESIAN_POINT('',(-0.0025,5.555,17.));
#1193=DIRECTION('',(1.,-0.,0.));
#1194=VECTOR('',#1193,0.005);
#1195=LINE('',#1192,#1194);
#1196=EDGE_CURVE('',#1162,#1029,#1195,.T.);
#1197=ORIENTED_EDGE('',*,*,#1196,.F.);
#1198=ORIENTED_EDGE('',*,*,#1182,.F.);
#1199=CARTESIAN_POINT('',(0.0025,5.437029946,17.204330127));
#1200=DIRECTION('',(-1.,0.,0.));
#1201=VECTOR('',#1200,0.005);
#1202=LINE('',#1199,#1201);
#1203=EDGE_CURVE('',#1039,#1171,#1202,.T.);
#1204=ORIENTED_EDGE('',*,*,#1203,.F.);
#1205=ORIENTED_EDGE('',*,*,#1044,.T.);
#1206=EDGE_LOOP('',(#1197,#1198,#1204,#1205));
#1207=FACE_BOUND('',#1206,.T.);
#1208=ADVANCED_FACE('',(#1207),#1191,.T.);
#1209=CARTESIAN_POINT('',(-0.0025,1.495470054,17.204330127));
#1210=DIRECTION('',(0.,0.,1.));
#1211=DIRECTION('',(1.,0.,-0.));
#1212=AXIS2_PLACEMENT_3D('',#1209,#1210,#1211);
#1213=PLANE('',#1212);
#1214=CARTESIAN_POINT('',(0.0025,1.512970054,17.204330127));
#1215=VERTEX_POINT('',#1214);
#1216=CARTESIAN_POINT('',(0.0025,1.512970054,17.204330127));
#1217=DIRECTION('',(0.,1.,0.));
#1218=VECTOR('',#1217,3.924059892);
#1219=LINE('',#1216,#1218);
#1220=EDGE_CURVE('',#1215,#1039,#1219,.T.);
#1221=ORIENTED_EDGE('',*,*,#1220,.T.);
#1222=ORIENTED_EDGE('',*,*,#1203,.T.);
#1223=CARTESIAN_POINT('',(-0.0025,1.512970054,17.204330127));
#1224=VERTEX_POINT('',#1223);
#1225=CARTESIAN_POINT('',(-0.0025,1.512970054,17.204330127));
#1226=DIRECTION('',(0.,1.,0.));
#1227=VECTOR('',#1226,3.924059892);
#1228=LINE('',#1225,#1227);
#1229=EDGE_CURVE('',#1224,#1171,#1228,.T.);
#1230=ORIENTED_EDGE('',*,*,#1229,.F.);
#1231=CARTESIAN_POINT('',(0.0025,1.512970054,17.204330127));
#1232=DIRECTION('',(-1.,-0.,0.));
#1233=VECTOR('',#1232,0.005);
#1234=LINE('',#1231,#1233);
#1235=EDGE_CURVE('',#1215,#1224,#1234,.T.);
#1236=ORIENTED_EDGE('',*,*,#1235,.F.);
#1237=EDGE_LOOP('',(#1221,#1222,#1230,#1236));
#1238=FACE_BOUND('',#1237,.T.);
#1239=ADVANCED_FACE('',(#1238),#1213,.T.);
#1240=CARTESIAN_POINT('',(-0.005,1.495470054,17.2));
#1241=DIRECTION('',(-0.866025404,0.,0.5));
#1242=DIRECTION('',(0.5,0.,0.866025404));
#1243=AXIS2_PLACEMENT_3D('',#1240,#1241,#1242);
#1244=PLANE('',#1243);
#1245=ORIENTED_EDGE('',*,*,#1229,.T.);
#1246=ORIENTED_EDGE('',*,*,#1176,.T.);
#1247=CARTESIAN_POINT('',(-0.005,1.515470054,17.2));
#1248=VERTEX_POINT('',#1247);
#1249=CARTESIAN_POINT('',(-0.005,1.515470054,17.2));
#1250=DIRECTION('',(0.,1.,0.));
#1251=VECTOR('',#1250,3.919059892);
#1252=LINE('',#1249,#1251);
#1253=EDGE_CURVE('',#1248,#1140,#1252,.T.);
#1254=ORIENTED_EDGE('',*,*,#1253,.F.);
#1255=CARTESIAN_POINT('',(-0.0025,1.512970054,17.204330127));
#1256=DIRECTION('',(-0.447213595,0.447213595,-0.774596669));
#1257=VECTOR('',#1256,0.00559017);
#1258=LINE('',#1255,#1257);
#1259=EDGE_CURVE('',#1224,#1248,#1258,.T.);
#1260=ORIENTED_EDGE('',*,*,#1259,.F.);
#1261=EDGE_LOOP('',(#1245,#1246,#1254,#1260));
#1262=FACE_BOUND('',#1261,.T.);
#1263=ADVANCED_FACE('',(#1262),#1244,.T.);
#1264=CARTESIAN_POINT('',(-0.0025,1.495470054,17.195669873));
#1265=DIRECTION('',(-0.866025404,0.,-0.5));
#1266=DIRECTION('',(-0.5,0.,0.866025404));
#1267=AXIS2_PLACEMENT_3D('',#1264,#1265,#1266);
#1268=PLANE('',#1267);
#1269=ORIENTED_EDGE('',*,*,#1253,.T.);
#1270=ORIENTED_EDGE('',*,*,#1145,.T.);
#1271=CARTESIAN_POINT('',(-0.0025,1.517970054,17.195669873));
#1272=VERTEX_POINT('',#1271);
#1273=CARTESIAN_POINT('',(-0.0025,1.517970054,17.195669873));
#1274=DIRECTION('',(0.,1.,0.));
#1275=VECTOR('',#1274,3.914059892);
#1276=LINE('',#1273,#1275);
#1277=EDGE_CURVE('',#1272,#1109,#1276,.T.);
#1278=ORIENTED_EDGE('',*,*,#1277,.F.);
#1279=CARTESIAN_POINT('',(-0.005,1.515470054,17.2));
#1280=DIRECTION('',(0.447213595,0.447213595,-0.774596669));
#1281=VECTOR('',#1280,0.00559017);
#1282=LINE('',#1279,#1281);
#1283=EDGE_CURVE('',#1248,#1272,#1282,.T.);
#1284=ORIENTED_EDGE('',*,*,#1283,.F.);
#1285=EDGE_LOOP('',(#1269,#1270,#1278,#1284));
#1286=FACE_BOUND('',#1285,.T.);
#1287=ADVANCED_FACE('',(#1286),#1268,.T.);
#1288=CARTESIAN_POINT('',(0.0025,1.495470054,17.195669873));
#1289=DIRECTION('',(0.,0.,-1.));
#1290=DIRECTION('',(-1.,0.,-0.));
#1291=AXIS2_PLACEMENT_3D('',#1288,#1289,#1290);
#1292=PLANE('',#1291);
#1293=ORIENTED_EDGE('',*,*,#1277,.T.);
#1294=ORIENTED_EDGE('',*,*,#1114,.T.);
#1295=CARTESIAN_POINT('',(0.0025,1.517970054,17.195669873));
#1296=VERTEX_POINT('',#1295);
#1297=CARTESIAN_POINT('',(0.0025,1.517970054,17.195669873));
#1298=DIRECTION('',(0.,1.,0.));
#1299=VECTOR('',#1298,3.914059892);
#1300=LINE('',#1297,#1299);
#1301=EDGE_CURVE('',#1296,#1078,#1300,.T.);
#1302=ORIENTED_EDGE('',*,*,#1301,.F.);
#1303=CARTESIAN_POINT('',(-0.0025,1.517970054,17.195669873));
#1304=DIRECTION('',(1.,-0.,0.));
#1305=VECTOR('',#1304,0.005);
#1306=LINE('',#1303,#1305);
#1307=EDGE_CURVE('',#1272,#1296,#1306,.T.);
#1308=ORIENTED_EDGE('',*,*,#1307,.F.);
#1309=EDGE_LOOP('',(#1293,#1294,#1302,#1308));
#1310=FACE_BOUND('',#1309,.T.);
#1311=ADVANCED_FACE('',(#1310),#1292,.T.);
#1312=CARTESIAN_POINT('',(0.005,1.495470054,17.2));
#1313=DIRECTION('',(0.866025404,0.,-0.5));
#1314=DIRECTION('',(-0.5,0.,-0.866025404));
#1315=AXIS2_PLACEMENT_3D('',#1312,#1313,#1314);
#1316=PLANE('',#1315);
#1317=ORIENTED_EDGE('',*,*,#1301,.T.);
#1318=ORIENTED_EDGE('',*,*,#1083,.T.);
#1319=CARTESIAN_POINT('',(0.005,1.515470054,17.2));
#1320=VERTEX_POINT('',#1319);
#1321=CARTESIAN_POINT('',(0.005,1.515470054,17.2));
#1322=DIRECTION('',(0.,1.,0.));
#1323=VECTOR('',#1322,3.919059892);
#1324=LINE('',#1321,#1323);
#1325=EDGE_CURVE('',#1320,#1047,#1324,.T.);
#1326=ORIENTED_EDGE('',*,*,#1325,.F.);
#1327=CARTESIAN_POINT('',(0.0025,1.517970054,17.195669873));
#1328=DIRECTION('',(0.447213595,-0.447213595,0.774596669));
#1329=VECTOR('',#1328,0.00559017);
#1330=LINE('',#1327,#1329);
#1331=EDGE_CURVE('',#1296,#1320,#1330,.T.);
#1332=ORIENTED_EDGE('',*,*,#1331,.F.);
#1333=EDGE_LOOP('',(#1317,#1318,#1326,#1332));
#1334=FACE_BOUND('',#1333,.T.);
#1335=ADVANCED_FACE('',(#1334),#1316,.T.);
#1336=CARTESIAN_POINT('',(0.0025,1.495470054,17.204330127));
#1337=DIRECTION('',(0.866025404,0.,0.5));
#1338=DIRECTION('',(0.5,0.,-0.866025404));
#1339=AXIS2_PLACEMENT_3D('',#1336,#1337,#1338);
#1340=PLANE('',#1339);
#1341=ORIENTED_EDGE('',*,*,#1325,.T.);
#1342=ORIENTED_EDGE('',*,*,#1052,.T.);
#1343=ORIENTED_EDGE('',*,*,#1220,.F.);
#1344=CARTESIAN_POINT('',(0.005,1.515470054,17.2));
#1345=DIRECTION('',(-0.447213595,-0.447213595,0.774596669));
#1346=VECTOR('',#1345,0.00559017);
#1347=LINE('',#1344,#1346);
#1348=EDGE_CURVE('',#1320,#1215,#1347,.T.);
#1349=ORIENTED_EDGE('',*,*,#1348,.F.);
#1350=EDGE_LOOP('',(#1341,#1342,#1343,#1349));
#1351=FACE_BOUND('',#1350,.T.);
#1352=ADVANCED_FACE('',(#1351),#1340,.T.);
#1353=CARTESIAN_POINT('',(-0.0025,1.394806624,16.999665064));
#1354=DIRECTION('',(0.,-0.866025404,0.5));
#1355=DIRECTION('',(-0.,-0.5,-0.866025404));
#1356=AXIS2_PLACEMENT_3D('',#1353,#1354,#1355);
#1357=PLANE('',#1356);
#1358=CARTESIAN_POINT('',(0.0025,1.395,17.));
#1359=VERTEX_POINT('',#1358);
#1360=CARTESIAN_POINT('',(-0.0025,1.395,17.));
#1361=VERTEX_POINT('',#1360);
#1362=CARTESIAN_POINT('',(0.0025,1.395,17.));
#1363=DIRECTION('',(-1.,-0.,0.));
#1364=VECTOR('',#1363,0.005);
#1365=LINE('',#1362,#1364);
#1366=EDGE_CURVE('',#1359,#1361,#1365,.T.);
#1367=ORIENTED_EDGE('',*,*,#1366,.F.);
#1368=CARTESIAN_POINT('',(0.0025,1.395,17.));
#1369=DIRECTION('',(0.,0.5,0.866025404));
#1370=VECTOR('',#1369,0.235940108);
#1371=LINE('',#1368,#1370);
#1372=EDGE_CURVE('',#1359,#1215,#1371,.T.);
#1373=ORIENTED_EDGE('',*,*,#1372,.T.);
#1374=ORIENTED_EDGE('',*,*,#1235,.T.);
#1375=CARTESIAN_POINT('',(-0.0025,1.395,17.));
#1376=DIRECTION('',(0.,0.5,0.866025404));
#1377=VECTOR('',#1376,0.235940108);
#1378=LINE('',#1375,#1377);
#1379=EDGE_CURVE('',#1361,#1224,#1378,.T.);
#1380=ORIENTED_EDGE('',*,*,#1379,.F.);
#1381=EDGE_LOOP('',(#1367,#1373,#1374,#1380));
#1382=FACE_BOUND('',#1381,.T.);
#1383=ADVANCED_FACE('',(#1382),#1357,.T.);
#1384=CARTESIAN_POINT('',(-0.005,1.398556624,16.9975));
#1385=DIRECTION('',(-0.866025404,-0.433012702,0.25));
#1386=DIRECTION('',(0.447213595,-0.894427191,-0.));
#1387=AXIS2_PLACEMENT_3D('',#1384,#1385,#1386);
#1388=PLANE('',#1387);
#1389=CARTESIAN_POINT('',(-0.005,1.4,17.));
#1390=VERTEX_POINT('',#1389);
#1391=CARTESIAN_POINT('',(-0.0025,1.395,17.));
#1392=DIRECTION('',(-0.447213595,0.894427191,0.));
#1393=VECTOR('',#1392,0.00559017);
#1394=LINE('',#1391,#1393);
#1395=EDGE_CURVE('',#1361,#1390,#1394,.T.);
#1396=ORIENTED_EDGE('',*,*,#1395,.F.);
#1397=ORIENTED_EDGE('',*,*,#1379,.T.);
#1398=ORIENTED_EDGE('',*,*,#1259,.T.);
#1399=CARTESIAN_POINT('',(-0.005,1.4,17.));
#1400=DIRECTION('',(0.,0.5,0.866025404));
#1401=VECTOR('',#1400,0.230940108);
#1402=LINE('',#1399,#1401);
#1403=EDGE_CURVE('',#1390,#1248,#1402,.T.);
#1404=ORIENTED_EDGE('',*,*,#1403,.F.);
#1405=EDGE_LOOP('',(#1396,#1397,#1398,#1404));
#1406=FACE_BOUND('',#1405,.T.);
#1407=ADVANCED_FACE('',(#1406),#1388,.T.);
#1408=CARTESIAN_POINT('',(-0.0025,1.402306624,16.995334936));
#1409=DIRECTION('',(-0.866025404,0.433012702,-0.25));
#1410=DIRECTION('',(-0.447213595,-0.894427191,-0.));
#1411=AXIS2_PLACEMENT_3D('',#1408,#1409,#1410);
#1412=PLANE('',#1411);
#1413=CARTESIAN_POINT('',(-0.0025,1.405,17.));
#1414=VERTEX_POINT('',#1413);
#1415=CARTESIAN_POINT('',(-0.005,1.4,17.));
#1416=DIRECTION('',(0.447213595,0.894427191,0.));
#1417=VECTOR('',#1416,0.00559017);
#1418=LINE('',#1415,#1417);
#1419=EDGE_CURVE('',#1390,#1414,#1418,.T.);
#1420=ORIENTED_EDGE('',*,*,#1419,.F.);
#1421=ORIENTED_EDGE('',*,*,#1403,.T.);
#1422=ORIENTED_EDGE('',*,*,#1283,.T.);
#1423=CARTESIAN_POINT('',(-0.0025,1.405,17.));
#1424=DIRECTION('',(0.,0.5,0.866025404));
#1425=VECTOR('',#1424,0.225940108);
#1426=LINE('',#1423,#1425);
#1427=EDGE_CURVE('',#1414,#1272,#1426,.T.);
#1428=ORIENTED_EDGE('',*,*,#1427,.F.);
#1429=EDGE_LOOP('',(#1420,#1421,#1422,#1428));
#1430=FACE_BOUND('',#1429,.T.);
#1431=ADVANCED_FACE('',(#1430),#1412,.T.);
#1432=CARTESIAN_POINT('',(0.0025,1.402306624,16.995334936));
#1433=DIRECTION('',(0.,0.866025404,-0.5));
#1434=DIRECTION('',(0.,0.5,0.866025404));
#1435=AXIS2_PLACEMENT_3D('',#1432,#1433,#1434);
#1436=PLANE('',#1435);
#1437=CARTESIAN_POINT('',(0.0025,1.405,17.));
#1438=VERTEX_POINT('',#1437);
#1439=CARTESIAN_POINT('',(-0.0025,1.405,17.));
#1440=DIRECTION('',(1.,-0.,0.));
#1441=VECTOR('',#1440,0.005);
#1442=LINE('',#1439,#1441);
#1443=EDGE_CURVE('',#1414,#1438,#1442,.T.);
#1444=ORIENTED_EDGE('',*,*,#1443,.F.);
#1445=ORIENTED_EDGE('',*,*,#1427,.T.);
#1446=ORIENTED_EDGE('',*,*,#1307,.T.);
#1447=CARTESIAN_POINT('',(0.0025,1.405,17.));
#1448=DIRECTION('',(0.,0.5,0.866025404));
#1449=VECTOR('',#1448,0.225940108);
#1450=LINE('',#1447,#1449);
#1451=EDGE_CURVE('',#1438,#1296,#1450,.T.);
#1452=ORIENTED_EDGE('',*,*,#1451,.F.);
#1453=EDGE_LOOP('',(#1444,#1445,#1446,#1452));
#1454=FACE_BOUND('',#1453,.T.);
#1455=ADVANCED_FACE('',(#1454),#1436,.T.);
#1456=CARTESIAN_POINT('',(0.005,1.398556624,16.9975));
#1457=DIRECTION('',(0.866025404,0.433012702,-0.25));
#1458=DIRECTION('',(-0.447213595,0.894427191,0.));
#1459=AXIS2_PLACEMENT_3D('',#1456,#1457,#1458);
#1460=PLANE('',#1459);
#1461=CARTESIAN_POINT('',(0.005,1.4,17.));
#1462=VERTEX_POINT('',#1461);
#1463=CARTESIAN_POINT('',(0.0025,1.405,17.));
#1464=DIRECTION('',(0.447213595,-0.894427191,0.));
#1465=VECTOR('',#1464,0.00559017);
#1466=LINE('',#1463,#1465);
#1467=EDGE_CURVE('',#1438,#1462,#1466,.T.);
#1468=ORIENTED_EDGE('',*,*,#1467,.F.);
#1469=ORIENTED_EDGE('',*,*,#1451,.T.);
#1470=ORIENTED_EDGE('',*,*,#1331,.T.);
#1471=CARTESIAN_POINT('',(0.005,1.4,17.));
#1472=DIRECTION('',(0.,0.5,0.866025404));
#1473=VECTOR('',#1472,0.230940108);
#1474=LINE('',#1471,#1473);
#1475=EDGE_CURVE('',#1462,#1320,#1474,.T.);
#1476=ORIENTED_EDGE('',*,*,#1475,.F.);
#1477=EDGE_LOOP('',(#1468,#1469,#1470,#1476));
#1478=FACE_BOUND('',#1477,.T.);
#1479=ADVANCED_FACE('',(#1478),#1460,.T.);
#1480=CARTESIAN_POINT('',(0.0025,1.394806624,16.999665064));
#1481=DIRECTION('',(0.866025404,-0.433012702,0.25));
#1482=DIRECTION('',(0.447213595,0.894427191,0.));
#1483=AXIS2_PLACEMENT_3D('',#1480,#1481,#1482);
#1484=PLANE('',#1483);
#1485=CARTESIAN_POINT('',(0.005,1.4,17.));
#1486=DIRECTION('',(-0.447213595,-0.894427191,0.));
#1487=VECTOR('',#1486,0.00559017);
#1488=LINE('',#1485,#1487);
#1489=EDGE_CURVE('',#1462,#1359,#1488,.T.);
#1490=ORIENTED_EDGE('',*,*,#1489,.F.);
#1491=ORIENTED_EDGE('',*,*,#1475,.T.);
#1492=ORIENTED_EDGE('',*,*,#1348,.T.);
#1493=ORIENTED_EDGE('',*,*,#1372,.F.);
#1494=EDGE_LOOP('',(#1490,#1491,#1492,#1493));
#1495=FACE_BOUND('',#1494,.T.);
#1496=ADVANCED_FACE('',(#1495),#1484,.T.);
#1497=CARTESIAN_POINT('',(0.,1.4,17.));
#1498=DIRECTION('',(0.,0.,1.));
#1499=DIRECTION('',(1.,0.,0.));
#1500=AXIS2_PLACEMENT_3D('',#1497,#1498,#1499);
#1501=PLANE('',#1500);
#1502=ORIENTED_EDGE('',*,*,#1366,.T.);
#1503=ORIENTED_EDGE('',*,*,#1395,.T.);
#1504=ORIENTED_EDGE('',*,*,#1419,.T.);
#1505=ORIENTED_EDGE('',*,*,#1443,.T.);
#1506=ORIENTED_EDGE('',*,*,#1467,.T.);
#1507=ORIENTED_EDGE('',*,*,#1489,.T.);
#1508=EDGE_LOOP('',(#1502,#1503,#1504,#1505,#1506,#1507));
#1509=FACE_BOUND('',#1508,.T.);
#1510=ADVANCED_FACE('',(#1509),#1501,.F.);
#1511=CARTESIAN_POINT('',(0.,5.55,17.));
#1512=DIRECTION('',(0.,0.,1.));
#1513=DIRECTION('',(1.,0.,0.));
#1514=AXIS2_PLACEMENT_3D('',#1511,#1512,#1513);
#1515=PLANE('',#1514);
#1516=ORIENTED_EDGE('',*,*,#1036,.T.);
#1517=ORIENTED_EDGE('',*,*,#1074,.T.);
#1518=ORIENTED_EDGE('',*,*,#1105,.T.);
#1519=ORIENTED_EDGE('',*,*,#1136,.T.);
#1520=ORIENTED_EDGE('',*,*,#1167,.T.);
#1521=ORIENTED_EDGE('',*,*,#1196,.T.);
#1522=EDGE_LOOP('',(#1516,#1517,#1518,#1519,#1520,#1521));
#1523=FACE_BOUND('',#1522,.T.);
#1524=ADVANCED_FACE('',(#1523),#1515,.F.);
#1525=CLOSED_SHELL('',(#1062,#1093,#1124,#1155,#1186,#1208,#1239,#1263,#1287,#1311,#1335,#1352,#1383,#1407,#1431,#1455,#1479,#1496,#1510,#1524));
#1526=MANIFOLD_SOLID_BREP('Bondwire1',#1525);
#1527=COLOUR_RGB('',0.968627453,0.949019611,0.909803927);
#1528=FILL_AREA_STYLE_COLOUR('',#1527);
#1529=FILL_AREA_STYLE('',(#1528));
#1530=SURFACE_STYLE_FILL_AREA(#1529);
#1531=SURFACE_SIDE_STYLE('',(#1530));
#1532=SURFACE_STYLE_USAGE(.BOTH.,#1531);
#1533=PRESENTATION_STYLE_ASSIGNMENT((#1532));
#1022=STYLED_ITEM('',(#1533),#1526);
#1534=DESCRIPTIVE_REPRESENTATION_ITEM('AEDT_MaterialName_V1','perfect conductor');
#1535=ID_ATTRIBUTE('SA #1536',#1536);
#1536=SHAPE_ASPECT('properties','',#23,.F.);
#1537=GEOMETRIC_ITEM_SPECIFIC_USAGE('','properties',#1536,#17,#1526);
#1538=PROPERTY_DEFINITION('AEDT_MaterialName_V1','',#1536);
#1539=REPRESENTATION('',(#1534),#10);
#1540=PROPERTY_DEFINITION_REPRESENTATION(#1538,#1539);
#1541=GENERAL_PROPERTY('','AEDT_MaterialName_V1','');
#1542=GENERAL_PROPERTY_ASSOCIATION('','',#1541,#1538);
#1543=INTEGER_REPRESENTATION_ITEM('AEDT_BODYFlagGroupColor_V1',0);
#1544=INTEGER_REPRESENTATION_ITEM('AEDT_BODYFlagGroupColor_V1',-1);
#1545=INTEGER_REPRESENTATION_ITEM('AEDT_BODYFlagGroupColor_V1',-2131234072);
#1546=INTEGER_REPRESENTATION_ITEM('AEDT_BODYFlagGroupColor_V1',5);
#1547=PROPERTY_DEFINITION('AEDT_BODYFlagGroupColor_V1','',#1536);
#1548=REPRESENTATION('',(#1543,#1544,#1545,#1546),#10);
#1549=PROPERTY_DEFINITION_REPRESENTATION(#1547,#1548);
#1550=GENERAL_PROPERTY('','AEDT_BODYFlagGroupColor_V1','');
#1551=GENERAL_PROPERTY_ASSOCIATION('','',#1550,#1547);
#1552=DESCRIPTIVE_REPRESENTATION_ITEM('AEDT_EntityName_V1','Bondwire1');
#1553=PROPERTY_DEFINITION('AEDT_EntityName_V1','',#1536);
#1554=REPRESENTATION('',(#1552),#10);
#1555=PROPERTY_DEFINITION_REPRESENTATION(#1553,#1554);
#1556=GENERAL_PROPERTY('','AEDT_EntityName_V1','');
#1557=GENERAL_PROPERTY_ASSOCIATION('','',#1556,#1553);
#16=SHAPE_REPRESENTATION('no_non_model_intermediate',(#15),#10);
#17=ADVANCED_BREP_SHAPE_REPRESENTATION('no_non_model_intermediate',(#247,#332,#514,#1526),#10);
#1565=SHAPE_REPRESENTATION_RELATIONSHIP('','',#16,#17);
#21=MANIFOLD_SURFACE_SHAPE_REPRESENTATION('no_non_model_intermediate',(#693,#808,#916,#990),#10);
#1573=SHAPE_REPRESENTATION_RELATIONSHIP('','',#16,#21);
#1574=CARTESIAN_POINT('',(0.,0.,0.));
#1575=DIRECTION('',(0.,0.,1.));
#1576=DIRECTION('',(1.,0.,0.));
#1577=AXIS2_PLACEMENT_3D('',#1574,#1575,#1576);
#1579=MAPPED_ITEM('',#1578,#1577);
#1578=REPRESENTATION_MAP(#1577,#16);
#1580=APPLICATION_CONTEXT('Managed model based 3d engineering');
#1581=APPLICATION_PROTOCOL_DEFINITION('international standard','ap242_managed_model_based_3d_engineering',2013,#1580);
#1582=PRODUCT_CONTEXT('',#1580,'mechanical');
#1583=PRODUCT_DEFINITION_CONTEXT('part definition',#1580,'design');
#24=PRODUCT('no_non_model_intermediate','no_non_model_intermediate','',(#1582));
#1584=PRODUCT_RELATED_PRODUCT_CATEGORY('part','',(#24));
#1585=PRODUCT_DEFINITION_FORMATION_WITH_SPECIFIED_SOURCE('','',#24,.NOT_KNOWN.);
#25=PRODUCT_DEFINITION('design','',#1585,#1583);
#23=PRODUCT_DEFINITION_SHAPE('','',#25);
#1586=SHAPE_DEFINITION_REPRESENTATION(#23,#16);
#11=DRAUGHTING_MODEL('',(#1579),#10);
#1587=DESCRIPTIVE_REPRESENTATION_ITEM('KEY','C:/Users/qcrew5/AppData/Local/Temp/no_non_model_intermediate.x_b');
#1588=PROPERTY_DEFINITION('KEY','',#25);
#1589=REPRESENTATION('',(#1587),#10);
#1590=PROPERTY_DEFINITION_REPRESENTATION(#1588,#1589);
#1591=GENERAL_PROPERTY('','KEY','');
#1592=GENERAL_PROPERTY_ASSOCIATION('','',#1591,#1588);
#1=MECHANICAL_DESIGN_GEOMETRIC_PRESENTATION_REPRESENTATION('',(#26,#279,#364,#546,#725,#833,#948,#1022),#10);
ENDSEC;
END-ISO-10303-21;
