ISO-10303-21;
HEADER;

/* File generated by HOOPS Exchange Version 24.0.0 */

FILE_DESCRIPTION(('HOOPS Exchange Step'),'2;1');

FILE_NAME('//Qcrew_drive/home/vashti_enjoy/test_export_palace_export/device.step',
'2026-07-20T14:19:42+08:00',
('qcrew5'),
('Unknown organisation'),
'HOOPS Exchange 2024.0',
'HOOPS Exchange',
'Unknown authorisation');

FILE_SCHEMA( ('AP242_MANAGED_MODEL_BASED_3D_ENGINEERING_MIM_LF {1 0 10303 442 1 1 4 }') );

ENDSEC;

DATA;
#3=(NAMED_UNIT(*)PLANE_ANGLE_UNIT()SI_UNIT($,.RADIAN.));
#4=PLANE_ANGLE_MEASURE_WITH_UNIT(PLANE_ANGLE_MEASURE(0.0174532925),#3);
#5=(CONVERSION_BASED_UNIT('DEGREE',#4)NAMED_UNIT(#6)PLANE_ANGLE_UNIT());
#6=DIMENSIONAL_EXPONENTS(0.,0.,0.,0.,0.,0.,0.);
#7=(NAMED_UNIT(*)SI_UNIT($,.STERADIAN.)SOLID_ANGLE_UNIT());
#8=(LENGTH_UNIT()NAMED_UNIT(*)SI_UNIT(.MILLI.,.METRE.));
#9=UNCERTAINTY_MEASURE_WITH_UNIT(LENGTH_MEASURE(1.000000E-05),#8,'DISTANCE_ACCURACY_VALUE','Maximum Tolerance applied to model');
#10=(GEOMETRIC_REPRESENTATION_CONTEXT(3)GLOBAL_UNCERTAINTY_ASSIGNED_CONTEXT((#9))GLOBAL_UNIT_ASSIGNED_CONTEXT((#8,#5,#7))REPRESENTATION_CONTEXT('','device_intermediate'));
#12=CARTESIAN_POINT('',(0.,0.,0.));
#13=DIRECTION('',(0.,0.,1.));
#14=DIRECTION('',(1.,0.,0.));
#15=AXIS2_PLACEMENT_3D('',#12,#13,#14);
#27=CARTESIAN_POINT('',(0.,0.,35.));
#28=DIRECTION('',(0.,0.,1.));
#29=DIRECTION('',(1.,0.,0.));
#30=AXIS2_PLACEMENT_3D('',#27,#28,#29);
#31=PLANE('',#30);
#32=CARTESIAN_POINT('',(4.,0.,35.));
#33=VERTEX_POINT('',#32);
#34=CARTESIAN_POINT('',(0.,0.,35.));
#35=DIRECTION('',(0.,0.,-1.));
#36=DIRECTION('',(1.,0.,0.));
#37=AXIS2_PLACEMENT_3D('',#34,#35,#36);
#38=CIRCLE('',#37,4.);
#39=EDGE_CURVE('',#33,#33,#38,.T.);
#40=ORIENTED_EDGE('',*,*,#39,.F.);
#41=EDGE_LOOP('',(#40));
#42=FACE_BOUND('',#41,.T.);
#43=ADVANCED_FACE('',(#42),#31,.T.);
#44=CARTESIAN_POINT('',(0.,0.,0.));
#45=DIRECTION('',(0.,0.,-1.));
#46=DIRECTION('',(-1.,0.,0.));
#47=AXIS2_PLACEMENT_3D('',#44,#45,#46);
#48=PLANE('',#47);
#49=CARTESIAN_POINT('',(4.,-0.,0.));
#50=VERTEX_POINT('',#49);
#51=CARTESIAN_POINT('',(0.,0.,0.));
#52=DIRECTION('',(0.,0.,1.));
#53=DIRECTION('',(1.,0.,0.));
#54=AXIS2_PLACEMENT_3D('',#51,#52,#53);
#55=CIRCLE('',#54,4.);
#56=EDGE_CURVE('',#50,#50,#55,.T.);
#57=ORIENTED_EDGE('',*,*,#56,.F.);
#58=EDGE_LOOP('',(#57));
#59=FACE_BOUND('',#58,.T.);
#60=ADVANCED_FACE('',(#59),#48,.T.);
#61=CARTESIAN_POINT('',(0.,0.,0.));
#62=DIRECTION('',(0.,0.,1.));
#63=DIRECTION('',(1.,0.,0.));
#64=AXIS2_PLACEMENT_3D('',#61,#62,#63);
#65=CYLINDRICAL_SURFACE('',#64,4.);
#66=CARTESIAN_POINT('',(4.,0.,35.));
#67=DIRECTION('',(-0.,-0.,-1.));
#68=VECTOR('',#67,35.);
#69=LINE('',#66,#68);
#70=EDGE_CURVE('',#33,#50,#69,.T.);
#71=ORIENTED_EDGE('',*,*,#70,.T.);
#72=ORIENTED_EDGE('',*,*,#56,.T.);
#73=ORIENTED_EDGE('',*,*,#70,.F.);
#74=ORIENTED_EDGE('',*,*,#39,.T.);
#75=EDGE_LOOP('',(#71,#72,#73,#74));
#76=FACE_BOUND('',#75,.T.);
#77=CARTESIAN_POINT('',(0.,4.,20.));
#78=VERTEX_POINT('',#77);
#79=CARTESIAN_POINT('',(0.,4.,20.));
#80=CARTESIAN_POINT('',(0.207876247,4.,20.));
#81=CARTESIAN_POINT('',(0.4108653,3.983908709,19.978638639));
#82=CARTESIAN_POINT('',(0.609366479,3.953311586,19.937460211));
#83=CARTESIAN_POINT('',(0.807867659,3.922714462,19.896281784));
#84=CARTESIAN_POINT('',(1.002801533,3.876908268,19.834312554));
#85=CARTESIAN_POINT('',(1.184105134,3.820719177,19.756427948));
#86=CARTESIAN_POINT('',(1.365408735,3.764530086,19.678543341));
#87=CARTESIAN_POINT('',(1.536818927,3.697160323,19.58366483));
#88=CARTESIAN_POINT('',(1.695784297,3.622749732,19.474735464));
#89=CARTESIAN_POINT('',(1.854749667,3.548339141,19.365806099));
#90=CARTESIAN_POINT('',(1.999474875,3.467933066,19.244433343));
#91=CARTESIAN_POINT('',(2.131812661,3.384578966,19.110775872));
#92=CARTESIAN_POINT('',(2.264150447,3.301224867,18.9771184));
#93=CARTESIAN_POINT('',(2.384164326,3.214586751,18.830523241));
#94=CARTESIAN_POINT('',(2.488681802,3.131527246,18.675250098));
#95=CARTESIAN_POINT('',(2.593199278,3.04846774,18.519976954));
#96=CARTESIAN_POINT('',(2.683476288,2.968145309,18.355053616));
#97=CARTESIAN_POINT('',(2.759194081,2.896005529,18.177645118));
#98=CARTESIAN_POINT('',(2.797052978,2.859935639,18.088940869));
#99=CARTESIAN_POINT('',(2.83136554,2.82580398,17.996541024));
#100=CARTESIAN_POINT('',(2.86102851,2.795445557,17.902505326));
#101=CARTESIAN_POINT('',(2.890691481,2.765087135,17.808469628));
#102=CARTESIAN_POINT('',(2.91588829,2.738339825,17.712503352));
#103=CARTESIAN_POINT('',(2.936425806,2.716137606,17.614331742));
#104=CARTESIAN_POINT('',(2.977500837,2.671733168,17.417988521));
#105=CARTESIAN_POINT('',(2.999641906,2.64615735,17.209841629));
#106=CARTESIAN_POINT('',(2.999995522,2.645756389,17.005183499));
#107=CARTESIAN_POINT('',(3.00017233,2.645555908,16.902854434));
#108=CARTESIAN_POINT('',(2.995126869,2.651311989,16.800754005));
#109=CARTESIAN_POINT('',(2.98484936,2.662832008,16.698878265));
#110=CARTESIAN_POINT('',(2.97457185,2.674352027,16.597002526));
#111=CARTESIAN_POINT('',(2.958902924,2.691800637,16.494962684));
#112=CARTESIAN_POINT('',(2.938603585,2.713781305,16.396171407));
#113=CARTESIAN_POINT('',(2.918304247,2.735761973,16.29738013));
#114=CARTESIAN_POINT('',(2.893339261,2.762310912,16.201048745));
#115=CARTESIAN_POINT('',(2.863960678,2.792441447,16.106843107));
#116=CARTESIAN_POINT('',(2.834582095,2.822571982,16.012637468));
#117=CARTESIAN_POINT('',(2.800568561,2.856490482,15.920100345));
#118=CARTESIAN_POINT('',(2.762849181,2.892518695,15.830955774));
#119=CARTESIAN_POINT('',(2.687410421,2.964575122,15.652666632));
#120=CARTESIAN_POINT('',(2.597357908,3.044917573,15.487104031));
#121=CARTESIAN_POINT('',(2.493090146,3.128018786,15.331317428));
#122=CARTESIAN_POINT('',(2.388822384,3.21112,15.175530824));
#123=CARTESIAN_POINT('',(2.268997286,3.297875715,15.028466106));
#124=CARTESIAN_POINT('',(2.137144748,3.381214623,14.894622997));
#125=CARTESIAN_POINT('',(2.00529221,3.46455353,14.760779888));
#126=CARTESIAN_POINT('',(1.861378358,3.544798586,14.639511091));
#127=CARTESIAN_POINT('',(1.703823389,3.618975802,14.530792463));
#128=CARTESIAN_POINT('',(1.54626842,3.693153018,14.422073836));
#129=CARTESIAN_POINT('',(1.373458792,3.761593956,14.325576438));
#130=CARTESIAN_POINT('',(1.192403378,3.818137528,14.247151623));
#131=CARTESIAN_POINT('',(1.011347964,3.874681101,14.168726809));
#132=CARTESIAN_POINT('',(0.819474988,3.920416248,14.106824419));
#133=CARTESIAN_POINT('',(0.618934935,3.951824838,14.064540999));
#134=CARTESIAN_POINT('',(0.418394882,3.983233427,14.022257579));
#135=CARTESIAN_POINT('',(0.215534382,3.999457214,14.000723716));
#136=CARTESIAN_POINT('',(0.010320286,3.999986686,14.000017751));
#137=CARTESIAN_POINT('',(-0.092286762,4.000251423,13.999664769));
#138=CARTESIAN_POINT('',(-0.196150268,3.996519434,14.004634528));
#139=CARTESIAN_POINT('',(-0.29902409,3.988807415,14.014939767));
#140=CARTESIAN_POINT('',(-0.401897911,3.981095396,14.025245006));
#141=CARTESIAN_POINT('',(-0.503024416,3.96952051,14.040729929));
#142=CARTESIAN_POINT('',(-0.602507188,3.954362792,14.0611252));
#143=CARTESIAN_POINT('',(-0.70198996,3.939205073,14.081520471));
#144=CARTESIAN_POINT('',(-0.799828344,3.920462684,14.106827751));
#145=CARTESIAN_POINT('',(-0.896075879,3.898339136,14.136951272));
#146=CARTESIAN_POINT('',(-0.992323414,3.876215588,14.167074793));
#147=CARTESIAN_POINT('',(-1.087265791,3.850582632,14.202194402));
#148=CARTESIAN_POINT('',(-1.178591671,3.822423534,14.241210107));
#149=CARTESIAN_POINT('',(-1.361243433,3.766105337,14.319241518));
#150=CARTESIAN_POINT('',(-1.531654634,3.69933504,14.413224307));
#151=CARTESIAN_POINT('',(-1.691326611,3.624833002,14.52221585));
#152=CARTESIAN_POINT('',(-1.850998589,3.550330964,14.631207394));
#153=CARTESIAN_POINT('',(-1.997037764,3.469336362,14.753408918));
#154=CARTESIAN_POINT('',(-2.129426101,3.386080992,14.886816505));
#155=CARTESIAN_POINT('',(-2.195620269,3.344453306,14.953520299));
#156=CARTESIAN_POINT('',(-2.258552232,3.302169208,15.023181285));
#157=CARTESIAN_POINT('',(-2.318325655,3.259657368,15.095960568));
#158=CARTESIAN_POINT('',(-2.378099077,3.217145529,15.16873985));
#159=CARTESIAN_POINT('',(-2.43477316,3.174332964,15.244795588));
#160=CARTESIAN_POINT('',(-2.487389083,3.132554158,15.322831091));
#161=CARTESIAN_POINT('',(-2.592620928,3.048996544,15.478902096));
#162=CARTESIAN_POINT('',(-2.682886908,2.968663001,15.643943285));
#163=CARTESIAN_POINT('',(-2.758296363,2.896860572,15.820253767));
#164=CARTESIAN_POINT('',(-2.796001091,2.860959358,15.908409008));
#165=CARTESIAN_POINT('',(-2.829954446,2.827222726,15.999414443));
#166=CARTESIAN_POINT('',(-2.859874588,2.796626064,16.093844747));
#167=CARTESIAN_POINT('',(-2.889794729,2.766029402,16.188275051));
#168=CARTESIAN_POINT('',(-2.91547153,2.73878563,16.285742863));
#169=CARTESIAN_POINT('',(-2.936132045,2.716455157,16.384265792));
#170=CARTESIAN_POINT('',(-2.95679256,2.694124684,16.482788721));
#171=CARTESIAN_POINT('',(-2.97264491,2.676498076,16.582970338));
#172=CARTESIAN_POINT('',(-2.983417947,2.664435655,16.685012136));
#173=CARTESIAN_POINT('',(-2.994190984,2.652373234,16.787053934));
#174=CARTESIAN_POINT('',(-2.99983049,2.645943512,16.891819868));
#175=CARTESIAN_POINT('',(-2.999996157,2.645755669,16.995198323));
#176=CARTESIAN_POINT('',(-3.000327492,2.645379983,17.201955231));
#177=CARTESIAN_POINT('',(-2.979307717,2.66971531,17.406255127));
#178=CARTESIAN_POINT('',(-2.938291985,2.71411868,17.60534305));
#179=CARTESIAN_POINT('',(-2.897276253,2.75852205,17.804430974));
#180=CARTESIAN_POINT('',(-2.838091115,2.820654466,17.991242585));
#181=CARTESIAN_POINT('',(-2.762790008,2.892575215,18.169184062));
#182=CARTESIAN_POINT('',(-2.687488902,2.964495963,18.347125539));
#183=CARTESIAN_POINT('',(-2.595486544,3.046525854,18.516124313));
#184=CARTESIAN_POINT('',(-2.490926848,3.129741753,18.671910118));
#185=CARTESIAN_POINT('',(-2.386367152,3.212957652,18.827695922));
#186=CARTESIAN_POINT('',(-2.268507459,3.298242261,18.972163275));
#187=CARTESIAN_POINT('',(-2.136102339,3.381873267,19.106434617));
#188=CARTESIAN_POINT('',(-2.069899779,3.42368877,19.173570288));
#189=CARTESIAN_POINT('',(-1.999636671,3.465310923,19.238416021));
#190=CARTESIAN_POINT('',(-1.926702912,3.505398107,19.299525145));
#191=CARTESIAN_POINT('',(-1.853769153,3.545485292,19.360634268));
#192=CARTESIAN_POINT('',(-1.77805734,3.58413893,19.418182431));
#193=CARTESIAN_POINT('',(-1.699456431,3.621028561,19.472215168));
#194=CARTESIAN_POINT('',(-1.542254613,3.694807822,19.580280644));
#195=CARTESIAN_POINT('',(-1.373613838,3.761595935,19.674432001));
#196=CARTESIAN_POINT('',(-1.19143631,3.818439409,19.753267063));
#197=CARTESIAN_POINT('',(-1.100347546,3.846861146,19.792684594));
#198=CARTESIAN_POINT('',(-1.005321112,3.872865184,19.828341612));
#199=CARTESIAN_POINT('',(-0.909137302,3.89531377,19.85892801));
#200=CARTESIAN_POINT('',(-0.812953492,3.917762356,19.889514408));
#201=CARTESIAN_POINT('',(-0.715128105,3.936843577,19.915292849));
#202=CARTESIAN_POINT('',(-0.615602558,3.952345315,19.93615965));
#203=CARTESIAN_POINT('',(-0.416551463,3.983348793,19.977893252));
#204=CARTESIAN_POINT('',(-0.208705984,4.,20.));
#205=CARTESIAN_POINT('',(0.,4.,20.));
#206=B_SPLINE_CURVE_WITH_KNOTS('',3,(#79,#80,#81,#82,#83,#84,#85,#86,#87,#88,#89,#90,#91,#92,#93,#94,#95,#96,#97,#98,#99,#100,#101,#102,#103,#104,
#105,#106,#107,#108,#109,#110,#111,#112,#113,#114,#115,#116,#117,#118,#119,#120,#121,#122,#123,#124,#125,#126,#127,#128,#129,
#130,#131,#132,#133,#134,#135,#136,#137,#138,#139,#140,#141,#142,#143,#144,#145,#146,#147,#148,#149,#150,#151,#152,#153,#154,
#155,#156,#157,#158,#159,#160,#161,#162,#163,#164,#165,#166,#167,#168,#169,#170,#171,#172,#173,#174,#175,#176,#177,#178,#179,
#180,#181,#182,#183,#184,#185,#186,#187,#188,#189,#190,#191,#192,#193,#194,#195,#196,#197,#198,#199,#200,#201,#202,#203,#204,
#205),.UNSPECIFIED.,.T.,.F.,(4,3,3,3,3,3,3,3,3,3,3,3,3,3,3,3,3,3,3,3,3,3,3,3,3,3,
3,3,3,3,3,3,3,3,3,3,3,3,3,3,3,3,4),(0.,0.000613469,0.001226939,0.001840408,0.002453877,0.003067347,0.003680816,0.00398755,0.004294285,0.004907754,0.005214489,0.005521224,0.005827958,0.006134693,0.006748162,0.007361632,0.007975101,0.00858857,0.00920204,0.009815509,0.010122243,0.010428978,0.010735713,0.011042447,0.011655917,0.012269386,
0.012576121,0.012882855,0.013496325,0.013803059,0.014109794,0.014416529,0.014723263,0.015336733,0.015950202,0.016563671,0.01717714,0.017483875,0.01779061,0.018404079,0.018710814,0.019017548,0.019631018),.UNSPECIFIED.);
#207=EDGE_CURVE('',#78,#78,#206,.T.);
#208=ORIENTED_EDGE('',*,*,#207,.F.);
#209=EDGE_LOOP('',(#208));
#210=FACE_BOUND('',#209,.T.);
#211=ADVANCED_FACE('',(#76,#210),#65,.T.);
#212=CARTESIAN_POINT('',(-0.,22.5,17.));
#213=DIRECTION('',(-0.,1.,-0.));
#214=DIRECTION('',(0.,0.,1.));
#215=AXIS2_PLACEMENT_3D('',#212,#213,#214);
#216=PLANE('',#215);
#217=CARTESIAN_POINT('',(-0.,22.5,20.));
#218=VERTEX_POINT('',#217);
#219=CARTESIAN_POINT('',(-0.,22.5,17.));
#220=DIRECTION('',(0.,-1.,0.));
#221=DIRECTION('',(0.,0.,1.));
#222=AXIS2_PLACEMENT_3D('',#219,#220,#221);
#223=CIRCLE('',#222,3.);
#224=EDGE_CURVE('',#218,#218,#223,.T.);
#225=ORIENTED_EDGE('',*,*,#224,.F.);
#226=EDGE_LOOP('',(#225));
#227=FACE_BOUND('',#226,.T.);
#228=ADVANCED_FACE('',(#227),#216,.T.);
#229=CARTESIAN_POINT('',(0.,2.5,17.));
#230=DIRECTION('',(-0.,1.,-0.));
#231=DIRECTION('',(0.,0.,1.));
#232=AXIS2_PLACEMENT_3D('',#229,#230,#231);
#233=CYLINDRICAL_SURFACE('',#232,3.);
#234=CARTESIAN_POINT('',(0.,9.185,20.));
#235=VERTEX_POINT('',#234);
#236=CARTESIAN_POINT('',(0.,9.185,20.));
#237=DIRECTION('',(0.,-1.,0.));
#238=VECTOR('',#237,5.185);
#239=LINE('',#236,#238);
#240=EDGE_CURVE('',#235,#78,#239,.T.);
#241=ORIENTED_EDGE('',*,*,#240,.T.);
#242=ORIENTED_EDGE('',*,*,#207,.T.);
#243=ORIENTED_EDGE('',*,*,#240,.F.);
#244=CARTESIAN_POINT('',(0.,11.184999998,19.999999998));
#245=VERTEX_POINT('',#244);
#246=CARTESIAN_POINT('',(0.,9.185,20.));
#247=CARTESIAN_POINT('',(0.066577737,9.185,20.));
#248=CARTESIAN_POINT('',(0.131951675,9.191581754,19.997787913));
#249=CARTESIAN_POINT('',(0.196184801,9.20443306,19.993578381));
#250=CARTESIAN_POINT('',(0.260417927,9.217284366,19.98936885));
#251=CARTESIAN_POINT('',(0.324193899,9.236745074,19.983054453));
#252=CARTESIAN_POINT('',(0.384646061,9.261935859,19.97523905));
#253=CARTESIAN_POINT('',(0.445098224,9.287126645,19.967423648));
#254=CARTESIAN_POINT('',(0.50236142,9.317887118,19.958153547));
#255=CARTESIAN_POINT('',(0.556535385,9.354176093,19.947926113));
#256=CARTESIAN_POINT('',(0.61070935,9.390465068,19.937698678));
#257=CARTESIAN_POINT('',(0.661602411,9.432356901,19.926516421));
#258=CARTESIAN_POINT('',(0.707352427,9.47813895,19.915416359));
#259=CARTESIAN_POINT('',(0.798852459,9.569703047,19.893216234));
#260=CARTESIAN_POINT('',(0.873105063,9.680406556,19.870618509));
#261=CARTESIAN_POINT('',(0.923127247,9.800505415,19.854441467));
#262=CARTESIAN_POINT('',(0.948138339,9.860554844,19.846352945));
#263=CARTESIAN_POINT('',(0.967602572,9.92405541,19.839706449));
#264=CARTESIAN_POINT('',(0.980544457,9.98870286,19.835230602));
#265=CARTESIAN_POINT('',(0.993486343,10.053350311,19.830754756));
#266=CARTESIAN_POINT('',(0.999953975,10.118550567,19.828443397));
#267=CARTESIAN_POINT('',(0.999999757,10.184303087,19.828427211));
#268=CARTESIAN_POINT('',(1.000045539,10.250055607,19.828411024));
#269=CARTESIAN_POINT('',(0.993437821,10.316853574,19.830771443));
#270=CARTESIAN_POINT('',(0.980566717,10.381185915,19.835222904));
#271=CARTESIAN_POINT('',(0.967695614,10.445518256,19.839674364));
#272=CARTESIAN_POINT('',(0.948656492,10.508096987,19.846183003));
#273=CARTESIAN_POINT('',(0.923361159,10.568932507,19.854365809));
#274=CARTESIAN_POINT('',(0.872770493,10.690603545,19.87073142));
#275=CARTESIAN_POINT('',(0.799095371,10.800132348,19.893167283));
#276=CARTESIAN_POINT('',(0.707051962,10.892161596,19.915489242));
#277=CARTESIAN_POINT('',(0.661030257,10.93817622,19.926650222));
#278=CARTESIAN_POINT('',(0.611049605,10.979258597,19.93762471));
#279=CARTESIAN_POINT('',(0.557046033,11.015481617,19.947829662));
#280=CARTESIAN_POINT('',(0.503042461,11.051704638,19.958034614));
#281=CARTESIAN_POINT('',(0.444534287,11.083132272,19.967502987));
#282=CARTESIAN_POINT('',(0.38433275,11.108194637,19.975279539));
#283=CARTESIAN_POINT('',(0.324131213,11.133257001,19.983056092));
#284=CARTESIAN_POINT('',(0.261725696,11.152397526,19.98926529));
#285=CARTESIAN_POINT('',(0.197001835,11.16540312,19.993524725));
#286=CARTESIAN_POINT('',(0.132277974,11.178408713,19.997784159));
#287=CARTESIAN_POINT('',(0.065986118,11.184973632,19.999991211));
#288=CARTESIAN_POINT('',(0.000400814,11.18499992,19.999999973));
#289=CARTESIAN_POINT('',(-0.130769795,11.185052495,20.000017498));
#290=CARTESIAN_POINT('',(-0.263196408,11.158557125,19.990909213));
#291=CARTESIAN_POINT('',(-0.383893428,11.108377407,19.975336256));
#292=CARTESIAN_POINT('',(-0.444241937,11.083287548,19.967549777));
#293=CARTESIAN_POINT('',(-0.502750673,11.051872788,19.958084203));
#294=CARTESIAN_POINT('',(-0.556754341,11.015677196,19.947884768));
#295=CARTESIAN_POINT('',(-0.610758008,10.979481604,19.937685333));
#296=CARTESIAN_POINT('',(-0.660840555,10.938362043,19.926695743));
#297=CARTESIAN_POINT('',(-0.707022785,10.892190768,19.915496318));
#298=CARTESIAN_POINT('',(-0.799387244,10.799848216,19.893097468));
#299=CARTESIAN_POINT('',(-0.872636012,10.690797886,19.870772086));
#300=CARTESIAN_POINT('',(-0.923216701,10.569279745,19.854412535));
#301=CARTESIAN_POINT('',(-0.948507046,10.508520675,19.84623276));
#302=CARTESIAN_POINT('',(-0.967540481,10.446055914,19.839727289));
#303=CARTESIAN_POINT('',(-0.98042729,10.381881512,19.835271121));
#304=CARTESIAN_POINT('',(-0.993314099,10.317707109,19.830814953));
#305=CARTESIAN_POINT('',(-0.999994541,10.250987016,19.828429055));
#306=CARTESIAN_POINT('',(-0.999999997,10.185082261,19.828427126));
#307=CARTESIAN_POINT('',(-1.000005452,10.119177505,19.828425197));
#308=CARTESIAN_POINT('',(-0.993558952,10.053917636,19.830729039));
#309=CARTESIAN_POINT('',(-0.980663372,9.989297799,19.835189474));
#310=CARTESIAN_POINT('',(-0.967767792,9.924677962,19.839649908));
#311=CARTESIAN_POINT('',(-0.948312569,9.861031506,19.846295294));
#312=CARTESIAN_POINT('',(-0.923259548,9.800823208,19.854398677));
#313=CARTESIAN_POINT('',(-0.873153505,9.680406611,19.870605443));
#314=CARTESIAN_POINT('',(-0.798942526,9.569780012,19.893196055));
#315=CARTESIAN_POINT('',(-0.707301905,9.478088396,19.915428616));
#316=CARTESIAN_POINT('',(-0.661481594,9.432242589,19.926544897));
#317=CARTESIAN_POINT('',(-0.610417129,9.390254325,19.937756876));
#318=CARTESIAN_POINT('',(-0.556375733,9.354069171,19.947956249));
#319=CARTESIAN_POINT('',(-0.502334338,9.317884017,19.958155621));
#320=CARTESIAN_POINT('',(-0.445149517,9.287151746,19.967416016));
#321=CARTESIAN_POINT('',(-0.384694475,9.261956035,19.975232791));
#322=CARTESIAN_POINT('',(-0.324239433,9.236760324,19.983049566));
#323=CARTESIAN_POINT('',(-0.260451642,9.217293495,19.989365886));
#324=CARTESIAN_POINT('',(-0.196219775,9.204440058,19.993576089));
#325=CARTESIAN_POINT('',(-0.131987907,9.191586621,19.997786292));
#326=CARTESIAN_POINT('',(-0.066603014,9.185,20.));
#327=CARTESIAN_POINT('',(0.,9.185,20.));
#328=B_SPLINE_CURVE_WITH_KNOTS('',3,(#246,#247,#248,#249,#250,#251,#252,#253,#254,#255,#256,#257,#258,#259,#260,#261,#262,#263,#264,#265,#266,#267,#268,#269,#270,#271,
#272,#273,#274,#275,#276,#277,#278,#279,#280,#281,#282,#283,#284,#285,#286,#287,#288,#289,#290,#291,#292,#293,#294,#295,#296,
#297,#298,#299,#300,#301,#302,#303,#304,#305,#306,#307,#308,#309,#310,#311,#312,#313,#314,#315,#316,#317,#318,#319,#320,#321,
#322,#323,#324,#325,#326,#327),.UNSPECIFIED.,.T.,.F.,(4,3,3,3,3,3,3,3,3,3,3,3,3,3,3,3,3,3,3,3,3,3,3,3,3,3,
3,4),(0.,0.000196797,0.000393595,0.000590392,0.000787189,0.001180784,0.001377581,0.001574378,0.001771175,0.001967973,0.002361567,0.002558364,0.002755162,0.002951959,0.003148756,0.003542351,0.003739148,0.003935945,0.00432954,0.004526337,0.004723134,0.004919932,0.005116729,0.005510324,0.005707121,0.005903918,
0.006100715,0.006297513),.UNSPECIFIED.);
#329=EDGE_CURVE('',#245,#235,#328,.T.);
#330=ORIENTED_EDGE('',*,*,#329,.F.);
#331=CARTESIAN_POINT('',(-0.,22.5,20.));
#332=DIRECTION('',(0.,-1.,0.));
#333=VECTOR('',#332,11.315000002);
#334=LINE('',#331,#333);
#335=EDGE_CURVE('',#218,#245,#334,.T.);
#336=ORIENTED_EDGE('',*,*,#335,.F.);
#337=ORIENTED_EDGE('',*,*,#224,.T.);
#338=ORIENTED_EDGE('',*,*,#335,.T.);
#339=CARTESIAN_POINT('',(0.999999993,10.185,19.828427128));
#340=VERTEX_POINT('',#339);
#341=CARTESIAN_POINT('',(0.,9.185,20.));
#342=CARTESIAN_POINT('',(0.066577737,9.185,20.));
#343=CARTESIAN_POINT('',(0.131951675,9.191581754,19.997787913));
#344=CARTESIAN_POINT('',(0.196184801,9.20443306,19.993578381));
#345=CARTESIAN_POINT('',(0.260417927,9.217284366,19.98936885));
#346=CARTESIAN_POINT('',(0.324193899,9.236745074,19.983054453));
#347=CARTESIAN_POINT('',(0.384646061,9.261935859,19.97523905));
#348=CARTESIAN_POINT('',(0.445098224,9.287126645,19.967423648));
#349=CARTESIAN_POINT('',(0.50236142,9.317887118,19.958153547));
#350=CARTESIAN_POINT('',(0.556535385,9.354176093,19.947926113));
#351=CARTESIAN_POINT('',(0.61070935,9.390465068,19.937698678));
#352=CARTESIAN_POINT('',(0.661602411,9.432356901,19.926516421));
#353=CARTESIAN_POINT('',(0.707352427,9.47813895,19.915416359));
#354=CARTESIAN_POINT('',(0.798852459,9.569703047,19.893216234));
#355=CARTESIAN_POINT('',(0.873105063,9.680406556,19.870618509));
#356=CARTESIAN_POINT('',(0.923127247,9.800505415,19.854441467));
#357=CARTESIAN_POINT('',(0.948138339,9.860554844,19.846352945));
#358=CARTESIAN_POINT('',(0.967602572,9.92405541,19.839706449));
#359=CARTESIAN_POINT('',(0.980544457,9.98870286,19.835230602));
#360=CARTESIAN_POINT('',(0.993486343,10.053350311,19.830754756));
#361=CARTESIAN_POINT('',(0.999953975,10.118550567,19.828443397));
#362=CARTESIAN_POINT('',(0.999999757,10.184303087,19.828427211));
#363=CARTESIAN_POINT('',(1.000045539,10.250055607,19.828411024));
#364=CARTESIAN_POINT('',(0.993437821,10.316853574,19.830771443));
#365=CARTESIAN_POINT('',(0.980566717,10.381185915,19.835222904));
#366=CARTESIAN_POINT('',(0.967695614,10.445518256,19.839674364));
#367=CARTESIAN_POINT('',(0.948656492,10.508096987,19.846183003));
#368=CARTESIAN_POINT('',(0.923361159,10.568932507,19.854365809));
#369=CARTESIAN_POINT('',(0.872770493,10.690603545,19.87073142));
#370=CARTESIAN_POINT('',(0.799095371,10.800132348,19.893167283));
#371=CARTESIAN_POINT('',(0.707051962,10.892161596,19.915489242));
#372=CARTESIAN_POINT('',(0.661030257,10.93817622,19.926650222));
#373=CARTESIAN_POINT('',(0.611049605,10.979258597,19.93762471));
#374=CARTESIAN_POINT('',(0.557046033,11.015481617,19.947829662));
#375=CARTESIAN_POINT('',(0.503042461,11.051704638,19.958034614));
#376=CARTESIAN_POINT('',(0.444534287,11.083132272,19.967502987));
#377=CARTESIAN_POINT('',(0.38433275,11.108194637,19.975279539));
#378=CARTESIAN_POINT('',(0.324131213,11.133257001,19.983056092));
#379=CARTESIAN_POINT('',(0.261725696,11.152397526,19.98926529));
#380=CARTESIAN_POINT('',(0.197001835,11.16540312,19.993524725));
#381=CARTESIAN_POINT('',(0.132277974,11.178408713,19.997784159));
#382=CARTESIAN_POINT('',(0.065986118,11.184973632,19.999991211));
#383=CARTESIAN_POINT('',(0.000400814,11.18499992,19.999999973));
#384=CARTESIAN_POINT('',(-0.130769795,11.185052495,20.000017498));
#385=CARTESIAN_POINT('',(-0.263196408,11.158557125,19.990909213));
#386=CARTESIAN_POINT('',(-0.383893428,11.108377407,19.975336256));
#387=CARTESIAN_POINT('',(-0.444241937,11.083287548,19.967549777));
#388=CARTESIAN_POINT('',(-0.502750673,11.051872788,19.958084203));
#389=CARTESIAN_POINT('',(-0.556754341,11.015677196,19.947884768));
#390=CARTESIAN_POINT('',(-0.610758008,10.979481604,19.937685333));
#391=CARTESIAN_POINT('',(-0.660840555,10.938362043,19.926695743));
#392=CARTESIAN_POINT('',(-0.707022785,10.892190768,19.915496318));
#393=CARTESIAN_POINT('',(-0.799387244,10.799848216,19.893097468));
#394=CARTESIAN_POINT('',(-0.872636012,10.690797886,19.870772086));
#395=CARTESIAN_POINT('',(-0.923216701,10.569279745,19.854412535));
#396=CARTESIAN_POINT('',(-0.948507046,10.508520675,19.84623276));
#397=CARTESIAN_POINT('',(-0.967540481,10.446055914,19.839727289));
#398=CARTESIAN_POINT('',(-0.98042729,10.381881512,19.835271121));
#399=CARTESIAN_POINT('',(-0.993314099,10.317707109,19.830814953));
#400=CARTESIAN_POINT('',(-0.999994541,10.250987016,19.828429055));
#401=CARTESIAN_POINT('',(-0.999999997,10.185082261,19.828427126));
#402=CARTESIAN_POINT('',(-1.000005452,10.119177505,19.828425197));
#403=CARTESIAN_POINT('',(-0.993558952,10.053917636,19.830729039));
#404=CARTESIAN_POINT('',(-0.980663372,9.989297799,19.835189474));
#405=CARTESIAN_POINT('',(-0.967767792,9.924677962,19.839649908));
#406=CARTESIAN_POINT('',(-0.948312569,9.861031506,19.846295294));
#407=CARTESIAN_POINT('',(-0.923259548,9.800823208,19.854398677));
#408=CARTESIAN_POINT('',(-0.873153505,9.680406611,19.870605443));
#409=CARTESIAN_POINT('',(-0.798942526,9.569780012,19.893196055));
#410=CARTESIAN_POINT('',(-0.707301905,9.478088396,19.915428616));
#411=CARTESIAN_POINT('',(-0.661481594,9.432242589,19.926544897));
#412=CARTESIAN_POINT('',(-0.610417129,9.390254325,19.937756876));
#413=CARTESIAN_POINT('',(-0.556375733,9.354069171,19.947956249));
#414=CARTESIAN_POINT('',(-0.502334338,9.317884017,19.958155621));
#415=CARTESIAN_POINT('',(-0.445149517,9.287151746,19.967416016));
#416=CARTESIAN_POINT('',(-0.384694475,9.261956035,19.975232791));
#417=CARTESIAN_POINT('',(-0.324239433,9.236760324,19.983049566));
#418=CARTESIAN_POINT('',(-0.260451642,9.217293495,19.989365886));
#419=CARTESIAN_POINT('',(-0.196219775,9.204440058,19.993576089));
#420=CARTESIAN_POINT('',(-0.131987907,9.191586621,19.997786292));
#421=CARTESIAN_POINT('',(-0.066603014,9.185,20.));
#422=CARTESIAN_POINT('',(0.,9.185,20.));
#423=B_SPLINE_CURVE_WITH_KNOTS('',3,(#341,#342,#343,#344,#345,#346,#347,#348,#349,#350,#351,#352,#353,#354,#355,#356,#357,#358,#359,#360,#361,#362,#363,#364,#365,#366,
#367,#368,#369,#370,#371,#372,#373,#374,#375,#376,#377,#378,#379,#380,#381,#382,#383,#384,#385,#386,#387,#388,#389,#390,#391,
#392,#393,#394,#395,#396,#397,#398,#399,#400,#401,#402,#403,#404,#405,#406,#407,#408,#409,#410,#411,#412,#413,#414,#415,#416,
#417,#418,#419,#420,#421,#422),.UNSPECIFIED.,.T.,.F.,(4,3,3,3,3,3,3,3,3,3,3,3,3,3,3,3,3,3,3,3,3,3,3,3,3,3,
3,4),(0.,0.000196797,0.000393595,0.000590392,0.000787189,0.001180784,0.001377581,0.001574378,0.001771175,0.001967973,0.002361567,0.002558364,0.002755162,0.002951959,0.003148756,0.003542351,0.003739148,0.003935945,0.00432954,0.004526337,0.004723134,0.004919932,0.005116729,0.005510324,0.005707121,0.005903918,
0.006100715,0.006297513),.UNSPECIFIED.);
#424=EDGE_CURVE('',#340,#245,#423,.T.);
#425=ORIENTED_EDGE('',*,*,#424,.F.);
#426=CARTESIAN_POINT('',(0.,9.185,20.));
#427=CARTESIAN_POINT('',(0.066577737,9.185,20.));
#428=CARTESIAN_POINT('',(0.131951675,9.191581754,19.997787913));
#429=CARTESIAN_POINT('',(0.196184801,9.20443306,19.993578381));
#430=CARTESIAN_POINT('',(0.260417927,9.217284366,19.98936885));
#431=CARTESIAN_POINT('',(0.324193899,9.236745074,19.983054453));
#432=CARTESIAN_POINT('',(0.384646061,9.261935859,19.97523905));
#433=CARTESIAN_POINT('',(0.445098224,9.287126645,19.967423648));
#434=CARTESIAN_POINT('',(0.50236142,9.317887118,19.958153547));
#435=CARTESIAN_POINT('',(0.556535385,9.354176093,19.947926113));
#436=CARTESIAN_POINT('',(0.61070935,9.390465068,19.937698678));
#437=CARTESIAN_POINT('',(0.661602411,9.432356901,19.926516421));
#438=CARTESIAN_POINT('',(0.707352427,9.47813895,19.915416359));
#439=CARTESIAN_POINT('',(0.798852459,9.569703047,19.893216234));
#440=CARTESIAN_POINT('',(0.873105063,9.680406556,19.870618509));
#441=CARTESIAN_POINT('',(0.923127247,9.800505415,19.854441467));
#442=CARTESIAN_POINT('',(0.948138339,9.860554844,19.846352945));
#443=CARTESIAN_POINT('',(0.967602572,9.92405541,19.839706449));
#444=CARTESIAN_POINT('',(0.980544457,9.98870286,19.835230602));
#445=CARTESIAN_POINT('',(0.993486343,10.053350311,19.830754756));
#446=CARTESIAN_POINT('',(0.999953975,10.118550567,19.828443397));
#447=CARTESIAN_POINT('',(0.999999757,10.184303087,19.828427211));
#448=CARTESIAN_POINT('',(1.000045539,10.250055607,19.828411024));
#449=CARTESIAN_POINT('',(0.993437821,10.316853574,19.830771443));
#450=CARTESIAN_POINT('',(0.980566717,10.381185915,19.835222904));
#451=CARTESIAN_POINT('',(0.967695614,10.445518256,19.839674364));
#452=CARTESIAN_POINT('',(0.948656492,10.508096987,19.846183003));
#453=CARTESIAN_POINT('',(0.923361159,10.568932507,19.854365809));
#454=CARTESIAN_POINT('',(0.872770493,10.690603545,19.87073142));
#455=CARTESIAN_POINT('',(0.799095371,10.800132348,19.893167283));
#456=CARTESIAN_POINT('',(0.707051962,10.892161596,19.915489242));
#457=CARTESIAN_POINT('',(0.661030257,10.93817622,19.926650222));
#458=CARTESIAN_POINT('',(0.611049605,10.979258597,19.93762471));
#459=CARTESIAN_POINT('',(0.557046033,11.015481617,19.947829662));
#460=CARTESIAN_POINT('',(0.503042461,11.051704638,19.958034614));
#461=CARTESIAN_POINT('',(0.444534287,11.083132272,19.967502987));
#462=CARTESIAN_POINT('',(0.38433275,11.108194637,19.975279539));
#463=CARTESIAN_POINT('',(0.324131213,11.133257001,19.983056092));
#464=CARTESIAN_POINT('',(0.261725696,11.152397526,19.98926529));
#465=CARTESIAN_POINT('',(0.197001835,11.16540312,19.993524725));
#466=CARTESIAN_POINT('',(0.132277974,11.178408713,19.997784159));
#467=CARTESIAN_POINT('',(0.065986118,11.184973632,19.999991211));
#468=CARTESIAN_POINT('',(0.000400814,11.18499992,19.999999973));
#469=CARTESIAN_POINT('',(-0.130769795,11.185052495,20.000017498));
#470=CARTESIAN_POINT('',(-0.263196408,11.158557125,19.990909213));
#471=CARTESIAN_POINT('',(-0.383893428,11.108377407,19.975336256));
#472=CARTESIAN_POINT('',(-0.444241937,11.083287548,19.967549777));
#473=CARTESIAN_POINT('',(-0.502750673,11.051872788,19.958084203));
#474=CARTESIAN_POINT('',(-0.556754341,11.015677196,19.947884768));
#475=CARTESIAN_POINT('',(-0.610758008,10.979481604,19.937685333));
#476=CARTESIAN_POINT('',(-0.660840555,10.938362043,19.926695743));
#477=CARTESIAN_POINT('',(-0.707022785,10.892190768,19.915496318));
#478=CARTESIAN_POINT('',(-0.799387244,10.799848216,19.893097468));
#479=CARTESIAN_POINT('',(-0.872636012,10.690797886,19.870772086));
#480=CARTESIAN_POINT('',(-0.923216701,10.569279745,19.854412535));
#481=CARTESIAN_POINT('',(-0.948507046,10.508520675,19.84623276));
#482=CARTESIAN_POINT('',(-0.967540481,10.446055914,19.839727289));
#483=CARTESIAN_POINT('',(-0.98042729,10.381881512,19.835271121));
#484=CARTESIAN_POINT('',(-0.993314099,10.317707109,19.830814953));
#485=CARTESIAN_POINT('',(-0.999994541,10.250987016,19.828429055));
#486=CARTESIAN_POINT('',(-0.999999997,10.185082261,19.828427126));
#487=CARTESIAN_POINT('',(-1.000005452,10.119177505,19.828425197));
#488=CARTESIAN_POINT('',(-0.993558952,10.053917636,19.830729039));
#489=CARTESIAN_POINT('',(-0.980663372,9.989297799,19.835189474));
#490=CARTESIAN_POINT('',(-0.967767792,9.924677962,19.839649908));
#491=CARTESIAN_POINT('',(-0.948312569,9.861031506,19.846295294));
#492=CARTESIAN_POINT('',(-0.923259548,9.800823208,19.854398677));
#493=CARTESIAN_POINT('',(-0.873153505,9.680406611,19.870605443));
#494=CARTESIAN_POINT('',(-0.798942526,9.569780012,19.893196055));
#495=CARTESIAN_POINT('',(-0.707301905,9.478088396,19.915428616));
#496=CARTESIAN_POINT('',(-0.661481594,9.432242589,19.926544897));
#497=CARTESIAN_POINT('',(-0.610417129,9.390254325,19.937756876));
#498=CARTESIAN_POINT('',(-0.556375733,9.354069171,19.947956249));
#499=CARTESIAN_POINT('',(-0.502334338,9.317884017,19.958155621));
#500=CARTESIAN_POINT('',(-0.445149517,9.287151746,19.967416016));
#501=CARTESIAN_POINT('',(-0.384694475,9.261956035,19.975232791));
#502=CARTESIAN_POINT('',(-0.324239433,9.236760324,19.983049566));
#503=CARTESIAN_POINT('',(-0.260451642,9.217293495,19.989365886));
#504=CARTESIAN_POINT('',(-0.196219775,9.204440058,19.993576089));
#505=CARTESIAN_POINT('',(-0.131987907,9.191586621,19.997786292));
#506=CARTESIAN_POINT('',(-0.066603014,9.185,20.));
#507=CARTESIAN_POINT('',(0.,9.185,20.));
#508=B_SPLINE_CURVE_WITH_KNOTS('',3,(#426,#427,#428,#429,#430,#431,#432,#433,#434,#435,#436,#437,#438,#439,#440,#441,#442,#443,#444,#445,#446,#447,#448,#449,#450,#451,
#452,#453,#454,#455,#456,#457,#458,#459,#460,#461,#462,#463,#464,#465,#466,#467,#468,#469,#470,#471,#472,#473,#474,#475,#476,
#477,#478,#479,#480,#481,#482,#483,#484,#485,#486,#487,#488,#489,#490,#491,#492,#493,#494,#495,#496,#497,#498,#499,#500,#501,
#502,#503,#504,#505,#506,#507),.UNSPECIFIED.,.T.,.F.,(4,3,3,3,3,3,3,3,3,3,3,3,3,3,3,3,3,3,3,3,3,3,3,3,3,3,
3,4),(0.,0.000196797,0.000393595,0.000590392,0.000787189,0.001180784,0.001377581,0.001574378,0.001771175,0.001967973,0.002361567,0.002558364,0.002755162,0.002951959,0.003148756,0.003542351,0.003739148,0.003935945,0.00432954,0.004526337,0.004723134,0.004919932,0.005116729,0.005510324,0.005707121,0.005903918,
0.006100715,0.006297513),.UNSPECIFIED.);
#509=EDGE_CURVE('',#235,#340,#508,.T.);
#510=ORIENTED_EDGE('',*,*,#509,.F.);
#511=EDGE_LOOP('',(#241,#242,#243,#330,#336,#337,#338,#425,#510));
#512=FACE_BOUND('',#511,.T.);
#513=ADVANCED_FACE('',(#512),#233,.T.);
#514=CARTESIAN_POINT('',(0.,10.185,25.5));
#515=DIRECTION('',(0.,0.,1.));
#516=DIRECTION('',(1.,0.,0.));
#517=AXIS2_PLACEMENT_3D('',#514,#515,#516);
#518=PLANE('',#517);
#519=CARTESIAN_POINT('',(1.,10.185,25.5));
#520=VERTEX_POINT('',#519);
#521=CARTESIAN_POINT('',(0.,10.185,25.5));
#522=DIRECTION('',(0.,0.,-1.));
#523=DIRECTION('',(1.,0.,0.));
#524=AXIS2_PLACEMENT_3D('',#521,#522,#523);
#525=CIRCLE('',#524,1.);
#526=EDGE_CURVE('',#520,#520,#525,.T.);
#527=ORIENTED_EDGE('',*,*,#526,.F.);
#528=EDGE_LOOP('',(#527));
#529=FACE_BOUND('',#528,.T.);
#530=ADVANCED_FACE('',(#529),#518,.T.);
#531=CARTESIAN_POINT('',(0.,10.185,18.5));
#532=DIRECTION('',(0.,0.,1.));
#533=DIRECTION('',(1.,0.,-0.));
#534=AXIS2_PLACEMENT_3D('',#531,#532,#533);
#535=CYLINDRICAL_SURFACE('',#534,1.);
#536=CARTESIAN_POINT('',(1.,10.185,25.5));
#537=DIRECTION('',(-0.,-0.,-1.));
#538=VECTOR('',#537,5.671572872);
#539=LINE('',#536,#538);
#540=EDGE_CURVE('',#520,#340,#539,.T.);
#541=ORIENTED_EDGE('',*,*,#540,.T.);
#542=ORIENTED_EDGE('',*,*,#424,.T.);
#543=ORIENTED_EDGE('',*,*,#329,.T.);
#544=ORIENTED_EDGE('',*,*,#509,.T.);
#545=ORIENTED_EDGE('',*,*,#540,.F.);
#546=ORIENTED_EDGE('',*,*,#526,.T.);
#547=EDGE_LOOP('',(#541,#542,#543,#544,#545,#546));
#548=FACE_BOUND('',#547,.T.);
#549=ADVANCED_FACE('',(#548),#535,.T.);
#550=CLOSED_SHELL('',(#43,#60,#211,#228,#513,#530,#549));
#551=MANIFOLD_SOLID_BREP('cavity',#550);
#552=COLOUR_RGB('',0.752941191,0.752941191,0.752941191);
#553=FILL_AREA_STYLE_COLOUR('',#552);
#554=FILL_AREA_STYLE('',(#553));
#555=SURFACE_STYLE_FILL_AREA(#554);
#556=SURFACE_SIDE_STYLE('',(#555));
#557=SURFACE_STYLE_USAGE(.BOTH.,#556);
#558=PRESENTATION_STYLE_ASSIGNMENT((#557));
#26=STYLED_ITEM('',(#558),#551);
#559=DESCRIPTIVE_REPRESENTATION_ITEM('AEDT_MaterialName_V1','vacuum');
#560=ID_ATTRIBUTE('SA #561',#561);
#561=SHAPE_ASPECT('properties','',#23,.F.);
#562=GEOMETRIC_ITEM_SPECIFIC_USAGE('','properties',#561,#17,#551);
#563=PROPERTY_DEFINITION('AEDT_MaterialName_V1','',#561);
#564=REPRESENTATION('',(#559),#10);
#565=PROPERTY_DEFINITION_REPRESENTATION(#563,#564);
#566=GENERAL_PROPERTY('','AEDT_MaterialName_V1','');
#567=GENERAL_PROPERTY_ASSOCIATION('','',#566,#563);
#568=INTEGER_REPRESENTATION_ITEM('AEDT_BODYFlagGroupColor_V1',0);
#569=INTEGER_REPRESENTATION_ITEM('AEDT_BODYFlagGroupColor_V1',-1);
#570=INTEGER_REPRESENTATION_ITEM('AEDT_BODYFlagGroupColor_V1',-2134851392);
#571=INTEGER_REPRESENTATION_ITEM('AEDT_BODYFlagGroupColor_V1',5);
#572=PROPERTY_DEFINITION('AEDT_BODYFlagGroupColor_V1','',#561);
#573=REPRESENTATION('',(#568,#569,#570,#571),#10);
#574=PROPERTY_DEFINITION_REPRESENTATION(#572,#573);
#575=GENERAL_PROPERTY('','AEDT_BODYFlagGroupColor_V1','');
#576=GENERAL_PROPERTY_ASSOCIATION('','',#575,#572);
#577=DESCRIPTIVE_REPRESENTATION_ITEM('AEDT_EntityName_V1','cavity');
#578=PROPERTY_DEFINITION('AEDT_EntityName_V1','',#561);
#579=REPRESENTATION('',(#577),#10);
#580=PROPERTY_DEFINITION_REPRESENTATION(#578,#579);
#581=GENERAL_PROPERTY('','AEDT_EntityName_V1','');
#582=GENERAL_PROPERTY_ASSOCIATION('','',#581,#578);
#584=CARTESIAN_POINT('',(0.,0.,17.));
#585=DIRECTION('',(0.,0.,1.));
#586=DIRECTION('',(1.,0.,0.));
#587=AXIS2_PLACEMENT_3D('',#584,#585,#586);
#588=PLANE('',#587);
#589=CARTESIAN_POINT('',(1.5,0.,17.));
#590=VERTEX_POINT('',#589);
#591=CARTESIAN_POINT('',(0.,0.,17.));
#592=DIRECTION('',(0.,0.,-1.));
#593=DIRECTION('',(1.,0.,0.));
#594=AXIS2_PLACEMENT_3D('',#591,#592,#593);
#595=CIRCLE('',#594,1.5);
#596=EDGE_CURVE('',#590,#590,#595,.T.);
#597=ORIENTED_EDGE('',*,*,#596,.F.);
#598=EDGE_LOOP('',(#597));
#599=FACE_BOUND('',#598,.T.);
#600=ADVANCED_FACE('',(#599),#588,.T.);
#601=CARTESIAN_POINT('',(0.,0.,0.));
#602=DIRECTION('',(0.,0.,-1.));
#603=DIRECTION('',(-1.,0.,0.));
#604=AXIS2_PLACEMENT_3D('',#601,#602,#603);
#605=PLANE('',#604);
#606=CARTESIAN_POINT('',(1.5,-0.,0.));
#607=VERTEX_POINT('',#606);
#608=CARTESIAN_POINT('',(0.,0.,0.));
#609=DIRECTION('',(0.,0.,1.));
#610=DIRECTION('',(1.,0.,0.));
#611=AXIS2_PLACEMENT_3D('',#608,#609,#610);
#612=CIRCLE('',#611,1.5);
#613=EDGE_CURVE('',#607,#607,#612,.T.);
#614=ORIENTED_EDGE('',*,*,#613,.F.);
#615=EDGE_LOOP('',(#614));
#616=FACE_BOUND('',#615,.T.);
#617=ADVANCED_FACE('',(#616),#605,.T.);
#618=CARTESIAN_POINT('',(0.,0.,0.));
#619=DIRECTION('',(0.,0.,1.));
#620=DIRECTION('',(1.,0.,0.));
#621=AXIS2_PLACEMENT_3D('',#618,#619,#620);
#622=CYLINDRICAL_SURFACE('',#621,1.5);
#623=CARTESIAN_POINT('',(1.5,0.,17.));
#624=DIRECTION('',(-0.,-0.,-1.));
#625=VECTOR('',#624,17.);
#626=LINE('',#623,#625);
#627=EDGE_CURVE('',#590,#607,#626,.T.);
#628=ORIENTED_EDGE('',*,*,#627,.T.);
#629=ORIENTED_EDGE('',*,*,#613,.T.);
#630=ORIENTED_EDGE('',*,*,#627,.F.);
#631=ORIENTED_EDGE('',*,*,#596,.T.);
#632=EDGE_LOOP('',(#628,#629,#630,#631));
#633=FACE_BOUND('',#632,.T.);
#634=ADVANCED_FACE('',(#633),#622,.T.);
#635=CLOSED_SHELL('',(#600,#617,#634));
#636=MANIFOLD_SOLID_BREP('pin',#635);
#637=COLOUR_RGB('',1.,0.501960814,0.250980407);
#638=FILL_AREA_STYLE_COLOUR('',#637);
#639=FILL_AREA_STYLE('',(#638));
#640=SURFACE_STYLE_FILL_AREA(#639);
#641=SURFACE_SIDE_STYLE('',(#640));
#642=SURFACE_STYLE_USAGE(.BOTH.,#641);
#643=PRESENTATION_STYLE_ASSIGNMENT((#642));
#583=STYLED_ITEM('',(#643),#636);
#644=DESCRIPTIVE_REPRESENTATION_ITEM('AEDT_MaterialName_V1','perfect conductor');
#645=ID_ATTRIBUTE('SA #646',#646);
#646=SHAPE_ASPECT('properties','',#23,.F.);
#647=GEOMETRIC_ITEM_SPECIFIC_USAGE('','properties',#646,#17,#636);
#648=PROPERTY_DEFINITION('AEDT_MaterialName_V1','',#646);
#649=REPRESENTATION('',(#644),#10);
#650=PROPERTY_DEFINITION_REPRESENTATION(#648,#649);
#651=GENERAL_PROPERTY('','AEDT_MaterialName_V1','');
#652=GENERAL_PROPERTY_ASSOCIATION('','',#651,#648);
#653=INTEGER_REPRESENTATION_ITEM('AEDT_BODYFlagGroupColor_V1',0);
#654=INTEGER_REPRESENTATION_ITEM('AEDT_BODYFlagGroupColor_V1',-1);
#655=INTEGER_REPRESENTATION_ITEM('AEDT_BODYFlagGroupColor_V1',-2130739136);
#656=INTEGER_REPRESENTATION_ITEM('AEDT_BODYFlagGroupColor_V1',5);
#657=PROPERTY_DEFINITION('AEDT_BODYFlagGroupColor_V1','',#646);
#658=REPRESENTATION('',(#653,#654,#655,#656),#10);
#659=PROPERTY_DEFINITION_REPRESENTATION(#657,#658);
#660=GENERAL_PROPERTY('','AEDT_BODYFlagGroupColor_V1','');
#661=GENERAL_PROPERTY_ASSOCIATION('','',#660,#657);
#662=DESCRIPTIVE_REPRESENTATION_ITEM('AEDT_EntityName_V1','pin');
#663=PROPERTY_DEFINITION('AEDT_EntityName_V1','',#646);
#664=REPRESENTATION('',(#662),#10);
#665=PROPERTY_DEFINITION_REPRESENTATION(#663,#664);
#666=GENERAL_PROPERTY('','AEDT_EntityName_V1','');
#667=GENERAL_PROPERTY_ASSOCIATION('','',#666,#663);
#669=CARTESIAN_POINT('',(0.,12.5,17.));
#670=DIRECTION('',(0.,0.,1.));
#671=DIRECTION('',(1.,0.,0.));
#672=AXIS2_PLACEMENT_3D('',#669,#670,#671);
#673=PLANE('',#672);
#674=CARTESIAN_POINT('',(2.,2.5,17.));
#675=VERTEX_POINT('',#674);
#676=CARTESIAN_POINT('',(-2.,2.5,17.));
#677=VERTEX_POINT('',#676);
#678=CARTESIAN_POINT('',(2.,2.5,17.));
#679=DIRECTION('',(-1.,0.,0.));
#680=VECTOR('',#679,4.);
#681=LINE('',#678,#680);
#682=EDGE_CURVE('',#675,#677,#681,.T.);
#683=ORIENTED_EDGE('',*,*,#682,.F.);
#684=CARTESIAN_POINT('',(2.,22.5,17.));
#685=VERTEX_POINT('',#684);
#686=CARTESIAN_POINT('',(2.,22.5,17.));
#687=DIRECTION('',(0.,-1.,0.));
#688=VECTOR('',#687,20.);
#689=LINE('',#686,#688);
#690=EDGE_CURVE('',#685,#675,#689,.T.);
#691=ORIENTED_EDGE('',*,*,#690,.F.);
#692=CARTESIAN_POINT('',(-2.,22.5,17.));
#693=VERTEX_POINT('',#692);
#694=CARTESIAN_POINT('',(-2.,22.5,17.));
#695=DIRECTION('',(1.,0.,-0.));
#696=VECTOR('',#695,4.);
#697=LINE('',#694,#696);
#698=EDGE_CURVE('',#693,#685,#697,.T.);
#699=ORIENTED_EDGE('',*,*,#698,.F.);
#700=CARTESIAN_POINT('',(-2.,2.5,17.));
#701=DIRECTION('',(0.,1.,0.));
#702=VECTOR('',#701,20.);
#703=LINE('',#700,#702);
#704=EDGE_CURVE('',#677,#693,#703,.T.);
#705=ORIENTED_EDGE('',*,*,#704,.F.);
#706=EDGE_LOOP('',(#683,#691,#699,#705));
#707=FACE_BOUND('',#706,.T.);
#708=ADVANCED_FACE('',(#707),#673,.T.);
#709=CARTESIAN_POINT('',(0.,2.5,16.57));
#710=DIRECTION('',(0.,-1.,0.));
#711=DIRECTION('',(0.,0.,-1.));
#712=AXIS2_PLACEMENT_3D('',#709,#710,#711);
#713=PLANE('',#712);
#714=CARTESIAN_POINT('',(2.,2.5,16.57));
#715=VERTEX_POINT('',#714);
#716=CARTESIAN_POINT('',(2.,2.5,16.57));
#717=DIRECTION('',(0.,0.,1.));
#718=VECTOR('',#717,0.43);
#719=LINE('',#716,#718);
#720=EDGE_CURVE('',#715,#675,#719,.T.);
#721=ORIENTED_EDGE('',*,*,#720,.T.);
#722=ORIENTED_EDGE('',*,*,#682,.T.);
#723=CARTESIAN_POINT('',(-2.,2.5,16.57));
#724=VERTEX_POINT('',#723);
#725=CARTESIAN_POINT('',(-2.,2.5,16.57));
#726=DIRECTION('',(0.,0.,1.));
#727=VECTOR('',#726,0.43);
#728=LINE('',#725,#727);
#729=EDGE_CURVE('',#724,#677,#728,.T.);
#730=ORIENTED_EDGE('',*,*,#729,.F.);
#731=CARTESIAN_POINT('',(-2.,2.5,16.57));
#732=DIRECTION('',(1.,0.,-0.));
#733=VECTOR('',#732,4.);
#734=LINE('',#731,#733);
#735=EDGE_CURVE('',#724,#715,#734,.T.);
#736=ORIENTED_EDGE('',*,*,#735,.T.);
#737=EDGE_LOOP('',(#721,#722,#730,#736));
#738=FACE_BOUND('',#737,.T.);
#739=ADVANCED_FACE('',(#738),#713,.T.);
#740=CARTESIAN_POINT('',(-2.,12.5,16.57));
#741=DIRECTION('',(-1.,0.,0.));
#742=DIRECTION('',(0.,0.,1.));
#743=AXIS2_PLACEMENT_3D('',#740,#741,#742);
#744=PLANE('',#743);
#745=ORIENTED_EDGE('',*,*,#729,.T.);
#746=ORIENTED_EDGE('',*,*,#704,.T.);
#747=CARTESIAN_POINT('',(-2.,22.5,16.57));
#748=VERTEX_POINT('',#747);
#749=CARTESIAN_POINT('',(-2.,22.5,16.57));
#750=DIRECTION('',(0.,0.,1.));
#751=VECTOR('',#750,0.43);
#752=LINE('',#749,#751);
#753=EDGE_CURVE('',#748,#693,#752,.T.);
#754=ORIENTED_EDGE('',*,*,#753,.F.);
#755=CARTESIAN_POINT('',(-2.,22.5,16.57));
#756=DIRECTION('',(0.,-1.,0.));
#757=VECTOR('',#756,20.);
#758=LINE('',#755,#757);
#759=EDGE_CURVE('',#748,#724,#758,.T.);
#760=ORIENTED_EDGE('',*,*,#759,.T.);
#761=EDGE_LOOP('',(#745,#746,#754,#760));
#762=FACE_BOUND('',#761,.T.);
#763=ADVANCED_FACE('',(#762),#744,.T.);
#764=CARTESIAN_POINT('',(0.,22.5,16.57));
#765=DIRECTION('',(0.,1.,0.));
#766=DIRECTION('',(0.,0.,1.));
#767=AXIS2_PLACEMENT_3D('',#764,#765,#766);
#768=PLANE('',#767);
#769=ORIENTED_EDGE('',*,*,#753,.T.);
#770=ORIENTED_EDGE('',*,*,#698,.T.);
#771=CARTESIAN_POINT('',(2.,22.5,16.57));
#772=VERTEX_POINT('',#771);
#773=CARTESIAN_POINT('',(2.,22.5,16.57));
#774=DIRECTION('',(0.,0.,1.));
#775=VECTOR('',#774,0.43);
#776=LINE('',#773,#775);
#777=EDGE_CURVE('',#772,#685,#776,.T.);
#778=ORIENTED_EDGE('',*,*,#777,.F.);
#779=CARTESIAN_POINT('',(2.,22.5,16.57));
#780=DIRECTION('',(-1.,0.,0.));
#781=VECTOR('',#780,4.);
#782=LINE('',#779,#781);
#783=EDGE_CURVE('',#772,#748,#782,.T.);
#784=ORIENTED_EDGE('',*,*,#783,.T.);
#785=EDGE_LOOP('',(#769,#770,#778,#784));
#786=FACE_BOUND('',#785,.T.);
#787=ADVANCED_FACE('',(#786),#768,.T.);
#788=CARTESIAN_POINT('',(0.,12.5,16.57));
#789=DIRECTION('',(0.,0.,-1.));
#790=DIRECTION('',(-1.,0.,0.));
#791=AXIS2_PLACEMENT_3D('',#788,#789,#790);
#792=PLANE('',#791);
#793=CARTESIAN_POINT('',(2.,2.5,16.57));
#794=DIRECTION('',(0.,1.,0.));
#795=VECTOR('',#794,20.);
#796=LINE('',#793,#795);
#797=EDGE_CURVE('',#715,#772,#796,.T.);
#798=ORIENTED_EDGE('',*,*,#797,.F.);
#799=ORIENTED_EDGE('',*,*,#735,.F.);
#800=ORIENTED_EDGE('',*,*,#759,.F.);
#801=ORIENTED_EDGE('',*,*,#783,.F.);
#802=EDGE_LOOP('',(#798,#799,#800,#801));
#803=FACE_BOUND('',#802,.T.);
#804=ADVANCED_FACE('',(#803),#792,.T.);
#805=CARTESIAN_POINT('',(2.,12.5,16.57));
#806=DIRECTION('',(1.,0.,0.));
#807=DIRECTION('',(0.,0.,-1.));
#808=AXIS2_PLACEMENT_3D('',#805,#806,#807);
#809=PLANE('',#808);
#810=ORIENTED_EDGE('',*,*,#797,.T.);
#811=ORIENTED_EDGE('',*,*,#777,.T.);
#812=ORIENTED_EDGE('',*,*,#690,.T.);
#813=ORIENTED_EDGE('',*,*,#720,.F.);
#814=EDGE_LOOP('',(#810,#811,#812,#813));
#815=FACE_BOUND('',#814,.T.);
#816=ADVANCED_FACE('',(#815),#809,.T.);
#817=CLOSED_SHELL('',(#708,#739,#763,#787,#804,#816));
#818=MANIFOLD_SOLID_BREP('chip',#817);
#819=COLOUR_RGB('',1.,1.,0.501960814);
#820=FILL_AREA_STYLE_COLOUR('',#819);
#821=FILL_AREA_STYLE('',(#820));
#822=SURFACE_STYLE_FILL_AREA(#821);
#823=SURFACE_SIDE_STYLE('',(#822));
#824=SURFACE_STYLE_USAGE(.BOTH.,#823);
#825=PRESENTATION_STYLE_ASSIGNMENT((#824));
#668=STYLED_ITEM('',(#825),#818);
#826=DESCRIPTIVE_REPRESENTATION_ITEM('AEDT_MaterialName_V1','sapphire');
#827=ID_ATTRIBUTE('SA #828',#828);
#828=SHAPE_ASPECT('properties','',#23,.F.);
#829=GEOMETRIC_ITEM_SPECIFIC_USAGE('','properties',#828,#17,#818);
#830=PROPERTY_DEFINITION('AEDT_MaterialName_V1','',#828);
#831=REPRESENTATION('',(#826),#10);
#832=PROPERTY_DEFINITION_REPRESENTATION(#830,#831);
#833=GENERAL_PROPERTY('','AEDT_MaterialName_V1','');
#834=GENERAL_PROPERTY_ASSOCIATION('','',#833,#830);
#835=INTEGER_REPRESENTATION_ITEM('AEDT_BODYFlagGroupColor_V1',0);
#836=INTEGER_REPRESENTATION_ITEM('AEDT_BODYFlagGroupColor_V1',-1);
#837=INTEGER_REPRESENTATION_ITEM('AEDT_BODYFlagGroupColor_V1',-2130706560);
#838=INTEGER_REPRESENTATION_ITEM('AEDT_BODYFlagGroupColor_V1',5);
#839=PROPERTY_DEFINITION('AEDT_BODYFlagGroupColor_V1','',#828);
#840=REPRESENTATION('',(#835,#836,#837,#838),#10);
#841=PROPERTY_DEFINITION_REPRESENTATION(#839,#840);
#842=GENERAL_PROPERTY('','AEDT_BODYFlagGroupColor_V1','');
#843=GENERAL_PROPERTY_ASSOCIATION('','',#842,#839);
#844=DESCRIPTIVE_REPRESENTATION_ITEM('AEDT_EntityName_V1','chip');
#845=PROPERTY_DEFINITION('AEDT_EntityName_V1','',#828);
#846=REPRESENTATION('',(#844),#10);
#847=PROPERTY_DEFINITION_REPRESENTATION(#845,#846);
#848=GENERAL_PROPERTY('','AEDT_EntityName_V1','');
#849=GENERAL_PROPERTY_ASSOCIATION('','',#848,#845);
#851=CARTESIAN_POINT('',(0.,0.,17.));
#852=DIRECTION('',(0.,0.,1.));
#853=DIRECTION('',(1.,0.,0.));
#854=AXIS2_PLACEMENT_3D('',#851,#852,#853);
#855=PLANE('',#854);
#856=CARTESIAN_POINT('',(-0.5,6.,17.));
#857=VERTEX_POINT('',#856);
#858=CARTESIAN_POINT('',(-0.5,5.5,17.));
#859=VERTEX_POINT('',#858);
#860=CARTESIAN_POINT('',(-0.5,6.,17.));
#861=DIRECTION('',(0.,-1.,0.));
#862=VECTOR('',#861,0.5);
#863=LINE('',#860,#862);
#864=EDGE_CURVE('',#857,#859,#863,.T.);
#865=ORIENTED_EDGE('',*,*,#864,.T.);
#866=CARTESIAN_POINT('',(0.5,5.5,17.));
#867=VERTEX_POINT('',#866);
#868=CARTESIAN_POINT('',(-0.5,5.5,17.));
#869=DIRECTION('',(1.,0.,-0.));
#870=VECTOR('',#869,1.);
#871=LINE('',#868,#870);
#872=EDGE_CURVE('',#859,#867,#871,.T.);
#873=ORIENTED_EDGE('',*,*,#872,.T.);
#874=CARTESIAN_POINT('',(0.5,6.,17.));
#875=VERTEX_POINT('',#874);
#876=CARTESIAN_POINT('',(0.5,5.5,17.));
#877=DIRECTION('',(0.,1.,0.));
#878=VECTOR('',#877,0.5);
#879=LINE('',#876,#878);
#880=EDGE_CURVE('',#867,#875,#879,.T.);
#881=ORIENTED_EDGE('',*,*,#880,.T.);
#882=CARTESIAN_POINT('',(0.015,6.,17.));
#883=VERTEX_POINT('',#882);
#884=CARTESIAN_POINT('',(0.5,6.,17.));
#885=DIRECTION('',(-1.,0.,0.));
#886=VECTOR('',#885,0.485);
#887=LINE('',#884,#886);
#888=EDGE_CURVE('',#875,#883,#887,.T.);
#889=ORIENTED_EDGE('',*,*,#888,.T.);
#890=CARTESIAN_POINT('',(0.015,6.05,17.));
#891=VERTEX_POINT('',#890);
#892=CARTESIAN_POINT('',(0.015,6.,17.));
#893=DIRECTION('',(0.,1.,0.));
#894=VECTOR('',#893,0.05);
#895=LINE('',#892,#894);
#896=EDGE_CURVE('',#883,#891,#895,.T.);
#897=ORIENTED_EDGE('',*,*,#896,.T.);
#898=CARTESIAN_POINT('',(-0.015,6.05,17.));
#899=VERTEX_POINT('',#898);
#900=CARTESIAN_POINT('',(0.015,6.05,17.));
#901=DIRECTION('',(-1.,0.,0.));
#902=VECTOR('',#901,0.03);
#903=LINE('',#900,#902);
#904=EDGE_CURVE('',#891,#899,#903,.T.);
#905=ORIENTED_EDGE('',*,*,#904,.T.);
#906=CARTESIAN_POINT('',(-0.015,6.,17.));
#907=VERTEX_POINT('',#906);
#908=CARTESIAN_POINT('',(-0.015,6.05,17.));
#909=DIRECTION('',(0.,-1.,0.));
#910=VECTOR('',#909,0.05);
#911=LINE('',#908,#910);
#912=EDGE_CURVE('',#899,#907,#911,.T.);
#913=ORIENTED_EDGE('',*,*,#912,.T.);
#914=CARTESIAN_POINT('',(-0.015,6.,17.));
#915=DIRECTION('',(-1.,0.,0.));
#916=VECTOR('',#915,0.485);
#917=LINE('',#914,#916);
#918=EDGE_CURVE('',#907,#857,#917,.T.);
#919=ORIENTED_EDGE('',*,*,#918,.T.);
#920=EDGE_LOOP('',(#865,#873,#881,#889,#897,#905,#913,#919));
#921=FACE_BOUND('',#920,.T.);
#922=ADVANCED_FACE('',(#921),#855,.T.);
#923=OPEN_SHELL('',(#922));
#924=CARTESIAN_POINT('',(0.,12.185,17.));
#925=DIRECTION('',(0.,0.,1.));
#926=DIRECTION('',(1.,0.,0.));
#927=AXIS2_PLACEMENT_3D('',#924,#925,#926);
#928=PLANE('',#927);
#929=CARTESIAN_POINT('',(-0.015,6.135,17.));
#930=VERTEX_POINT('',#929);
#931=CARTESIAN_POINT('',(-0.015,6.185,17.));
#932=VERTEX_POINT('',#931);
#933=CARTESIAN_POINT('',(-0.015,6.135,17.));
#934=DIRECTION('',(0.,1.,0.));
#935=VECTOR('',#934,0.05);
#936=LINE('',#933,#935);
#937=EDGE_CURVE('',#930,#932,#936,.T.);
#938=ORIENTED_EDGE('',*,*,#937,.F.);
#939=CARTESIAN_POINT('',(0.015,6.135,17.));
#940=VERTEX_POINT('',#939);
#941=CARTESIAN_POINT('',(0.015,6.135,17.));
#942=DIRECTION('',(-1.,0.,0.));
#943=VECTOR('',#942,0.03);
#944=LINE('',#941,#943);
#945=EDGE_CURVE('',#940,#930,#944,.T.);
#946=ORIENTED_EDGE('',*,*,#945,.F.);
#947=CARTESIAN_POINT('',(0.015,6.185,17.));
#948=VERTEX_POINT('',#947);
#949=CARTESIAN_POINT('',(0.015,6.185,17.));
#950=DIRECTION('',(0.,-1.,0.));
#951=VECTOR('',#950,0.05);
#952=LINE('',#949,#951);
#953=EDGE_CURVE('',#948,#940,#952,.T.);
#954=ORIENTED_EDGE('',*,*,#953,.F.);
#955=CARTESIAN_POINT('',(0.5,6.185,17.));
#956=VERTEX_POINT('',#955);
#957=CARTESIAN_POINT('',(0.5,6.185,17.));
#958=DIRECTION('',(-1.,0.,0.));
#959=VECTOR('',#958,0.485);
#960=LINE('',#957,#959);
#961=EDGE_CURVE('',#956,#948,#960,.T.);
#962=ORIENTED_EDGE('',*,*,#961,.F.);
#963=CARTESIAN_POINT('',(0.5,6.685,17.));
#964=VERTEX_POINT('',#963);
#965=CARTESIAN_POINT('',(0.5,6.685,17.));
#966=DIRECTION('',(0.,-1.,0.));
#967=VECTOR('',#966,0.5);
#968=LINE('',#965,#967);
#969=EDGE_CURVE('',#964,#956,#968,.T.);
#970=ORIENTED_EDGE('',*,*,#969,.F.);
#971=CARTESIAN_POINT('',(-0.5,6.685,17.));
#972=VERTEX_POINT('',#971);
#973=CARTESIAN_POINT('',(-0.5,6.685,17.));
#974=DIRECTION('',(1.,0.,-0.));
#975=VECTOR('',#974,1.);
#976=LINE('',#973,#975);
#977=EDGE_CURVE('',#972,#964,#976,.T.);
#978=ORIENTED_EDGE('',*,*,#977,.F.);
#979=CARTESIAN_POINT('',(-0.5,6.185,17.));
#980=VERTEX_POINT('',#979);
#981=CARTESIAN_POINT('',(-0.5,6.185,17.));
#982=DIRECTION('',(0.,1.,0.));
#983=VECTOR('',#982,0.5);
#984=LINE('',#981,#983);
#985=EDGE_CURVE('',#980,#972,#984,.T.);
#986=ORIENTED_EDGE('',*,*,#985,.F.);
#987=CARTESIAN_POINT('',(-0.015,6.185,17.));
#988=DIRECTION('',(-1.,0.,0.));
#989=VECTOR('',#988,0.485);
#990=LINE('',#987,#989);
#991=EDGE_CURVE('',#932,#980,#990,.T.);
#992=ORIENTED_EDGE('',*,*,#991,.F.);
#993=EDGE_LOOP('',(#938,#946,#954,#962,#970,#978,#986,#992));
#994=FACE_BOUND('',#993,.T.);
#995=ADVANCED_FACE('',(#994),#928,.T.);
#996=OPEN_SHELL('',(#995));
#997=SHELL_BASED_SURFACE_MODEL('pads',(#923,#996));
#998=COLOUR_RGB('',1.,0.,0.501960814);
#999=FILL_AREA_STYLE_COLOUR('',#998);
#1000=FILL_AREA_STYLE('',(#999));
#1001=SURFACE_STYLE_FILL_AREA(#1000);
#1002=SURFACE_SIDE_STYLE('',(#1001));
#1003=SURFACE_STYLE_USAGE(.BOTH.,#1002);
#1004=PRESENTATION_STYLE_ASSIGNMENT((#1003));
#850=STYLED_ITEM('',(#1004),#997);
#1005=DESCRIPTIVE_REPRESENTATION_ITEM('AEDT_MaterialName_V1','vacuum');
#1006=ID_ATTRIBUTE('SA #1007',#1007);
#1007=SHAPE_ASPECT('properties','',#23,.F.);
#1008=GEOMETRIC_ITEM_SPECIFIC_USAGE('','properties',#1007,#21,#997);
#1009=PROPERTY_DEFINITION('AEDT_MaterialName_V1','',#1007);
#1010=REPRESENTATION('',(#1005),#10);
#1011=PROPERTY_DEFINITION_REPRESENTATION(#1009,#1010);
#1012=GENERAL_PROPERTY('','AEDT_MaterialName_V1','');
#1013=GENERAL_PROPERTY_ASSOCIATION('','',#1012,#1009);
#1014=INTEGER_REPRESENTATION_ITEM('AEDT_BODYFlagGroupColor_V1',0);
#1015=INTEGER_REPRESENTATION_ITEM('AEDT_BODYFlagGroupColor_V1',-1);
#1016=INTEGER_REPRESENTATION_ITEM('AEDT_BODYFlagGroupColor_V1',-2130771840);
#1017=INTEGER_REPRESENTATION_ITEM('AEDT_BODYFlagGroupColor_V1',5);
#1018=PROPERTY_DEFINITION('AEDT_BODYFlagGroupColor_V1','',#1007);
#1019=REPRESENTATION('',(#1014,#1015,#1016,#1017),#10);
#1020=PROPERTY_DEFINITION_REPRESENTATION(#1018,#1019);
#1021=GENERAL_PROPERTY('','AEDT_BODYFlagGroupColor_V1','');
#1022=GENERAL_PROPERTY_ASSOCIATION('','',#1021,#1018);
#1023=DESCRIPTIVE_REPRESENTATION_ITEM('AEDT_EntityName_V1','pads');
#1024=PROPERTY_DEFINITION('AEDT_EntityName_V1','',#1007);
#1025=REPRESENTATION('',(#1023),#10);
#1026=PROPERTY_DEFINITION_REPRESENTATION(#1024,#1025);
#1027=GENERAL_PROPERTY('','AEDT_EntityName_V1','');
#1028=GENERAL_PROPERTY_ASSOCIATION('','',#1027,#1024);
#1030=CARTESIAN_POINT('',(0.,0.,17.));
#1031=DIRECTION('',(0.,0.,1.));
#1032=DIRECTION('',(1.,0.,0.));
#1033=AXIS2_PLACEMENT_3D('',#1030,#1031,#1032);
#1034=PLANE('',#1033);
#1035=CARTESIAN_POINT('',(-0.005,6.08,17.));
#1036=VERTEX_POINT('',#1035);
#1037=CARTESIAN_POINT('',(-0.005,6.05,17.));
#1038=VERTEX_POINT('',#1037);
#1039=CARTESIAN_POINT('',(-0.005,6.08,17.));
#1040=DIRECTION('',(0.,-1.,0.));
#1041=VECTOR('',#1040,0.03);
#1042=LINE('',#1039,#1041);
#1043=EDGE_CURVE('',#1036,#1038,#1042,.T.);
#1044=ORIENTED_EDGE('',*,*,#1043,.T.);
#1045=CARTESIAN_POINT('',(0.005,6.05,17.));
#1046=VERTEX_POINT('',#1045);
#1047=CARTESIAN_POINT('',(-0.005,6.05,17.));
#1048=DIRECTION('',(1.,0.,-0.));
#1049=VECTOR('',#1048,0.01);
#1050=LINE('',#1047,#1049);
#1051=EDGE_CURVE('',#1038,#1046,#1050,.T.);
#1052=ORIENTED_EDGE('',*,*,#1051,.T.);
#1053=CARTESIAN_POINT('',(0.005,6.08,17.));
#1054=VERTEX_POINT('',#1053);
#1055=CARTESIAN_POINT('',(0.005,6.05,17.));
#1056=DIRECTION('',(0.,1.,0.));
#1057=VECTOR('',#1056,0.03);
#1058=LINE('',#1055,#1057);
#1059=EDGE_CURVE('',#1046,#1054,#1058,.T.);
#1060=ORIENTED_EDGE('',*,*,#1059,.T.);
#1061=CARTESIAN_POINT('',(0.005,6.08,17.));
#1062=DIRECTION('',(-1.,0.,0.));
#1063=VECTOR('',#1062,0.01);
#1064=LINE('',#1061,#1063);
#1065=EDGE_CURVE('',#1054,#1036,#1064,.T.);
#1066=ORIENTED_EDGE('',*,*,#1065,.T.);
#1067=EDGE_LOOP('',(#1044,#1052,#1060,#1066));
#1068=FACE_BOUND('',#1067,.T.);
#1069=ADVANCED_FACE('',(#1068),#1034,.T.);
#1070=OPEN_SHELL('',(#1069));
#1071=CARTESIAN_POINT('',(0.,12.185,17.));
#1072=DIRECTION('',(0.,0.,1.));
#1073=DIRECTION('',(1.,0.,0.));
#1074=AXIS2_PLACEMENT_3D('',#1071,#1072,#1073);
#1075=PLANE('',#1074);
#1076=CARTESIAN_POINT('',(-0.005,6.105,17.));
#1077=VERTEX_POINT('',#1076);
#1078=CARTESIAN_POINT('',(-0.005,6.135,17.));
#1079=VERTEX_POINT('',#1078);
#1080=CARTESIAN_POINT('',(-0.005,6.105,17.));
#1081=DIRECTION('',(0.,1.,0.));
#1082=VECTOR('',#1081,0.03);
#1083=LINE('',#1080,#1082);
#1084=EDGE_CURVE('',#1077,#1079,#1083,.T.);
#1085=ORIENTED_EDGE('',*,*,#1084,.F.);
#1086=CARTESIAN_POINT('',(0.005,6.105,17.));
#1087=VERTEX_POINT('',#1086);
#1088=CARTESIAN_POINT('',(0.005,6.105,17.));
#1089=DIRECTION('',(-1.,0.,0.));
#1090=VECTOR('',#1089,0.01);
#1091=LINE('',#1088,#1090);
#1092=EDGE_CURVE('',#1087,#1077,#1091,.T.);
#1093=ORIENTED_EDGE('',*,*,#1092,.F.);
#1094=CARTESIAN_POINT('',(0.005,6.135,17.));
#1095=VERTEX_POINT('',#1094);
#1096=CARTESIAN_POINT('',(0.005,6.135,17.));
#1097=DIRECTION('',(0.,-1.,0.));
#1098=VECTOR('',#1097,0.03);
#1099=LINE('',#1096,#1098);
#1100=EDGE_CURVE('',#1095,#1087,#1099,.T.);
#1101=ORIENTED_EDGE('',*,*,#1100,.F.);
#1102=CARTESIAN_POINT('',(-0.005,6.135,17.));
#1103=DIRECTION('',(1.,0.,-0.));
#1104=VECTOR('',#1103,0.01);
#1105=LINE('',#1102,#1104);
#1106=EDGE_CURVE('',#1079,#1095,#1105,.T.);
#1107=ORIENTED_EDGE('',*,*,#1106,.F.);
#1108=EDGE_LOOP('',(#1085,#1093,#1101,#1107));
#1109=FACE_BOUND('',#1108,.T.);
#1110=ADVANCED_FACE('',(#1109),#1075,.T.);
#1111=OPEN_SHELL('',(#1110));
#1112=SHELL_BASED_SURFACE_MODEL('medium_lead',(#1070,#1111));
#1029=STYLED_ITEM('',(#1004),#1112);
#1113=DESCRIPTIVE_REPRESENTATION_ITEM('AEDT_MaterialName_V1','vacuum');
#1114=ID_ATTRIBUTE('SA #1115',#1115);
#1115=SHAPE_ASPECT('properties','',#23,.F.);
#1116=GEOMETRIC_ITEM_SPECIFIC_USAGE('','properties',#1115,#21,#1112);
#1117=PROPERTY_DEFINITION('AEDT_MaterialName_V1','',#1115);
#1118=REPRESENTATION('',(#1113),#10);
#1119=PROPERTY_DEFINITION_REPRESENTATION(#1117,#1118);
#1120=GENERAL_PROPERTY('','AEDT_MaterialName_V1','');
#1121=GENERAL_PROPERTY_ASSOCIATION('','',#1120,#1117);
#1122=INTEGER_REPRESENTATION_ITEM('AEDT_BODYFlagGroupColor_V1',0);
#1123=INTEGER_REPRESENTATION_ITEM('AEDT_BODYFlagGroupColor_V1',-1);
#1124=INTEGER_REPRESENTATION_ITEM('AEDT_BODYFlagGroupColor_V1',-2130771840);
#1125=INTEGER_REPRESENTATION_ITEM('AEDT_BODYFlagGroupColor_V1',5);
#1126=PROPERTY_DEFINITION('AEDT_BODYFlagGroupColor_V1','',#1115);
#1127=REPRESENTATION('',(#1122,#1123,#1124,#1125),#10);
#1128=PROPERTY_DEFINITION_REPRESENTATION(#1126,#1127);
#1129=GENERAL_PROPERTY('','AEDT_BODYFlagGroupColor_V1','');
#1130=GENERAL_PROPERTY_ASSOCIATION('','',#1129,#1126);
#1131=DESCRIPTIVE_REPRESENTATION_ITEM('AEDT_EntityName_V1','medium_lead');
#1132=PROPERTY_DEFINITION('AEDT_EntityName_V1','',#1115);
#1133=REPRESENTATION('',(#1131),#10);
#1134=PROPERTY_DEFINITION_REPRESENTATION(#1132,#1133);
#1135=GENERAL_PROPERTY('','AEDT_EntityName_V1','');
#1136=GENERAL_PROPERTY_ASSOCIATION('','',#1135,#1132);
#1138=CARTESIAN_POINT('',(0.,0.,17.));
#1139=DIRECTION('',(0.,0.,1.));
#1140=DIRECTION('',(1.,0.,0.));
#1141=AXIS2_PLACEMENT_3D('',#1138,#1139,#1140);
#1142=PLANE('',#1141);
#1143=CARTESIAN_POINT('',(0.0005,6.09345,17.));
#1144=VERTEX_POINT('',#1143);
#1145=CARTESIAN_POINT('',(-0.0005,6.09345,17.));
#1146=VERTEX_POINT('',#1145);
#1147=CARTESIAN_POINT('',(0.0005,6.09345,17.));
#1148=DIRECTION('',(-1.,0.,0.));
#1149=VECTOR('',#1148,0.001);
#1150=LINE('',#1147,#1149);
#1151=EDGE_CURVE('',#1144,#1146,#1150,.T.);
#1152=ORIENTED_EDGE('',*,*,#1151,.F.);
#1153=CARTESIAN_POINT('',(0.0005,6.105,17.));
#1154=VERTEX_POINT('',#1153);
#1155=CARTESIAN_POINT('',(0.0005,6.09345,17.));
#1156=DIRECTION('',(0.,1.,0.));
#1157=VECTOR('',#1156,0.01155);
#1158=LINE('',#1155,#1157);
#1159=EDGE_CURVE('',#1144,#1154,#1158,.T.);
#1160=ORIENTED_EDGE('',*,*,#1159,.T.);
#1161=CARTESIAN_POINT('',(-0.0005,6.105,17.));
#1162=VERTEX_POINT('',#1161);
#1163=CARTESIAN_POINT('',(0.0005,6.105,17.));
#1164=DIRECTION('',(-1.,0.,0.));
#1165=VECTOR('',#1164,0.001);
#1166=LINE('',#1163,#1165);
#1167=EDGE_CURVE('',#1154,#1162,#1166,.T.);
#1168=ORIENTED_EDGE('',*,*,#1167,.T.);
#1169=CARTESIAN_POINT('',(-0.0005,6.105,17.));
#1170=DIRECTION('',(0.,-1.,0.));
#1171=VECTOR('',#1170,0.01155);
#1172=LINE('',#1169,#1171);
#1173=EDGE_CURVE('',#1162,#1146,#1172,.T.);
#1174=ORIENTED_EDGE('',*,*,#1173,.T.);
#1175=EDGE_LOOP('',(#1152,#1160,#1168,#1174));
#1176=FACE_BOUND('',#1175,.T.);
#1177=ADVANCED_FACE('',(#1176),#1142,.T.);
#1178=OPEN_SHELL('',(#1177));
#1179=CARTESIAN_POINT('',(0.,0.,17.));
#1180=DIRECTION('',(0.,0.,1.));
#1181=DIRECTION('',(1.,0.,0.));
#1182=AXIS2_PLACEMENT_3D('',#1179,#1180,#1181);
#1183=PLANE('',#1182);
#1184=CARTESIAN_POINT('',(-0.0005,6.09155,17.));
#1185=VERTEX_POINT('',#1184);
#1186=CARTESIAN_POINT('',(0.0005,6.09155,17.));
#1187=VERTEX_POINT('',#1186);
#1188=CARTESIAN_POINT('',(-0.0005,6.09155,17.));
#1189=DIRECTION('',(1.,0.,-0.));
#1190=VECTOR('',#1189,0.001);
#1191=LINE('',#1188,#1190);
#1192=EDGE_CURVE('',#1185,#1187,#1191,.T.);
#1193=ORIENTED_EDGE('',*,*,#1192,.F.);
#1194=CARTESIAN_POINT('',(-0.0005,6.08,17.));
#1195=VERTEX_POINT('',#1194);
#1196=CARTESIAN_POINT('',(-0.0005,6.09155,17.));
#1197=DIRECTION('',(0.,-1.,0.));
#1198=VECTOR('',#1197,0.01155);
#1199=LINE('',#1196,#1198);
#1200=EDGE_CURVE('',#1185,#1195,#1199,.T.);
#1201=ORIENTED_EDGE('',*,*,#1200,.T.);
#1202=CARTESIAN_POINT('',(0.0005,6.08,17.));
#1203=VERTEX_POINT('',#1202);
#1204=CARTESIAN_POINT('',(-0.0005,6.08,17.));
#1205=DIRECTION('',(1.,0.,-0.));
#1206=VECTOR('',#1205,0.001);
#1207=LINE('',#1204,#1206);
#1208=EDGE_CURVE('',#1195,#1203,#1207,.T.);
#1209=ORIENTED_EDGE('',*,*,#1208,.T.);
#1210=CARTESIAN_POINT('',(0.0005,6.08,17.));
#1211=DIRECTION('',(0.,1.,0.));
#1212=VECTOR('',#1211,0.01155);
#1213=LINE('',#1210,#1212);
#1214=EDGE_CURVE('',#1203,#1187,#1213,.T.);
#1215=ORIENTED_EDGE('',*,*,#1214,.T.);
#1216=EDGE_LOOP('',(#1193,#1201,#1209,#1215));
#1217=FACE_BOUND('',#1216,.T.);
#1218=ADVANCED_FACE('',(#1217),#1183,.T.);
#1219=OPEN_SHELL('',(#1218));
#1220=SHELL_BASED_SURFACE_MODEL('thin_lead',(#1178,#1219));
#1221=COLOUR_RGB('',1.,0.501960814,0.);
#1222=FILL_AREA_STYLE_COLOUR('',#1221);
#1223=FILL_AREA_STYLE('',(#1222));
#1224=SURFACE_STYLE_FILL_AREA(#1223);
#1225=SURFACE_SIDE_STYLE('',(#1224));
#1226=SURFACE_STYLE_USAGE(.BOTH.,#1225);
#1227=PRESENTATION_STYLE_ASSIGNMENT((#1226));
#1137=STYLED_ITEM('',(#1227),#1220);
#1228=DESCRIPTIVE_REPRESENTATION_ITEM('AEDT_MaterialName_V1','vacuum');
#1229=ID_ATTRIBUTE('SA #1230',#1230);
#1230=SHAPE_ASPECT('properties','',#23,.F.);
#1231=GEOMETRIC_ITEM_SPECIFIC_USAGE('','properties',#1230,#21,#1220);
#1232=PROPERTY_DEFINITION('AEDT_MaterialName_V1','',#1230);
#1233=REPRESENTATION('',(#1228),#10);
#1234=PROPERTY_DEFINITION_REPRESENTATION(#1232,#1233);
#1235=GENERAL_PROPERTY('','AEDT_MaterialName_V1','');
#1236=GENERAL_PROPERTY_ASSOCIATION('','',#1235,#1232);
#1237=INTEGER_REPRESENTATION_ITEM('AEDT_BODYFlagGroupColor_V1',0);
#1238=INTEGER_REPRESENTATION_ITEM('AEDT_BODYFlagGroupColor_V1',-1);
#1239=INTEGER_REPRESENTATION_ITEM('AEDT_BODYFlagGroupColor_V1',-2130739200);
#1240=INTEGER_REPRESENTATION_ITEM('AEDT_BODYFlagGroupColor_V1',5);
#1241=PROPERTY_DEFINITION('AEDT_BODYFlagGroupColor_V1','',#1230);
#1242=REPRESENTATION('',(#1237,#1238,#1239,#1240),#10);
#1243=PROPERTY_DEFINITION_REPRESENTATION(#1241,#1242);
#1244=GENERAL_PROPERTY('','AEDT_BODYFlagGroupColor_V1','');
#1245=GENERAL_PROPERTY_ASSOCIATION('','',#1244,#1241);
#1246=DESCRIPTIVE_REPRESENTATION_ITEM('AEDT_EntityName_V1','thin_lead');
#1247=PROPERTY_DEFINITION('AEDT_EntityName_V1','',#1230);
#1248=REPRESENTATION('',(#1246),#10);
#1249=PROPERTY_DEFINITION_REPRESENTATION(#1247,#1248);
#1250=GENERAL_PROPERTY('','AEDT_EntityName_V1','');
#1251=GENERAL_PROPERTY_ASSOCIATION('','',#1250,#1247);
#1253=CARTESIAN_POINT('',(0.,0.,17.));
#1254=DIRECTION('',(0.,0.,1.));
#1255=DIRECTION('',(1.,0.,0.));
#1256=AXIS2_PLACEMENT_3D('',#1253,#1254,#1255);
#1257=PLANE('',#1256);
#1258=CARTESIAN_POINT('',(-0.0005,6.09345,17.));
#1259=VERTEX_POINT('',#1258);
#1260=CARTESIAN_POINT('',(-0.0005,6.09155,17.));
#1261=VERTEX_POINT('',#1260);
#1262=CARTESIAN_POINT('',(-0.0005,6.09345,17.));
#1263=DIRECTION('',(0.,-1.,0.));
#1264=VECTOR('',#1263,0.0019);
#1265=LINE('',#1262,#1264);
#1266=EDGE_CURVE('',#1259,#1261,#1265,.T.);
#1267=ORIENTED_EDGE('',*,*,#1266,.T.);
#1268=CARTESIAN_POINT('',(0.0005,6.09155,17.));
#1269=VERTEX_POINT('',#1268);
#1270=CARTESIAN_POINT('',(-0.0005,6.09155,17.));
#1271=DIRECTION('',(1.,0.,-0.));
#1272=VECTOR('',#1271,0.001);
#1273=LINE('',#1270,#1272);
#1274=EDGE_CURVE('',#1261,#1269,#1273,.T.);
#1275=ORIENTED_EDGE('',*,*,#1274,.T.);
#1276=CARTESIAN_POINT('',(0.0005,6.09345,17.));
#1277=VERTEX_POINT('',#1276);
#1278=CARTESIAN_POINT('',(0.0005,6.09155,17.));
#1279=DIRECTION('',(0.,1.,0.));
#1280=VECTOR('',#1279,0.0019);
#1281=LINE('',#1278,#1280);
#1282=EDGE_CURVE('',#1269,#1277,#1281,.T.);
#1283=ORIENTED_EDGE('',*,*,#1282,.T.);
#1284=CARTESIAN_POINT('',(0.0005,6.09345,17.));
#1285=DIRECTION('',(-1.,0.,0.));
#1286=VECTOR('',#1285,0.001);
#1287=LINE('',#1284,#1286);
#1288=EDGE_CURVE('',#1277,#1259,#1287,.T.);
#1289=ORIENTED_EDGE('',*,*,#1288,.T.);
#1290=EDGE_LOOP('',(#1267,#1275,#1283,#1289));
#1291=FACE_BOUND('',#1290,.T.);
#1292=ADVANCED_FACE('',(#1291),#1257,.T.);
#1293=OPEN_SHELL('',(#1292));
#1294=SHELL_BASED_SURFACE_MODEL('JJ',(#1293));
#1295=COLOUR_RGB('',0.250980407,0.,0.501960814);
#1296=FILL_AREA_STYLE_COLOUR('',#1295);
#1297=FILL_AREA_STYLE('',(#1296));
#1298=SURFACE_STYLE_FILL_AREA(#1297);
#1299=SURFACE_SIDE_STYLE('',(#1298));
#1300=SURFACE_STYLE_USAGE(.BOTH.,#1299);
#1301=PRESENTATION_STYLE_ASSIGNMENT((#1300));
#1252=STYLED_ITEM('',(#1301),#1294);
#1302=DESCRIPTIVE_REPRESENTATION_ITEM('AEDT_MaterialName_V1','vacuum');
#1303=ID_ATTRIBUTE('SA #1304',#1304);
#1304=SHAPE_ASPECT('properties','',#23,.F.);
#1305=GEOMETRIC_ITEM_SPECIFIC_USAGE('','properties',#1304,#21,#1294);
#1306=PROPERTY_DEFINITION('AEDT_MaterialName_V1','',#1304);
#1307=REPRESENTATION('',(#1302),#10);
#1308=PROPERTY_DEFINITION_REPRESENTATION(#1306,#1307);
#1309=GENERAL_PROPERTY('','AEDT_MaterialName_V1','');
#1310=GENERAL_PROPERTY_ASSOCIATION('','',#1309,#1306);
#1311=INTEGER_REPRESENTATION_ITEM('AEDT_BODYFlagGroupColor_V1',0);
#1312=INTEGER_REPRESENTATION_ITEM('AEDT_BODYFlagGroupColor_V1',-1);
#1313=INTEGER_REPRESENTATION_ITEM('AEDT_BODYFlagGroupColor_V1',-2143289216);
#1314=INTEGER_REPRESENTATION_ITEM('AEDT_BODYFlagGroupColor_V1',5);
#1315=PROPERTY_DEFINITION('AEDT_BODYFlagGroupColor_V1','',#1304);
#1316=REPRESENTATION('',(#1311,#1312,#1313,#1314),#10);
#1317=PROPERTY_DEFINITION_REPRESENTATION(#1315,#1316);
#1318=GENERAL_PROPERTY('','AEDT_BODYFlagGroupColor_V1','');
#1319=GENERAL_PROPERTY_ASSOCIATION('','',#1318,#1315);
#1320=DESCRIPTIVE_REPRESENTATION_ITEM('AEDT_EntityName_V1','JJ');
#1321=PROPERTY_DEFINITION('AEDT_EntityName_V1','',#1304);
#1322=REPRESENTATION('',(#1320),#10);
#1323=PROPERTY_DEFINITION_REPRESENTATION(#1321,#1322);
#1324=GENERAL_PROPERTY('','AEDT_EntityName_V1','');
#1325=GENERAL_PROPERTY_ASSOCIATION('','',#1324,#1321);
#1327=CARTESIAN_POINT('',(0.,0.,17.));
#1328=DIRECTION('',(0.,0.,1.));
#1329=DIRECTION('',(1.,0.,0.));
#1330=AXIS2_PLACEMENT_3D('',#1327,#1328,#1329);
#1331=PLANE('',#1330);
#1332=CARTESIAN_POINT('',(-0.15,15.185,17.));
#1333=VERTEX_POINT('',#1332);
#1334=CARTESIAN_POINT('',(-0.15,7.185,17.));
#1335=VERTEX_POINT('',#1334);
#1336=CARTESIAN_POINT('',(-0.15,15.185,17.));
#1337=DIRECTION('',(0.,-1.,0.));
#1338=VECTOR('',#1337,8.);
#1339=LINE('',#1336,#1338);
#1340=EDGE_CURVE('',#1333,#1335,#1339,.T.);
#1341=ORIENTED_EDGE('',*,*,#1340,.T.);
#1342=CARTESIAN_POINT('',(0.15,7.185,17.));
#1343=VERTEX_POINT('',#1342);
#1344=CARTESIAN_POINT('',(-0.15,7.185,17.));
#1345=DIRECTION('',(1.,0.,-0.));
#1346=VECTOR('',#1345,0.3);
#1347=LINE('',#1344,#1346);
#1348=EDGE_CURVE('',#1335,#1343,#1347,.T.);
#1349=ORIENTED_EDGE('',*,*,#1348,.T.);
#1350=CARTESIAN_POINT('',(0.15,15.185,17.));
#1351=VERTEX_POINT('',#1350);
#1352=CARTESIAN_POINT('',(0.15,7.185,17.));
#1353=DIRECTION('',(0.,1.,0.));
#1354=VECTOR('',#1353,8.);
#1355=LINE('',#1352,#1354);
#1356=EDGE_CURVE('',#1343,#1351,#1355,.T.);
#1357=ORIENTED_EDGE('',*,*,#1356,.T.);
#1358=CARTESIAN_POINT('',(0.15,15.185,17.));
#1359=DIRECTION('',(-1.,0.,0.));
#1360=VECTOR('',#1359,0.3);
#1361=LINE('',#1358,#1360);
#1362=EDGE_CURVE('',#1351,#1333,#1361,.T.);
#1363=ORIENTED_EDGE('',*,*,#1362,.T.);
#1364=EDGE_LOOP('',(#1341,#1349,#1357,#1363));
#1365=FACE_BOUND('',#1364,.T.);
#1366=ADVANCED_FACE('',(#1365),#1331,.T.);
#1367=OPEN_SHELL('',(#1366));
#1368=SHELL_BASED_SURFACE_MODEL('RR',(#1367));
#1369=COLOUR_RGB('',0.,0.501960814,0.);
#1370=FILL_AREA_STYLE_COLOUR('',#1369);
#1371=FILL_AREA_STYLE('',(#1370));
#1372=SURFACE_STYLE_FILL_AREA(#1371);
#1373=SURFACE_SIDE_STYLE('',(#1372));
#1374=SURFACE_STYLE_USAGE(.BOTH.,#1373);
#1375=PRESENTATION_STYLE_ASSIGNMENT((#1374));
#1326=STYLED_ITEM('',(#1375),#1368);
#1376=DESCRIPTIVE_REPRESENTATION_ITEM('AEDT_MaterialName_V1','vacuum');
#1377=ID_ATTRIBUTE('SA #1378',#1378);
#1378=SHAPE_ASPECT('properties','',#23,.F.);
#1379=GEOMETRIC_ITEM_SPECIFIC_USAGE('','properties',#1378,#21,#1368);
#1380=PROPERTY_DEFINITION('AEDT_MaterialName_V1','',#1378);
#1381=REPRESENTATION('',(#1376),#10);
#1382=PROPERTY_DEFINITION_REPRESENTATION(#1380,#1381);
#1383=GENERAL_PROPERTY('','AEDT_MaterialName_V1','');
#1384=GENERAL_PROPERTY_ASSOCIATION('','',#1383,#1380);
#1385=INTEGER_REPRESENTATION_ITEM('AEDT_BODYFlagGroupColor_V1',0);
#1386=INTEGER_REPRESENTATION_ITEM('AEDT_BODYFlagGroupColor_V1',-1);
#1387=INTEGER_REPRESENTATION_ITEM('AEDT_BODYFlagGroupColor_V1',-2147450880);
#1388=INTEGER_REPRESENTATION_ITEM('AEDT_BODYFlagGroupColor_V1',5);
#1389=PROPERTY_DEFINITION('AEDT_BODYFlagGroupColor_V1','',#1378);
#1390=REPRESENTATION('',(#1385,#1386,#1387,#1388),#10);
#1391=PROPERTY_DEFINITION_REPRESENTATION(#1389,#1390);
#1392=GENERAL_PROPERTY('','AEDT_BODYFlagGroupColor_V1','');
#1393=GENERAL_PROPERTY_ASSOCIATION('','',#1392,#1389);
#1394=DESCRIPTIVE_REPRESENTATION_ITEM('AEDT_EntityName_V1','RR');
#1395=PROPERTY_DEFINITION('AEDT_EntityName_V1','',#1378);
#1396=REPRESENTATION('',(#1394),#10);
#1397=PROPERTY_DEFINITION_REPRESENTATION(#1395,#1396);
#1398=GENERAL_PROPERTY('','AEDT_EntityName_V1','');
#1399=GENERAL_PROPERTY_ASSOCIATION('','',#1398,#1395);
#1401=CARTESIAN_POINT('',(0.,10.185,25.5));
#1402=DIRECTION('',(0.,0.,1.));
#1403=DIRECTION('',(1.,0.,0.));
#1404=AXIS2_PLACEMENT_3D('',#1401,#1402,#1403);
#1405=PLANE('',#1404);
#1406=CARTESIAN_POINT('',(0.5,10.185,25.5));
#1407=VERTEX_POINT('',#1406);
#1408=CARTESIAN_POINT('',(0.,10.185,25.5));
#1409=DIRECTION('',(0.,0.,-1.));
#1410=DIRECTION('',(1.,0.,0.));
#1411=AXIS2_PLACEMENT_3D('',#1408,#1409,#1410);
#1412=CIRCLE('',#1411,0.5);
#1413=EDGE_CURVE('',#1407,#1407,#1412,.T.);
#1414=ORIENTED_EDGE('',*,*,#1413,.F.);
#1415=EDGE_LOOP('',(#1414));
#1416=FACE_BOUND('',#1415,.T.);
#1417=ADVANCED_FACE('',(#1416),#1405,.T.);
#1418=CARTESIAN_POINT('',(0.,10.185,18.5));
#1419=DIRECTION('',(0.,0.,-1.));
#1420=DIRECTION('',(-1.,0.,0.));
#1421=AXIS2_PLACEMENT_3D('',#1418,#1419,#1420);
#1422=PLANE('',#1421);
#1423=CARTESIAN_POINT('',(0.5,10.185,18.5));
#1424=VERTEX_POINT('',#1423);
#1425=CARTESIAN_POINT('',(0.,10.185,18.5));
#1426=DIRECTION('',(0.,0.,1.));
#1427=DIRECTION('',(1.,0.,-0.));
#1428=AXIS2_PLACEMENT_3D('',#1425,#1426,#1427);
#1429=CIRCLE('',#1428,0.5);
#1430=EDGE_CURVE('',#1424,#1424,#1429,.T.);
#1431=ORIENTED_EDGE('',*,*,#1430,.F.);
#1432=EDGE_LOOP('',(#1431));
#1433=FACE_BOUND('',#1432,.T.);
#1434=ADVANCED_FACE('',(#1433),#1422,.T.);
#1435=CARTESIAN_POINT('',(0.,10.185,18.5));
#1436=DIRECTION('',(0.,0.,1.));
#1437=DIRECTION('',(1.,0.,-0.));
#1438=AXIS2_PLACEMENT_3D('',#1435,#1436,#1437);
#1439=CYLINDRICAL_SURFACE('',#1438,0.5);
#1440=CARTESIAN_POINT('',(0.5,10.185,25.5));
#1441=DIRECTION('',(-0.,-0.,-1.));
#1442=VECTOR('',#1441,7.);
#1443=LINE('',#1440,#1442);
#1444=EDGE_CURVE('',#1407,#1424,#1443,.T.);
#1445=ORIENTED_EDGE('',*,*,#1444,.T.);
#1446=ORIENTED_EDGE('',*,*,#1430,.T.);
#1447=ORIENTED_EDGE('',*,*,#1444,.F.);
#1448=ORIENTED_EDGE('',*,*,#1413,.T.);
#1449=EDGE_LOOP('',(#1445,#1446,#1447,#1448));
#1450=FACE_BOUND('',#1449,.T.);
#1451=ADVANCED_FACE('',(#1450),#1439,.T.);
#1452=CLOSED_SHELL('',(#1417,#1434,#1451));
#1453=MANIFOLD_SOLID_BREP('Pin_1',#1452);
#1454=COLOUR_RGB('',0.949019611,0.549019635,0.400000006);
#1455=FILL_AREA_STYLE_COLOUR('',#1454);
#1456=FILL_AREA_STYLE('',(#1455));
#1457=SURFACE_STYLE_FILL_AREA(#1456);
#1458=SURFACE_SIDE_STYLE('',(#1457));
#1459=SURFACE_STYLE_USAGE(.BOTH.,#1458);
#1460=PRESENTATION_STYLE_ASSIGNMENT((#1459));
#1400=STYLED_ITEM('',(#1460),#1453);
#1461=DESCRIPTIVE_REPRESENTATION_ITEM('AEDT_MaterialName_V1','copper');
#1462=ID_ATTRIBUTE('SA #1463',#1463);
#1463=SHAPE_ASPECT('properties','',#23,.F.);
#1464=GEOMETRIC_ITEM_SPECIFIC_USAGE('','properties',#1463,#17,#1453);
#1465=PROPERTY_DEFINITION('AEDT_MaterialName_V1','',#1463);
#1466=REPRESENTATION('',(#1461),#10);
#1467=PROPERTY_DEFINITION_REPRESENTATION(#1465,#1466);
#1468=GENERAL_PROPERTY('','AEDT_MaterialName_V1','');
#1469=GENERAL_PROPERTY_ASSOCIATION('','',#1468,#1465);
#1470=INTEGER_REPRESENTATION_ITEM('AEDT_BODYFlagGroupColor_V1',0);
#1471=INTEGER_REPRESENTATION_ITEM('AEDT_BODYFlagGroupColor_V1',-1);
#1472=INTEGER_REPRESENTATION_ITEM('AEDT_BODYFlagGroupColor_V1',-2131587994);
#1473=INTEGER_REPRESENTATION_ITEM('AEDT_BODYFlagGroupColor_V1',5);
#1474=PROPERTY_DEFINITION('AEDT_BODYFlagGroupColor_V1','',#1463);
#1475=REPRESENTATION('',(#1470,#1471,#1472,#1473),#10);
#1476=PROPERTY_DEFINITION_REPRESENTATION(#1474,#1475);
#1477=GENERAL_PROPERTY('','AEDT_BODYFlagGroupColor_V1','');
#1478=GENERAL_PROPERTY_ASSOCIATION('','',#1477,#1474);
#1479=DESCRIPTIVE_REPRESENTATION_ITEM('AEDT_EntityName_V1','Pin_1');
#1480=PROPERTY_DEFINITION('AEDT_EntityName_V1','',#1463);
#1481=REPRESENTATION('',(#1479),#10);
#1482=PROPERTY_DEFINITION_REPRESENTATION(#1480,#1481);
#1483=GENERAL_PROPERTY('','AEDT_EntityName_V1','');
#1484=GENERAL_PROPERTY_ASSOCIATION('','',#1483,#1480);
#16=SHAPE_REPRESENTATION('device_intermediate',(#15),#10);
#17=ADVANCED_BREP_SHAPE_REPRESENTATION('device_intermediate',(#551,#636,#818,#1453),#10);
#1492=SHAPE_REPRESENTATION_RELATIONSHIP('','',#16,#17);
#21=MANIFOLD_SURFACE_SHAPE_REPRESENTATION('device_intermediate',(#997,#1112,#1220,#1294,#1368),#10);
#1500=SHAPE_REPRESENTATION_RELATIONSHIP('','',#16,#21);
#1501=CARTESIAN_POINT('',(0.,0.,0.));
#1502=DIRECTION('',(0.,0.,1.));
#1503=DIRECTION('',(1.,0.,0.));
#1504=AXIS2_PLACEMENT_3D('',#1501,#1502,#1503);
#1506=MAPPED_ITEM('',#1505,#1504);
#1505=REPRESENTATION_MAP(#1504,#16);
#1507=APPLICATION_CONTEXT('Managed model based 3d engineering');
#1508=APPLICATION_PROTOCOL_DEFINITION('international standard','ap242_managed_model_based_3d_engineering',2013,#1507);
#1509=PRODUCT_CONTEXT('',#1507,'mechanical');
#1510=PRODUCT_DEFINITION_CONTEXT('part definition',#1507,'design');
#24=PRODUCT('device_intermediate','device_intermediate','',(#1509));
#1511=PRODUCT_RELATED_PRODUCT_CATEGORY('part','',(#24));
#1512=PRODUCT_DEFINITION_FORMATION_WITH_SPECIFIED_SOURCE('','',#24,.NOT_KNOWN.);
#25=PRODUCT_DEFINITION('design','',#1512,#1510);
#23=PRODUCT_DEFINITION_SHAPE('','',#25);
#1513=SHAPE_DEFINITION_REPRESENTATION(#23,#16);
#11=DRAUGHTING_MODEL('',(#1506),#10);
#1514=DESCRIPTIVE_REPRESENTATION_ITEM('KEY','C:/Users/qcrew5/AppData/Local/Temp/device_intermediate.x_b');
#1515=PROPERTY_DEFINITION('KEY','',#25);
#1516=REPRESENTATION('',(#1514),#10);
#1517=PROPERTY_DEFINITION_REPRESENTATION(#1515,#1516);
#1518=GENERAL_PROPERTY('','KEY','');
#1519=GENERAL_PROPERTY_ASSOCIATION('','',#1518,#1515);
#1=MECHANICAL_DESIGN_GEOMETRIC_PRESENTATION_REPRESENTATION('',(#26,#583,#668,#850,#1029,#1137,#1252,#1326,#1400),#10);
ENDSEC;
END-ISO-10303-21;
